Fira Sans-Regular Italic.ufo
<glyph name="parenleft" format="1">
  <advance width="318"/>
  <unicode hex="0028"/>
  <outline>
    <contour>
      <point x="138" y="651"/>
      <point x="42" y="502"/>
      <point x="42" y="240" type="curve" smooth="yes"/>
      <point x="42" y="73"/>
      <point x="103" y="-32"/>
      <point x="167" y="-143" type="curve"/>
      <point x="227" y="-109" type="line"/>
      <point x="172" y="-5"/>
      <point x="135" y="84"/>
      <point x="135" y="229" type="curve" smooth="yes"/>
      <point x="135" y="459"/>
      <point x="206" y="617"/>
      <point x="357" y="803" type="curve"/>
      <point x="303" y="847" type="line"/>
    </contour>
  </outline>
</glyph>
<glyph name="parenright" format="1">
  <advance width="318"/>
  <unicode hex="0029"/>
  <outline>
    <contour>
      <point x="115" y="809" type="line"/>
      <point x="170" y="706"/>
      <point x="208" y="617"/>
      <point x="208" y="473" type="curve" smooth="yes"/>
      <point x="208" y="243"/>
      <point x="136" y="83"/>
      <point x="-15" y="-103" type="curve"/>
      <point x="39" y="-147" type="line"/>
      <point x="204" y="49"/>
      <point x="300" y="198"/>
      <point x="300" y="460" type="curve" smooth="yes"/>
      <point x="300" y="627"/>
      <point x="239" y="732"/>
      <point x="175" y="843" type="curve"/>
    </contour>
  </outline>
</glyph>
<glyph name="zero" format="1">
  <advance width="552"/>
  <unicode hex="0030"/>
  <outline>
    <contour>
      <point x="452" y="679"/>
      <point x="515" y="593"/>
      <point x="515" y="438" type="curve" smooth="yes"/>
      <point x="515" y="256"/>
      <point x="450" y="-12"/>
      <point x="238" y="-12" type="curve" smooth="yes"/>
      <point x="119" y="-12"/>
      <point x="56" y="74"/>
      <point x="56" y="229" type="curve" smooth="yes"/>
      <point x="56" y="411"/>
      <point x="120" y="679"/>
      <point x="333" y="679" type="curve" smooth="yes"/>
    </contour>
    <contour>
      <point x="198" y="606"/>
      <point x="149" y="377"/>
      <point x="149" y="212" type="curve" smooth="yes"/>
      <point x="149" y="104"/>
      <point x="182" y="61"/>
      <point x="242" y="61" type="curve" smooth="yes"/>
      <point x="374" y="61"/>
      <point x="423" y="291"/>
      <point x="423" y="455" type="curve" smooth="yes"/>
      <point x="423" y="563"/>
      <point x="390" y="606"/>
      <point x="330" y="606" type="curve" smooth="yes"/>
    </contour>
  </outline>
</glyph>
<glyph name="six" format="1">
  <advance width="526"/>
  <unicode hex="0036"/>
  <outline>
    <contour>
      <point x="159" y="679"/>
      <point x="54" y="447"/>
      <point x="54" y="221" type="curve" smooth="yes"/>
      <point x="54" y="80"/>
      <point x="107" y="-12"/>
      <point x="242" y="-12" type="curve" smooth="yes"/>
      <point x="412" y="-12"/>
      <point x="484" y="150"/>
      <point x="484" y="262" type="curve" smooth="yes"/>
      <point x="484" y="380"/>
      <point x="413" y="440"/>
      <point x="325" y="440" type="curve" smooth="yes"/>
      <point x="259" y="440"/>
      <point x="199" y="410"/>
      <point x="142" y="337" type="curve"/>
      <point x="136" y="256" type="line"/>
      <point x="178" y="320"/>
      <point x="240" y="367"/>
      <point x="307" y="367" type="curve" smooth="yes"/>
      <point x="358" y="367"/>
      <point x="393" y="340"/>
      <point x="393" y="263" type="curve" smooth="yes"/>
      <point x="393" y="189"/>
      <point x="360" y="61"/>
      <point x="245" y="61" type="curve" smooth="yes"/>
      <point x="174" y="61"/>
      <point x="144" y="105"/>
      <point x="144" y="210" type="curve" smooth="yes"/>
      <point x="144" y="238"/>
      <point x="145" y="260"/>
      <point x="149" y="297" type="curve"/>
      <point x="152" y="326" type="line"/>
      <point x="174" y="492"/>
      <point x="252" y="606"/>
      <point x="355" y="606" type="curve" smooth="yes"/>
      <point x="389" y="606"/>
      <point x="423" y="596"/>
      <point x="450" y="577" type="curve"/>
      <point x="491" y="637" type="line"/>
      <point x="456" y="663"/>
      <point x="413" y="679"/>
      <point x="358" y="679" type="curve" smooth="yes"/>
    </contour>
  </outline>
</glyph>
<glyph name="less" format="1">
  <advance width="496"/>
  <unicode hex="003C"/>
  <outline>
    <contour>
      <point x="65" y="380" type="line"/>
      <point x="52" y="286" type="line"/>
      <point x="392" y="115" type="line"/>
      <point x="435" y="189" type="line"/>
      <point x="131" y="331" type="line"/>
      <point x="479" y="472" type="line"/>
      <point x="451" y="551" type="line"/>
    </contour>
  </outline>
</glyph>
<glyph name="asciicircum" format="1">
  <advance width="534"/>
  <unicode hex="005E"/>
  <outline>
    <contour>
      <point x="308" y="840" type="line"/>
      <point x="76" y="527" type="line"/>
      <point x="174" y="527" type="line"/>
      <point x="339" y="760" type="line"/>
      <point x="436" y="527" type="line"/>
      <point x="532" y="527" type="line"/>
      <point x="389" y="840" type="line"/>
    </contour>
  </outline>
</glyph>
<glyph name="d" format="1">
  <advance width="587"/>
  <unicode hex="0064"/>
  <outline>
    <contour>
      <point x="431" y="473" type="line"/>
      <point x="402" y="510"/>
      <point x="358" y="539"/>
      <point x="296" y="539" type="curve" smooth="yes"/>
      <point x="116" y="539"/>
      <point x="51" y="333"/>
      <point x="51" y="197" type="curve" smooth="yes"/>
      <point x="51" y="70"/>
      <point x="109" y="-12"/>
      <point x="218" y="-12" type="curve" smooth="yes"/>
      <point x="286" y="-12"/>
      <point x="340" y="26"/>
      <point x="377" y="87" type="curve"/>
      <point x="376" y="0" type="line"/>
      <point x="456" y="0" type="line"/>
      <point x="560" y="738" type="line"/>
      <point x="470" y="748" type="line"/>
    </contour>
    <contour>
      <point x="362" y="466"/>
      <point x="395" y="443"/>
      <point x="422" y="402" type="curve"/>
      <point x="391" y="183" type="line"/>
      <point x="344" y="109"/>
      <point x="301" y="61"/>
      <point x="236" y="61" type="curve" smooth="yes"/>
      <point x="181" y="61"/>
      <point x="148" y="101"/>
      <point x="148" y="190" type="curve" smooth="yes"/>
      <point x="148" y="295"/>
      <point x="185" y="466"/>
      <point x="313" y="466" type="curve" smooth="yes"/>
    </contour>
    <contour>
      <point x="252" y="0" type="move" name="bottom"/>
    </contour>
    <contour>
      <point x="341" y="739" type="move" name="top"/>
    </contour>
    <contour>
      <point x="570" y="739" type="move" name="topright"/>
    </contour>
    <contour>
      <point x="295" y="264" type="move" name="center"/>
    </contour>
  </outline>
</glyph>
<glyph name="g" format="1">
  <advance width="580"/>
  <unicode hex="0067"/>
  <outline>
    <contour>
      <point x="130" y="539"/>
      <point x="51" y="355"/>
      <point x="51" y="198" type="curve" smooth="yes"/>
      <point x="51" y="78"/>
      <point x="114" y="0"/>
      <point x="220" y="0" type="curve" smooth="yes"/>
      <point x="278" y="0"/>
      <point x="331" y="33"/>
      <point x="370" y="80" type="curve"/>
      <point x="361" y="13" type="line" smooth="yes"/>
      <point x="343" y="-116"/>
      <point x="274" y="-137"/>
      <point x="204" y="-137" type="curve" smooth="yes"/>
      <point x="149" y="-137"/>
      <point x="94" y="-114"/>
      <point x="62" y="-95" type="curve"/>
      <point x="27" y="-165" type="line"/>
      <point x="77" y="-196"/>
      <point x="146" y="-216"/>
      <point x="209" y="-216" type="curve" smooth="yes"/>
      <point x="333" y="-216"/>
      <point x="425" y="-158"/>
      <point x="450" y="12" type="curve" smooth="yes"/>
      <point x="523" y="494" type="line"/>
      <point x="463" y="523"/>
      <point x="406" y="539"/>
      <point x="337" y="539" type="curve"/>
    </contour>
    <contour>
      <point x="373" y="466"/>
      <point x="396" y="461"/>
      <point x="426" y="449" type="curve"/>
      <point x="383" y="172" type="line"/>
      <point x="342" y="117"/>
      <point x="297" y="73"/>
      <point x="239" y="73" type="curve" smooth="yes"/>
      <point x="185" y="73"/>
      <point x="149" y="110"/>
      <point x="149" y="197" type="curve" smooth="yes"/>
      <point x="149" y="325"/>
      <point x="203" y="466"/>
      <point x="337" y="466" type="curve" smooth="yes"/>
    </contour>
    <contour>
      <point x="330" y="527" type="move" name="top"/>
    </contour>
    <contour>
      <point x="209" y="-202" type="move" name="bottom"/>
    </contour>
  </outline>
</glyph>
<glyph name="section" format="1">
  <advance width="527"/>
  <unicode hex="00A7"/>
  <outline>
    <contour>
      <point x="221" y="677"/>
      <point x="130" y="625"/>
      <point x="130" y="525" type="curve" smooth="yes"/>
      <point x="130" y="454"/>
      <point x="186" y="412"/>
      <point x="284" y="378" type="curve" smooth="yes"/>
      <point x="357" y="353"/>
      <point x="375" y="329"/>
      <point x="375" y="293" type="curve" smooth="yes"/>
      <point x="375" y="257"/>
      <point x="357" y="232"/>
      <point x="306" y="196" type="curve"/>
      <point x="358" y="164" type="line"/>
      <point x="428" y="202"/>
      <point x="463" y="245"/>
      <point x="463" y="306" type="curve" smooth="yes"/>
      <point x="463" y="367"/>
      <point x="419" y="411"/>
      <point x="325" y="443" type="curve" smooth="yes"/>
      <point x="243" y="471"/>
      <point x="220" y="492"/>
      <point x="220" y="533" type="curve" smooth="yes"/>
      <point x="220" y="572"/>
      <point x="245" y="606"/>
      <point x="325" y="606" type="curve" smooth="yes"/>
      <point x="377" y="606"/>
      <point x="415" y="593"/>
      <point x="457" y="566" type="curve"/>
      <point x="497" y="621" type="line"/>
      <point x="455" y="653"/>
      <point x="401" y="677"/>
      <point x="325" y="677" type="curve" smooth="yes"/>
    </contour>
    <contour>
      <point x="112" y="409"/>
      <point x="75" y="359"/>
      <point x="75" y="297" type="curve" smooth="yes"/>
      <point x="75" y="233"/>
      <point x="113" y="195"/>
      <point x="212" y="162" type="curve" smooth="yes"/>
      <point x="296" y="134"/>
      <point x="319" y="119"/>
      <point x="319" y="75" type="curve" smooth="yes"/>
      <point x="319" y="36"/>
      <point x="293" y="1"/>
      <point x="209" y="1" type="curve" smooth="yes"/>
      <point x="162" y="1"/>
      <point x="118" y="12"/>
      <point x="78" y="40" type="curve"/>
      <point x="38" y="-20" type="line"/>
      <point x="79" y="-49"/>
      <point x="136" y="-71"/>
      <point x="204" y="-71" type="curve" smooth="yes"/>
      <point x="352" y="-71"/>
      <point x="410" y="7"/>
      <point x="410" y="79" type="curve" smooth="yes"/>
      <point x="410" y="159"/>
      <point x="353" y="195"/>
      <point x="242" y="230" type="curve" smooth="yes"/>
      <point x="181" y="249"/>
      <point x="165" y="272"/>
      <point x="165" y="309" type="curve" smooth="yes"/>
      <point x="165" y="347"/>
      <point x="178" y="373"/>
      <point x="231" y="410" type="curve"/>
      <point x="190" y="444" type="line"/>
    </contour>
  </outline>
</glyph>
<glyph name="ordfeminine" format="1">
  <advance width="494"/>
  <unicode hex="00AA"/>
  <outline>
    <contour>
      <point x="251" y="271"/>
      <point x="297" y="288"/>
      <point x="332" y="330" type="curve"/>
      <point x="342" y="293"/>
      <point x="369" y="276"/>
      <point x="411" y="272" type="curve"/>
      <point x="436" y="332" type="line"/>
      <point x="410" y="341"/>
      <point x="408" y="356"/>
      <point x="412" y="381" type="curve" smooth="yes"/>
      <point x="435" y="551" type="line" smooth="yes"/>
      <point x="445" y="644"/>
      <point x="401" y="689"/>
      <point x="296" y="689" type="curve" smooth="yes"/>
      <point x="251" y="689"/>
      <point x="200" y="681"/>
      <point x="145" y="662" type="curve"/>
      <point x="162" y="598" type="line"/>
      <point x="206" y="612"/>
      <point x="247" y="620"/>
      <point x="278" y="620" type="curve" smooth="yes"/>
      <point x="336" y="620"/>
      <point x="355" y="601"/>
      <point x="346" y="545" type="curve" smooth="yes"/>
      <point x="343" y="525" type="line"/>
      <point x="284" y="525" type="line" smooth="yes"/>
      <point x="121" y="525"/>
      <point x="79" y="451"/>
      <point x="79" y="385" type="curve" smooth="yes"/>
      <point x="79" y="320"/>
      <point x="123" y="271"/>
      <point x="202" y="271" type="curve" smooth="yes"/>
    </contour>
    <contour>
      <point x="187" y="337"/>
      <point x="171" y="357"/>
      <point x="171" y="389" type="curve" smooth="yes"/>
      <point x="171" y="429"/>
      <point x="196" y="470"/>
      <point x="284" y="470" type="curve" smooth="yes"/>
      <point x="336" y="470" type="line"/>
      <point x="325" y="394" type="line"/>
      <point x="299" y="358"/>
      <point x="266" y="337"/>
      <point x="224" y="337" type="curve" smooth="yes"/>
    </contour>
    <component base="minus" xOffset="-40" yOffset="-294"/>
  </outline>
</glyph>
<glyph name="logicalnot" format="1">
  <advance width="494"/>
  <unicode hex="00AC"/>
  <outline>
    <contour>
      <point x="75" y="361" type="line"/>
      <point x="64" y="284" type="line"/>
      <point x="349" y="284" type="line"/>
      <point x="329" y="141" type="line"/>
      <point x="416" y="141" type="line"/>
      <point x="447" y="361" type="line"/>
    </contour>
  </outline>
</glyph>
<glyph name="degree" format="1">
  <advance width="517"/>
  <unicode hex="00B0"/>
  <outline>
    <contour>
      <point x="337" y="381"/>
      <point x="414" y="461"/>
      <point x="414" y="563" type="curve" smooth="yes"/>
      <point x="414" y="651"/>
      <point x="353" y="701"/>
      <point x="271" y="701" type="curve"/>
      <point x="169" y="701"/>
      <point x="92" y="621"/>
      <point x="92" y="519" type="curve" smooth="yes"/>
      <point x="92" y="431"/>
      <point x="153" y="381"/>
      <point x="235" y="381" type="curve"/>
    </contour>
    <contour>
      <point x="194" y="444"/>
      <point x="167" y="467"/>
      <point x="167" y="518" type="curve" smooth="yes"/>
      <point x="167" y="588"/>
      <point x="205" y="638"/>
      <point x="269" y="638" type="curve"/>
      <point x="312" y="638"/>
      <point x="339" y="615"/>
      <point x="339" y="564" type="curve" smooth="yes"/>
      <point x="339" y="494"/>
      <point x="301" y="444"/>
      <point x="237" y="444" type="curve"/>
    </contour>
  </outline>
</glyph>
<glyph name="ordmasculine" format="1">
  <advance width="494"/>
  <unicode hex="00BA"/>
  <outline>
    <contour>
      <point x="169" y="689"/>
      <point x="83" y="582"/>
      <point x="83" y="441" type="curve" smooth="yes"/>
      <point x="83" y="336"/>
      <point x="142" y="271"/>
      <point x="252" y="271" type="curve" smooth="yes"/>
      <point x="387" y="271"/>
      <point x="472" y="378"/>
      <point x="472" y="519" type="curve" smooth="yes"/>
      <point x="472" y="624"/>
      <point x="413" y="689"/>
      <point x="304" y="689" type="curve" smooth="yes"/>
    </contour>
    <contour>
      <point x="353" y="620"/>
      <point x="379" y="589"/>
      <point x="379" y="525" type="curve" smooth="yes"/>
      <point x="379" y="431"/>
      <point x="344" y="340"/>
      <point x="254" y="340" type="curve" smooth="yes"/>
      <point x="203" y="340"/>
      <point x="176" y="372"/>
      <point x="176" y="436" type="curve" smooth="yes"/>
      <point x="176" y="530"/>
      <point x="211" y="620"/>
      <point x="302" y="620" type="curve" smooth="yes"/>
    </contour>
    <component base="minus" xOffset="-41" yOffset="-294"/>
  </outline>
</glyph>
<glyph name="multiply" format="1">
  <advance width="495"/>
  <unicode hex="00D7"/>
  <outline>
    <contour>
      <point x="258" y="362" type="line"/>
      <point x="156" y="486" type="line"/>
      <point x="93" y="431" type="line"/>
      <point x="197" y="306" type="line"/>
      <point x="61" y="186" type="line"/>
      <point x="111" y="129" type="line"/>
      <point x="250" y="252" type="line"/>
      <point x="352" y="129" type="line"/>
      <point x="415" y="184" type="line"/>
      <point x="311" y="308" type="line"/>
      <point x="447" y="429" type="line"/>
      <point x="397" y="486" type="line"/>
    </contour>
  </outline>
</glyph>
<glyph name="germandbls" format="1">
  <advance width="587"/>
  <unicode hex="00DF"/>
  <outline>
    <contour>
      <point x="72" y="-163"/>
      <point x="131" y="-120"/>
      <point x="152" y="29" type="curve" smooth="yes"/>
      <point x="223" y="536" type="line"/>
      <point x="236" y="631"/>
      <point x="284" y="678"/>
      <point x="356" y="678" type="curve" smooth="yes"/>
      <point x="399" y="678"/>
      <point x="433" y="660"/>
      <point x="433" y="618" type="curve" smooth="yes"/>
      <point x="433" y="521"/>
      <point x="297" y="524"/>
      <point x="297" y="409" type="curve" smooth="yes"/>
      <point x="297" y="305"/>
      <point x="443" y="290"/>
      <point x="443" y="172" type="curve" smooth="yes"/>
      <point x="443" y="126"/>
      <point x="414" y="62"/>
      <point x="328" y="62" type="curve" smooth="yes"/>
      <point x="299" y="62"/>
      <point x="268" y="70"/>
      <point x="247" y="81" type="curve"/>
      <point x="214" y="19" type="line"/>
      <point x="241" y="3"/>
      <point x="284" y="-12"/>
      <point x="335" y="-12" type="curve" smooth="yes"/>
      <point x="470" y="-12"/>
      <point x="535" y="90"/>
      <point x="535" y="175" type="curve" smooth="yes"/>
      <point x="535" y="331"/>
      <point x="384" y="344"/>
      <point x="384" y="422" type="curve" smooth="yes"/>
      <point x="384" y="492"/>
      <point x="520" y="499"/>
      <point x="520" y="621" type="curve" smooth="yes"/>
      <point x="520" y="694"/>
      <point x="461" y="750"/>
      <point x="357" y="750" type="curve" smooth="yes"/>
      <point x="232" y="750"/>
      <point x="151" y="675"/>
      <point x="133" y="542" type="curve"/>
      <point x="61" y="29" type="line" smooth="yes"/>
      <point x="45" y="-84"/>
      <point x="1" y="-112"/>
      <point x="-71" y="-144" type="curve"/>
      <point x="-45" y="-213" type="line"/>
    </contour>
  </outline>
</glyph>
<glyph name="ae" format="1">
  <advance width="817"/>
  <unicode hex="00E6"/>
  <outline>
    <contour>
      <point x="222" y="539"/>
      <point x="168" y="527"/>
      <point x="114" y="507" type="curve"/>
      <point x="132" y="438" type="line"/>
      <point x="185" y="455"/>
      <point x="220" y="464"/>
      <point x="271" y="464" type="curve" smooth="yes"/>
      <point x="337" y="464"/>
      <point x="382" y="431"/>
      <point x="385" y="384" type="curve"/>
      <point x="381" y="372"/>
      <point x="374" y="352"/>
      <point x="365" y="308" type="curve"/>
      <point x="284" y="308" type="line" smooth="yes"/>
      <point x="91" y="308"/>
      <point x="28" y="220"/>
      <point x="28" y="127" type="curve" smooth="yes"/>
      <point x="28" y="44"/>
      <point x="86" y="-12"/>
      <point x="185" y="-12" type="curve" smooth="yes"/>
      <point x="259" y="-12"/>
      <point x="321" y="12"/>
      <point x="379" y="81" type="curve"/>
      <point x="410" y="22"/>
      <point x="470" y="-12"/>
      <point x="553" y="-12" type="curve" smooth="yes"/>
      <point x="623" y="-12"/>
      <point x="685" y="11"/>
      <point x="742" y="52" type="curve"/>
      <point x="703" y="114" type="line"/>
      <point x="655" y="80"/>
      <point x="611" y="65"/>
      <point x="562" y="65" type="curve" smooth="yes"/>
      <point x="494" y="65"/>
      <point x="444" y="101"/>
      <point x="443" y="200" type="curve"/>
      <point x="629" y="219"/>
      <point x="790" y="255"/>
      <point x="790" y="405" type="curve" smooth="yes"/>
      <point x="790" y="475"/>
      <point x="735" y="539"/>
      <point x="623" y="539" type="curve" smooth="yes"/>
      <point x="541" y="539"/>
      <point x="480" y="502"/>
      <point x="443" y="456" type="curve"/>
      <point x="420" y="506"/>
      <point x="373" y="539"/>
      <point x="285" y="539" type="curve" smooth="yes"/>
    </contour>
    <contour>
      <point x="354" y="230"/>
      <point x="354" y="167"/>
      <point x="357" y="151" type="curve"/>
      <point x="309" y="87"/>
      <point x="261" y="57"/>
      <point x="201" y="57" type="curve" smooth="yes"/>
      <point x="153" y="57"/>
      <point x="128" y="79"/>
      <point x="128" y="126" type="curve" smooth="yes"/>
      <point x="128" y="213"/>
      <point x="187" y="245"/>
      <point x="292" y="245" type="curve" smooth="yes"/>
      <point x="356" y="245" type="line"/>
    </contour>
    <contour>
      <point x="679" y="466"/>
      <point x="694" y="427"/>
      <point x="694" y="402" type="curve" smooth="yes"/>
      <point x="694" y="311"/>
      <point x="602" y="287"/>
      <point x="449" y="270" type="curve"/>
      <point x="464" y="364"/>
      <point x="513" y="466"/>
      <point x="622" y="466" type="curve" smooth="yes"/>
    </contour>
    <contour>
      <point x="455" y="527" type="move" name="top"/>
    </contour>
    <contour>
      <point x="373" y="0" type="move" name="bottom"/>
    </contour>
  </outline>
</glyph>
<glyph name="eth" format="1">
  <advance width="574"/>
  <unicode hex="00F0"/>
  <outline>
    <contour>
      <point x="171" y="680" type="line"/>
      <point x="221" y="670"/>
      <point x="259" y="658"/>
      <point x="310" y="631" type="curve"/>
      <point x="388" y="570"/>
      <point x="419" y="499"/>
      <point x="422" y="400" type="curve"/>
      <point x="419" y="350" type="line"/>
      <point x="413" y="204"/>
      <point x="365" y="61"/>
      <point x="242" y="61" type="curve" smooth="yes"/>
      <point x="180" y="61"/>
      <point x="142" y="103"/>
      <point x="142" y="188" type="curve" smooth="yes"/>
      <point x="142" y="279"/>
      <point x="172" y="403"/>
      <point x="293" y="403" type="curve" smooth="yes"/>
      <point x="358" y="403"/>
      <point x="399" y="373"/>
      <point x="425" y="313" type="curve"/>
      <point x="432" y="398" type="line"/>
      <point x="402" y="446"/>
      <point x="353" y="475"/>
      <point x="281" y="475" type="curve" smooth="yes"/>
      <point x="118" y="475"/>
      <point x="49" y="311"/>
      <point x="49" y="190" type="curve" smooth="yes"/>
      <point x="49" y="61"/>
      <point x="130" y="-12"/>
      <point x="240" y="-12" type="curve" smooth="yes"/>
      <point x="426" y="-12"/>
      <point x="512" y="161"/>
      <point x="512" y="377" type="curve" smooth="yes"/>
      <point x="512" y="513"/>
      <point x="468" y="612"/>
      <point x="357" y="686" type="curve"/>
      <point x="310" y="719"/>
      <point x="259" y="736"/>
      <point x="196" y="749" type="curve"/>
    </contour>
    <contour>
      <point x="310" y="676" type="line"/>
      <point x="298" y="665" type="line"/>
      <point x="192" y="571" type="line"/>
      <point x="252" y="539" type="line"/>
      <point x="353" y="626" type="line"/>
      <point x="362" y="633" type="line"/>
      <point x="466" y="729" type="line"/>
      <point x="418" y="776" type="line"/>
    </contour>
    <contour>
      <point x="336" y="739" type="move" name="top"/>
    </contour>
    <contour>
      <point x="244" y="0" type="move" name="bottom"/>
    </contour>
  </outline>
</glyph>
<glyph name="oslash" format="1">
  <advance width="578"/>
  <unicode hex="00F8"/>
  <outline>
    <contour>
      <point x="461" y="-12"/>
      <point x="526" y="194"/>
      <point x="526" y="321" type="curve" smooth="yes"/>
      <point x="526" y="455"/>
      <point x="456" y="539"/>
      <point x="325" y="539" type="curve" smooth="yes"/>
      <point x="119" y="539"/>
      <point x="52" y="336"/>
      <point x="52" y="206" type="curve" smooth="yes"/>
      <point x="52" y="72"/>
      <point x="123" y="-12"/>
      <point x="254" y="-12" type="curve" smooth="yes"/>
    </contour>
    <contour>
      <point x="186" y="62"/>
      <point x="148" y="94"/>
      <point x="148" y="196" type="curve" smooth="yes"/>
      <point x="148" y="297"/>
      <point x="185" y="465"/>
      <point x="322" y="465" type="curve" smooth="yes"/>
      <point x="392" y="465"/>
      <point x="430" y="433"/>
      <point x="430" y="331" type="curve" smooth="yes"/>
      <point x="430" y="230"/>
      <point x="394" y="62"/>
      <point x="257" y="62" type="curve" smooth="yes"/>
    </contour>
    <contour>
      <point x="73" y="-108" type="line"/>
      <point x="146" y="-130" type="line"/>
      <point x="201" y="-7" type="line"/>
      <point x="221" y="53" type="line"/>
      <point x="406" y="446" type="line"/>
      <point x="447" y="508" type="line"/>
      <point x="506" y="634" type="line"/>
      <point x="433" y="656" type="line"/>
      <point x="378" y="534" type="line"/>
      <point x="357" y="472" type="line"/>
      <point x="172" y="77" type="line"/>
      <point x="136" y="27" type="line"/>
    </contour>
    <contour>
      <point x="324" y="527" type="move" name="top"/>
    </contour>
    <contour>
      <point x="261" y="0" type="move" name="bottom"/>
    </contour>
  </outline>
</glyph>
<glyph name="Lslash" format="1">
  <advance width="502"/>
  <unicode hex="0141"/>
  <outline>
    <contour>
      <point x="427" y="438" type="line"/>
      <point x="397" y="498" type="line"/>
      <point x="22" y="282" type="line"/>
      <point x="52" y="222" type="line"/>
      <point x="108" y="254" type="line"/>
    </contour>
    <component base="L" xOffset="10"/>
  </outline>
</glyph>
<glyph name="Tbar" format="1">
  <advance width="511"/>
  <unicode hex="0166"/>
  <outline>
    <contour>
      <point x="319" y="389" type="line"/>
      <point x="104" y="389" type="line"/>
      <point x="95" y="319" type="line"/>
      <point x="216" y="319" type="line"/>
      <point x="431" y="319" type="line"/>
      <point x="440" y="389" type="line"/>
    </contour>
    <component base="T"/>
  </outline>
</glyph>
<glyph name="uni018B" format="1">
  <advance width="575"/>
  <unicode hex="018B"/>
  <outline>
    <contour>
      <point x="157" y="611" type="line"/>
      <point x="446" y="611" type="line"/>
      <point x="536" y="689" type="line"/>
      <point x="167" y="689" type="line"/>
    </contour>
    <component base="uni0500" xOffset="6"/>
    <contour>
      <point x="348" y="689" type="move" name="top"/>
    </contour>
    <contour>
      <point x="251" y="0" type="move" name="bottom"/>
    </contour>
  </outline>
</glyph>
<glyph name="uni018C" format="1">
  <advance width="587"/>
  <unicode hex="018C"/>
  <outline>
    <contour>
      <point x="459" y="669" type="line"/>
      <point x="551" y="739" type="line"/>
      <point x="251" y="739" type="line"/>
      <point x="241" y="669" type="line"/>
    </contour>
    <contour>
      <point x="431" y="473" type="line"/>
      <point x="402" y="510"/>
      <point x="358" y="539"/>
      <point x="296" y="539" type="curve" smooth="yes"/>
      <point x="116" y="539"/>
      <point x="51" y="333"/>
      <point x="51" y="197" type="curve" smooth="yes"/>
      <point x="51" y="70"/>
      <point x="109" y="-12"/>
      <point x="218" y="-12" type="curve" smooth="yes"/>
      <point x="286" y="-12"/>
      <point x="340" y="26"/>
      <point x="377" y="87" type="curve"/>
      <point x="376" y="0" type="line"/>
      <point x="456" y="0" type="line"/>
      <point x="560" y="739" type="line"/>
      <point x="469" y="739" type="line"/>
    </contour>
    <contour>
      <point x="362" y="466"/>
      <point x="395" y="443"/>
      <point x="421" y="402" type="curve"/>
      <point x="390" y="183" type="line"/>
      <point x="344" y="109"/>
      <point x="301" y="61"/>
      <point x="236" y="61" type="curve" smooth="yes"/>
      <point x="181" y="61"/>
      <point x="148" y="101"/>
      <point x="148" y="190" type="curve" smooth="yes"/>
      <point x="148" y="295"/>
      <point x="185" y="466"/>
      <point x="313" y="466" type="curve" smooth="yes"/>
    </contour>
    <contour>
      <point x="360" y="739" type="move" name="top"/>
    </contour>
    <contour>
      <point x="256" y="0" type="move" name="bottom"/>
    </contour>
  </outline>
</glyph>
<glyph name="uni019B" format="1">
  <advance width="489"/>
  <unicode hex="019B"/>
  <outline>
    <contour>
      <point x="272" y="620" type="line"/>
      <point x="311" y="655" type="line"/>
      <point x="390" y="729" type="line"/>
      <point x="342" y="776" type="line"/>
      <point x="250" y="690" type="line"/>
      <point x="213" y="657" type="line"/>
      <point x="117" y="569" type="line"/>
      <point x="175" y="537" type="line"/>
    </contour>
    <contour>
      <point x="131" y="688" type="line"/>
      <point x="235" y="664"/>
      <point x="261" y="622"/>
      <point x="269" y="499" type="curve"/>
      <point x="231" y="506" type="line"/>
      <point x="-16" y="10" type="line"/>
      <point x="70" y="-12" type="line"/>
      <point x="275" y="421" type="line"/>
      <point x="288" y="174"/>
      <point x="322" y="83"/>
      <point x="379" y="-11" type="curve"/>
      <point x="465" y="20" type="line"/>
      <point x="406" y="106"/>
      <point x="378" y="197"/>
      <point x="358" y="434" type="curve" smooth="yes"/>
      <point x="339" y="659"/>
      <point x="292" y="722"/>
      <point x="149" y="752" type="curve"/>
    </contour>
    <contour>
      <point x="312" y="739" type="move" name="top"/>
    </contour>
    <contour>
      <point x="208" y="0" type="move" name="bottom"/>
    </contour>
  </outline>
</glyph>
<glyph name="uni01AC" format="1">
  <advance width="549"/>
  <unicode hex="01AC"/>
  <outline>
    <contour>
      <point x="303" y="0" type="line"/>
      <point x="388" y="608" type="line"/>
      <point x="578" y="608" type="line"/>
      <point x="600" y="689" type="line"/>
      <point x="241" y="689" type="line"/>
      <point x="229" y="608" type="line"/>
      <point x="294" y="608" type="line"/>
      <point x="209" y="0" type="line"/>
    </contour>
    <contour>
      <point x="149" y="492" type="line"/>
      <point x="143" y="510"/>
      <point x="139" y="526"/>
      <point x="139" y="543" type="curve" smooth="yes"/>
      <point x="139" y="583"/>
      <point x="160" y="608"/>
      <point x="203" y="608" type="curve" smooth="yes"/>
      <point x="231" y="608" type="line"/>
      <point x="242" y="689" type="line"/>
      <point x="210" y="689" type="line" smooth="yes"/>
      <point x="110" y="689"/>
      <point x="52" y="632"/>
      <point x="52" y="550" type="curve" smooth="yes"/>
      <point x="52" y="515"/>
      <point x="64" y="486"/>
      <point x="78" y="461" type="curve"/>
    </contour>
    <contour>
      <point x="334" y="689" type="move" name="top"/>
    </contour>
    <contour>
      <point x="256" y="0" type="move" name="bottom"/>
    </contour>
  </outline>
</glyph>
<glyph name="uni01B5" format="1">
  <advance width="516"/>
  <unicode hex="01B5"/>
  <outline>
    <contour>
      <point x="424" y="0" type="line"/>
      <point x="446" y="81" type="line"/>
      <point x="109" y="80" type="line"/>
      <point x="522" y="612" type="line"/>
      <point x="532" y="689" type="line"/>
      <point x="125" y="689" type="line"/>
      <point x="114" y="609" type="line"/>
      <point x="418" y="609" type="line"/>
      <point x="2" y="76" type="line"/>
      <point x="-8" y="0" type="line"/>
    </contour>
    <contour>
      <point x="426" y="310" type="line"/>
      <point x="439" y="384" type="line"/>
      <point x="102" y="384" type="line"/>
      <point x="89" y="310" type="line"/>
    </contour>
    <contour>
      <point x="318" y="689" type="move" name="top"/>
    </contour>
    <contour>
      <point x="221" y="0" type="move" name="bottom"/>
    </contour>
  </outline>
</glyph>
<glyph name="uni01B6" format="1">
  <advance width="431"/>
  <unicode hex="01B6"/>
  <outline>
    <contour>
      <point x="355" y="0" type="line"/>
      <point x="376" y="77" type="line"/>
      <point x="104" y="77" type="line"/>
      <point x="427" y="457" type="line"/>
      <point x="436" y="527" type="line"/>
      <point x="84" y="527" type="line"/>
      <point x="73" y="449" type="line"/>
      <point x="318" y="449" type="line"/>
      <point x="-4" y="69" type="line"/>
      <point x="-13" y="0" type="line"/>
    </contour>
    <contour>
      <point x="361" y="228" type="line"/>
      <point x="372" y="299" type="line"/>
      <point x="63" y="299" type="line"/>
      <point x="52" y="228" type="line"/>
    </contour>
    <contour>
      <point x="253" y="527" type="move" name="top"/>
    </contour>
    <contour>
      <point x="178" y="0" type="move" name="bottom"/>
    </contour>
  </outline>
</glyph>
<glyph name="uni01BB" format="1">
  <advance width="489"/>
  <unicode hex="01BB"/>
  <outline>
    <contour>
      <point x="455" y="252" type="line"/>
      <point x="466" y="326" type="line"/>
      <point x="101" y="326" type="line"/>
      <point x="90" y="252" type="line"/>
    </contour>
    <component base="two"/>
  </outline>
</glyph>
<glyph name="uni01BD" format="1">
  <advance width="448"/>
  <unicode hex="01BD"/>
  <outline>
    <contour>
      <point x="103" y="527" type="line"/>
      <point x="64" y="250" type="line"/>
      <point x="130" y="249" type="line"/>
      <point x="164" y="264"/>
      <point x="190" y="271"/>
      <point x="225" y="271" type="curve" smooth="yes"/>
      <point x="268" y="271"/>
      <point x="300" y="248"/>
      <point x="300" y="197" type="curve" smooth="yes"/>
      <point x="300" y="114"/>
      <point x="240" y="67"/>
      <point x="171" y="67" type="curve" smooth="yes"/>
      <point x="117" y="67"/>
      <point x="91" y="81"/>
      <point x="56" y="112" type="curve"/>
      <point x="2" y="61" type="line"/>
      <point x="41" y="18"/>
      <point x="88" y="-12"/>
      <point x="169" y="-12" type="curve" smooth="yes"/>
      <point x="301" y="-12"/>
      <point x="397" y="74"/>
      <point x="397" y="199" type="curve" smooth="yes"/>
      <point x="396" y="289"/>
      <point x="338" y="346"/>
      <point x="253" y="346" type="curve" smooth="yes"/>
      <point x="209" y="346"/>
      <point x="185" y="337"/>
      <point x="162" y="327" type="curve"/>
      <point x="182" y="451" type="line"/>
      <point x="388" y="451" type="line"/>
      <point x="415" y="527" type="line"/>
    </contour>
    <contour>
      <point x="262" y="527" type="move" name="top"/>
    </contour>
    <contour>
      <point x="187" y="0" type="move" name="bottom"/>
    </contour>
  </outline>
</glyph>
<glyph name="uni01E5" format="1">
  <advance width="524"/>
  <unicode hex="01E5"/>
  <outline>
    <contour>
      <point x="334" y="-216"/>
      <point x="426" y="-158"/>
      <point x="451" y="12" type="curve" smooth="yes"/>
      <point x="524" y="494" type="line"/>
      <point x="454" y="528"/>
      <point x="399" y="539"/>
      <point x="336" y="539" type="curve" smooth="yes"/>
      <point x="131" y="539"/>
      <point x="52" y="355"/>
      <point x="52" y="208" type="curve" smooth="yes"/>
      <point x="52" y="88"/>
      <point x="113" y="10"/>
      <point x="223" y="10" type="curve" smooth="yes"/>
      <point x="279" y="10"/>
      <point x="334" y="43"/>
      <point x="373" y="90" type="curve"/>
      <point x="362" y="13" type="line" smooth="yes"/>
      <point x="344" y="-116"/>
      <point x="295" y="-139"/>
      <point x="214" y="-139" type="curve" smooth="yes"/>
      <point x="150" y="-139"/>
      <point x="95" y="-116"/>
      <point x="63" y="-97" type="curve"/>
      <point x="28" y="-165" type="line"/>
      <point x="78" y="-196"/>
      <point x="147" y="-216"/>
      <point x="210" y="-216" type="curve" smooth="yes"/>
    </contour>
    <contour>
      <point x="508" y="-86" type="line"/>
      <point x="516" y="-23" type="line"/>
      <point x="213" y="-23" type="line"/>
      <point x="205" y="-86" type="line"/>
    </contour>
    <contour>
      <point x="186" y="83"/>
      <point x="150" y="120"/>
      <point x="150" y="207" type="curve" smooth="yes"/>
      <point x="150" y="325"/>
      <point x="204" y="466"/>
      <point x="338" y="466" type="curve" smooth="yes"/>
      <point x="375" y="466"/>
      <point x="397" y="462"/>
      <point x="427" y="449" type="curve"/>
      <point x="386" y="182" type="line"/>
      <point x="345" y="127"/>
      <point x="298" y="83"/>
      <point x="240" y="83" type="curve" smooth="yes"/>
    </contour>
    <contour>
      <point x="301" y="527" type="move" name="top"/>
    </contour>
  </outline>
</glyph>
<glyph name="uni0221" format="1">
  <advance width="729"/>
  <unicode hex="0221"/>
  <outline>
    <contour>
      <point x="401" y="201" type="line"/>
      <point x="351" y="117"/>
      <point x="306" y="61"/>
      <point x="236" y="61" type="curve" smooth="yes"/>
      <point x="181" y="61"/>
      <point x="148" y="101"/>
      <point x="148" y="190" type="curve" smooth="yes"/>
      <point x="148" y="295"/>
      <point x="185" y="466"/>
      <point x="313" y="466" type="curve" smooth="yes"/>
      <point x="362" y="466"/>
      <point x="395" y="443"/>
      <point x="421" y="402" type="curve"/>
      <point x="385" y="147" type="line" smooth="yes"/>
      <point x="372" y="56"/>
      <point x="416" y="-12"/>
      <point x="539" y="-12" type="curve"/>
      <point x="552" y="66" type="line"/>
      <point x="486" y="66"/>
      <point x="466" y="72"/>
      <point x="474" y="130" type="curve" smooth="yes"/>
      <point x="560" y="738" type="line"/>
      <point x="470" y="748" type="line"/>
      <point x="431" y="473" type="line"/>
      <point x="402" y="510"/>
      <point x="358" y="539"/>
      <point x="296" y="539" type="curve" smooth="yes"/>
      <point x="116" y="539"/>
      <point x="51" y="333"/>
      <point x="51" y="197" type="curve" smooth="yes"/>
      <point x="51" y="70"/>
      <point x="109" y="-12"/>
      <point x="218" y="-12" type="curve" smooth="yes"/>
      <point x="292" y="-12"/>
      <point x="349" y="32"/>
      <point x="396" y="112" type="curve"/>
    </contour>
    <contour>
      <point x="484" y="10" type="line"/>
      <point x="506" y="44" type="line"/>
      <point x="561" y="131"/>
      <point x="584" y="157"/>
      <point x="620" y="157" type="curve" smooth="yes"/>
      <point x="640" y="157"/>
      <point x="650" y="146"/>
      <point x="650" y="128" type="curve" smooth="yes"/>
      <point x="650" y="89"/>
      <point x="609" y="66"/>
      <point x="552" y="66" type="curve"/>
      <point x="539" y="-12" type="line"/>
      <point x="643" y="-12"/>
      <point x="729" y="39"/>
      <point x="729" y="131" type="curve" smooth="yes"/>
      <point x="729" y="188"/>
      <point x="686" y="224"/>
      <point x="628" y="224" type="curve" smooth="yes"/>
      <point x="556" y="224"/>
      <point x="510" y="174"/>
      <point x="474" y="109" type="curve"/>
      <point x="424" y="26" type="line"/>
      <point x="378" y="-49" type="line"/>
      <point x="434" y="-75" type="line"/>
    </contour>
    <contour>
      <point x="429" y="739" type="move" name="top"/>
    </contour>
  </outline>
</glyph>
<glyph name="uni0224" format="1">
  <advance width="516"/>
  <unicode hex="0224"/>
  <outline>
    <contour>
      <point x="429" y="0" type="line"/>
      <point x="441" y="81" type="line"/>
      <point x="111" y="80" type="line"/>
      <point x="522" y="612" type="line"/>
      <point x="532" y="689" type="line"/>
      <point x="125" y="689" type="line"/>
      <point x="114" y="609" type="line"/>
      <point x="416" y="609" type="line"/>
      <point x="2" y="76" type="line"/>
      <point x="-8" y="0" type="line"/>
    </contour>
    <contour>
      <point x="343" y="-213"/>
      <point x="404" y="-165"/>
      <point x="420" y="-60" type="curve" smooth="yes"/>
      <point x="429" y="0" type="line"/>
      <point x="337" y="0" type="line"/>
      <point x="328" y="-60" type="line" smooth="yes"/>
      <point x="320" y="-113"/>
      <point x="294" y="-138"/>
      <point x="253" y="-138" type="curve" smooth="yes"/>
      <point x="222" y="-138"/>
      <point x="206" y="-130"/>
      <point x="185" y="-116" type="curve"/>
      <point x="144" y="-173" type="line"/>
      <point x="167" y="-192"/>
      <point x="201" y="-213"/>
      <point x="255" y="-213" type="curve" smooth="yes"/>
    </contour>
    <contour>
      <point x="318" y="689" type="move" name="top"/>
    </contour>
  </outline>
</glyph>
<glyph name="uni0237" format="1">
  <advance width="279"/>
  <unicode hex="0237"/>
  <outline>
    <contour>
      <point x="72" y="-163"/>
      <point x="131" y="-120"/>
      <point x="152" y="29" type="curve" smooth="yes"/>
      <point x="222" y="527" type="line"/>
      <point x="131" y="527" type="line"/>
      <point x="61" y="29" type="line" smooth="yes"/>
      <point x="45" y="-84"/>
      <point x="1" y="-112"/>
      <point x="-71" y="-145" type="curve"/>
      <point x="-45" y="-213" type="line"/>
    </contour>
    <contour>
      <point x="177" y="527" type="move" name="top"/>
    </contour>
    <contour>
      <point x="67" y="-202" type="move" name="bottom"/>
    </contour>
  </outline>
</glyph>
<glyph name="uni0238" format="1">
  <advance width="850"/>
  <unicode hex="0238"/>
  <outline>
    <contour>
      <point x="266" y="-12"/>
      <point x="328" y="24"/>
      <point x="378" y="106" type="curve"/>
      <point x="382" y="173" type="line"/>
      <point x="328" y="96"/>
      <point x="285" y="61"/>
      <point x="230" y="61" type="curve" smooth="yes"/>
      <point x="179" y="61"/>
      <point x="148" y="100"/>
      <point x="148" y="197" type="curve" smooth="yes"/>
      <point x="148" y="307"/>
      <point x="193" y="466"/>
      <point x="300" y="466" type="curve" smooth="yes"/>
      <point x="346" y="466"/>
      <point x="381" y="436"/>
      <point x="407" y="377" type="curve"/>
      <point x="416" y="446" type="line"/>
      <point x="392" y="503"/>
      <point x="346" y="539"/>
      <point x="285" y="539" type="curve" smooth="yes"/>
      <point x="140" y="539"/>
      <point x="51" y="367"/>
      <point x="51" y="196" type="curve" smooth="yes"/>
      <point x="51" y="69"/>
      <point x="111" y="-12"/>
      <point x="208" y="-12" type="curve" smooth="yes"/>
    </contour>
    <contour>
      <point x="425" y="0" type="line"/>
      <point x="447" y="80" type="line"/>
      <point x="541" y="750" type="line"/>
      <point x="448" y="739" type="line"/>
      <point x="358" y="89" type="line"/>
      <point x="356" y="0" type="line"/>
    </contour>
    <contour>
      <point x="715" y="-12"/>
      <point x="799" y="164"/>
      <point x="799" y="334" type="curve" smooth="yes"/>
      <point x="799" y="465"/>
      <point x="741" y="539"/>
      <point x="647" y="539" type="curve" smooth="yes"/>
      <point x="580" y="539"/>
      <point x="532" y="506"/>
      <point x="488" y="444" type="curve"/>
      <point x="482" y="374" type="line"/>
      <point x="513" y="415"/>
      <point x="556" y="466"/>
      <point x="621" y="466" type="curve" smooth="yes"/>
      <point x="670" y="466"/>
      <point x="703" y="434"/>
      <point x="703" y="334" type="curve" smooth="yes"/>
      <point x="703" y="224"/>
      <point x="657" y="61"/>
      <point x="552" y="61" type="curve" smooth="yes"/>
      <point x="495" y="61"/>
      <point x="476" y="95"/>
      <point x="443" y="164" type="curve"/>
      <point x="429" y="101" type="line"/>
      <point x="460" y="33"/>
      <point x="498" y="-12"/>
      <point x="564" y="-12" type="curve" smooth="yes"/>
    </contour>
    <contour>
      <point x="489" y="739" type="move" name="top"/>
    </contour>
    <contour>
      <point x="385" y="0" type="move" name="bottom"/>
    </contour>
  </outline>
</glyph>
<glyph name="uni0258" format="1">
  <advance width="518"/>
  <unicode hex="0258"/>
  <outline>
    <contour>
      <point x="151" y="539"/>
      <point x="62" y="472"/>
      <point x="62" y="369" type="curve" smooth="yes"/>
      <point x="62" y="251"/>
      <point x="181" y="203"/>
      <point x="366" y="195" type="curve"/>
      <point x="373" y="265" type="line"/>
      <point x="236" y="271"/>
      <point x="157" y="298"/>
      <point x="157" y="372" type="curve" smooth="yes"/>
      <point x="157" y="429"/>
      <point x="195" y="466"/>
      <point x="255" y="466" type="curve" smooth="yes"/>
      <point x="337" y="466"/>
      <point x="369" y="403"/>
      <point x="369" y="317" type="curve" smooth="yes"/>
      <point x="369" y="185"/>
      <point x="318" y="65"/>
      <point x="200" y="65" type="curve" smooth="yes"/>
      <point x="142" y="65"/>
      <point x="107" y="79"/>
      <point x="68" y="109" type="curve"/>
      <point x="17" y="54" type="line"/>
      <point x="61" y="13"/>
      <point x="116" y="-12"/>
      <point x="198" y="-12" type="curve" smooth="yes"/>
      <point x="365" y="-12"/>
      <point x="464" y="130"/>
      <point x="463" y="308" type="curve" smooth="yes"/>
      <point x="464" y="439"/>
      <point x="404" y="539"/>
      <point x="255" y="539" type="curve" smooth="yes"/>
    </contour>
    <contour>
      <point x="256" y="527" type="move" name="top"/>
    </contour>
    <contour>
      <point x="200" y="0" type="move" name="bottom"/>
    </contour>
  </outline>
</glyph>
<glyph name="uni025F" format="1">
  <advance width="318"/>
  <unicode hex="025F"/>
  <outline>
    <contour>
      <point x="111" y="217" type="line"/>
      <point x="296" y="217" type="line"/>
      <point x="306" y="287" type="line"/>
      <point x="25" y="287" type="line"/>
      <point x="15" y="217" type="line"/>
    </contour>
    <component base="uni0237" xOffset="23"/>
  </outline>
</glyph>
<glyph name="uni0260" format="1">
  <advance width="584"/>
  <unicode hex="0260"/>
  <outline>
    <contour>
      <point x="436" y="527" type="line"/>
      <point x="383" y="172" type="line"/>
      <point x="342" y="117"/>
      <point x="297" y="73"/>
      <point x="239" y="73" type="curve" smooth="yes"/>
      <point x="185" y="73"/>
      <point x="149" y="110"/>
      <point x="149" y="197" type="curve" smooth="yes"/>
      <point x="149" y="325"/>
      <point x="203" y="466"/>
      <point x="337" y="466" type="curve" smooth="yes"/>
      <point x="380" y="466"/>
      <point x="403" y="460"/>
      <point x="443" y="441" type="curve"/>
      <point x="507" y="481" type="line"/>
      <point x="462" y="514"/>
      <point x="403" y="539"/>
      <point x="335" y="539" type="curve" smooth="yes"/>
      <point x="130" y="539"/>
      <point x="51" y="355"/>
      <point x="51" y="198" type="curve" smooth="yes"/>
      <point x="51" y="78"/>
      <point x="112" y="0"/>
      <point x="222" y="0" type="curve" smooth="yes"/>
      <point x="278" y="0"/>
      <point x="331" y="33"/>
      <point x="370" y="80" type="curve"/>
      <point x="361" y="13" type="line" smooth="yes"/>
      <point x="343" y="-116"/>
      <point x="274" y="-137"/>
      <point x="204" y="-137" type="curve" smooth="yes"/>
      <point x="149" y="-137"/>
      <point x="94" y="-114"/>
      <point x="62" y="-95" type="curve"/>
      <point x="27" y="-165" type="line"/>
      <point x="77" y="-196"/>
      <point x="146" y="-216"/>
      <point x="209" y="-216" type="curve" smooth="yes"/>
      <point x="333" y="-216"/>
      <point x="425" y="-158"/>
      <point x="450" y="12" type="curve" smooth="yes"/>
      <point x="527" y="527" type="line"/>
    </contour>
    <component base="hookaboveHELPER2" xOffset="368"/>
    <contour>
      <point x="379" y="739" type="move" name="top"/>
    </contour>
    <contour>
      <point x="211" y="-202" type="move" name="bottom"/>
    </contour>
  </outline>
</glyph>
<glyph name="uni0264" format="1">
  <advance width="523"/>
  <unicode hex="0264"/>
  <outline>
    <contour>
      <point x="303" y="-12"/>
      <point x="345" y="35"/>
      <point x="345" y="98" type="curve" smooth="yes"/>
      <point x="345" y="141"/>
      <point x="330" y="175"/>
      <point x="305" y="223" type="curve"/>
      <point x="264" y="285" type="line"/>
      <point x="216" y="436" type="line" smooth="yes"/>
      <point x="198" y="503"/>
      <point x="172" y="539"/>
      <point x="113" y="539" type="curve" smooth="yes"/>
      <point x="82" y="539"/>
      <point x="58" y="529"/>
      <point x="37" y="513" type="curve"/>
      <point x="63" y="458" type="line"/>
      <point x="72" y="464"/>
      <point x="84" y="470"/>
      <point x="99" y="470" type="curve" smooth="yes"/>
      <point x="117" y="470"/>
      <point x="124" y="461"/>
      <point x="133" y="437" type="curve" smooth="yes"/>
      <point x="209" y="227" type="line"/>
      <point x="250" y="172" type="line"/>
      <point x="261" y="145"/>
      <point x="268" y="124"/>
      <point x="268" y="100" type="curve" smooth="yes"/>
      <point x="268" y="74"/>
      <point x="254" y="57"/>
      <point x="232" y="57" type="curve" smooth="yes"/>
      <point x="214" y="57"/>
      <point x="207" y="67"/>
      <point x="207" y="83" type="curve" smooth="yes"/>
      <point x="207" y="108"/>
      <point x="222" y="136"/>
      <point x="250" y="172" type="curve"/>
      <point x="305" y="223" type="line"/>
      <point x="438" y="424" type="line" smooth="yes"/>
      <point x="459" y="456"/>
      <point x="470" y="470"/>
      <point x="492" y="470" type="curve" smooth="yes"/>
      <point x="504" y="470"/>
      <point x="511" y="467"/>
      <point x="521" y="460" type="curve"/>
      <point x="556" y="509" type="line"/>
      <point x="537" y="525"/>
      <point x="517" y="539"/>
      <point x="482" y="539" type="curve" smooth="yes"/>
      <point x="426" y="539"/>
      <point x="396" y="508"/>
      <point x="356" y="440" type="curve" smooth="yes"/>
      <point x="264" y="285" type="line"/>
      <point x="209" y="227" type="line"/>
      <point x="165" y="175"/>
      <point x="130" y="126"/>
      <point x="130" y="75" type="curve" smooth="yes"/>
      <point x="130" y="24"/>
      <point x="166" y="-12"/>
      <point x="227" y="-12" type="curve" smooth="yes"/>
    </contour>
    <contour>
      <point x="294" y="527" type="move" name="top"/>
    </contour>
    <contour>
      <point x="233" y="0" type="move" name="bottom"/>
    </contour>
  </outline>
</glyph>
<glyph name="uni0267" format="1">
  <advance width="581"/>
  <unicode hex="0267"/>
  <outline>
    <component base="hookHELPER" xOffset="196"/>
    <component base="uni0266"/>
    <contour>
      <point x="225" y="-202" type="move" name="bottom"/>
    </contour>
  </outline>
</glyph>
<glyph name="uni0269" format="1">
  <advance width="288"/>
  <unicode hex="0269"/>
  <outline>
    <contour>
      <point x="57" y="31"/>
      <point x="94" y="-12"/>
      <point x="164" y="-12" type="curve" smooth="yes"/>
      <point x="187" y="-12"/>
      <point x="210" y="-7"/>
      <point x="237" y="5" type="curve"/>
      <point x="218" y="71" type="line"/>
      <point x="206" y="67"/>
      <point x="194" y="64"/>
      <point x="182" y="64" type="curve" smooth="yes"/>
      <point x="160" y="64"/>
      <point x="153" y="75"/>
      <point x="157" y="103" type="curve" smooth="yes"/>
      <point x="217" y="527" type="line"/>
      <point x="126" y="527" type="line"/>
      <point x="69" y="118" type="line" smooth="yes"/>
    </contour>
    <contour>
      <point x="172" y="527" type="move" name="top"/>
    </contour>
    <contour>
      <point x="107" y="0" type="move" name="bottom"/>
    </contour>
  </outline>
</glyph>
<glyph name="uni026C" format="1">
  <advance width="365"/>
  <unicode hex="026C"/>
  <outline>
    <contour>
      <point x="235" y="256" type="line"/>
      <point x="262" y="258"/>
      <point x="296" y="263"/>
      <point x="326" y="270" type="curve"/>
      <point x="323" y="327" type="line"/>
      <point x="297" y="322"/>
      <point x="271" y="317"/>
      <point x="243" y="316" type="curve"/>
      <point x="153" y="316" type="line"/>
      <point x="115" y="316"/>
      <point x="92" y="328"/>
      <point x="92" y="357" type="curve" smooth="yes"/>
      <point x="92" y="390"/>
      <point x="114" y="407"/>
      <point x="141" y="407" type="curve" smooth="yes"/>
      <point x="151" y="407"/>
      <point x="159" y="406"/>
      <point x="167" y="404" type="curve"/>
      <point x="180" y="458" type="line"/>
      <point x="169" y="461"/>
      <point x="157" y="463"/>
      <point x="138" y="463" type="curve" smooth="yes"/>
      <point x="71" y="463"/>
      <point x="19" y="420"/>
      <point x="19" y="356" type="curve" smooth="yes"/>
      <point x="19" y="297"/>
      <point x="61" y="258"/>
      <point x="144" y="254" type="curve"/>
    </contour>
    <component base="l" xOffset="57"/>
  </outline>
</glyph>
<glyph name="uni0271" format="1">
  <advance width="848"/>
  <unicode hex="0271"/>
  <outline>
    <component base="m"/>
    <component base="hookHELPER" xOffset="464"/>
    <contour>
      <point x="360" y="-202" type="move" name="bottom"/>
    </contour>
  </outline>
</glyph>
<glyph name="uni027F" format="1">
  <advance width="370"/>
  <unicode hex="027F"/>
  <outline>
    <contour>
      <point x="199" y="328" type="line"/>
      <point x="153" y="0" type="line"/>
      <point x="244" y="0" type="line"/>
      <point x="290" y="328" type="line"/>
    </contour>
    <component base="hookHELPERright" xOffset="284" yOffset="328" xScale="-1" yScale="-1"/>
    <contour>
      <point x="169" y="527" type="move" name="top"/>
    </contour>
    <contour>
      <point x="199" y="0" type="move" name="bottom"/>
    </contour>
  </outline>
</glyph>
<glyph name="uni0283" format="1">
  <advance width="279"/>
  <unicode hex="0283"/>
  <outline>
    <contour>
      <point x="131" y="527" type="line"/>
      <point x="57" y="0" type="line"/>
      <point x="148" y="0" type="line"/>
      <point x="222" y="527" type="line"/>
    </contour>
    <component base="hookHELPER" xOffset="-110"/>
    <component base="hookaboveHELPER2" xOffset="63"/>
    <contour>
      <point x="308" y="739" type="move" name="top"/>
    </contour>
    <contour>
      <point x="-22" y="-202" type="move" name="bottom"/>
    </contour>
  </outline>
</glyph>
<glyph name="uni028F" format="1">
  <advance width="472"/>
  <unicode hex="028F"/>
  <outline>
    <contour>
      <point x="400" y="527" type="line"/>
      <point x="235" y="266" type="line"/>
      <point x="142" y="527" type="line"/>
      <point x="47" y="527" type="line"/>
      <point x="182" y="197" type="line"/>
      <point x="153" y="0" type="line"/>
      <point x="245" y="0" type="line"/>
      <point x="273" y="198" type="line"/>
      <point x="500" y="527" type="line"/>
    </contour>
    <contour>
      <point x="273" y="527" type="move" name="top"/>
    </contour>
    <contour>
      <point x="199" y="0" type="move" name="bottom"/>
    </contour>
  </outline>
</glyph>
<glyph name="uni029E" format="1">
  <advance width="506"/>
  <unicode hex="029E"/>
  <outline>
    <contour>
      <point x="101" y="0" type="line"/>
      <point x="317" y="239" type="line"/>
      <point x="143" y="527" type="line"/>
      <point x="42" y="527" type="line"/>
      <point x="219" y="246" type="line"/>
      <point x="-12" y="0" type="line"/>
    </contour>
    <contour>
      <point x="351" y="-205" type="line"/>
      <point x="454" y="527" type="line"/>
      <point x="363" y="527" type="line"/>
      <point x="260" y="-216" type="line"/>
    </contour>
    <contour>
      <point x="253" y="527" type="move" name="top"/>
    </contour>
    <contour>
      <point x="137" y="-202" type="move" name="bottom"/>
    </contour>
  </outline>
</glyph>
<glyph name="uni02A3" format="1">
  <advance width="899"/>
  <unicode hex="02A3"/>
  <outline>
    <contour>
      <point x="512" y="527" type="line"/>
      <point x="501" y="449" type="line"/>
      <point x="781" y="449" type="line"/>
      <point x="464" y="69" type="line"/>
      <point x="455" y="0" type="line"/>
      <point x="823" y="0" type="line"/>
      <point x="844" y="77" type="line"/>
      <point x="568" y="77" type="line"/>
      <point x="895" y="457" type="line"/>
      <point x="904" y="527" type="line"/>
    </contour>
    <component base="d"/>
    <contour>
      <point x="519" y="739" type="move" name="top"/>
    </contour>
    <contour>
      <point x="415" y="0" type="move" name="bottom"/>
    </contour>
  </outline>
</glyph>
<glyph name="uni02A5" format="1">
  <advance width="910"/>
  <unicode hex="02A5"/>
  <outline>
    <contour>
      <point x="512" y="527" type="line"/>
      <point x="501" y="449" type="line"/>
      <point x="787" y="449" type="line"/>
      <point x="464" y="69" type="line"/>
      <point x="455" y="0" type="line"/>
      <point x="705" y="0" type="line"/>
      <point x="727" y="77" type="line"/>
      <point x="572" y="77" type="line"/>
      <point x="895" y="457" type="line"/>
      <point x="904" y="527" type="line"/>
    </contour>
    <contour>
      <point x="703" y="-125" type="line"/>
      <point x="710" y="-76"/>
      <point x="716" y="-34"/>
      <point x="730" y="13" type="curve"/>
      <point x="741" y="43" type="line"/>
      <point x="763" y="131"/>
      <point x="789" y="153"/>
      <point x="821" y="153" type="curve" smooth="yes"/>
      <point x="841" y="153"/>
      <point x="850" y="144"/>
      <point x="850" y="129" type="curve" smooth="yes"/>
      <point x="850" y="85"/>
      <point x="803" y="77"/>
      <point x="719" y="77" type="curve"/>
      <point x="721" y="0" type="line"/>
      <point x="830" y="0"/>
      <point x="925" y="29"/>
      <point x="925" y="129" type="curve" smooth="yes"/>
      <point x="925" y="183"/>
      <point x="886" y="214"/>
      <point x="829" y="214" type="curve" smooth="yes"/>
      <point x="763" y="214"/>
      <point x="708" y="173"/>
      <point x="678" y="69" type="curve"/>
      <point x="658" y="3" type="line"/>
      <point x="649" y="-38"/>
      <point x="642" y="-76"/>
      <point x="636" y="-119" type="curve"/>
    </contour>
    <component base="d"/>
    <contour>
      <point x="512" y="739" type="move" name="top"/>
    </contour>
  </outline>
</glyph>
<glyph name="uni02A9" format="1">
  <advance width="873"/>
  <unicode hex="02A9"/>
  <outline>
    <contour>
      <point x="225" y="750"/>
      <point x="162" y="690"/>
      <point x="150" y="602" type="curve" smooth="yes"/>
      <point x="69" y="29" type="line" smooth="yes"/>
      <point x="53" y="-84"/>
      <point x="9" y="-112"/>
      <point x="-63" y="-144" type="curve"/>
      <point x="-37" y="-213" type="line"/>
      <point x="80" y="-163"/>
      <point x="139" y="-120"/>
      <point x="160" y="29" type="curve" smooth="yes"/>
      <point x="240" y="597" type="line" smooth="yes"/>
      <point x="247" y="648"/>
      <point x="273" y="676"/>
      <point x="332" y="676" type="curve" smooth="yes"/>
      <point x="357" y="676"/>
      <point x="387" y="672"/>
      <point x="418" y="651" type="curve"/>
      <point x="453" y="712" type="line"/>
      <point x="414" y="736"/>
      <point x="380" y="750"/>
      <point x="329" y="750" type="curve" smooth="yes"/>
    </contour>
    <contour>
      <point x="46" y="527" type="line"/>
      <point x="36" y="456" type="line"/>
      <point x="417" y="456" type="line"/>
      <point x="437" y="527" type="line"/>
    </contour>
    <component base="eng" xOffset="293"/>
    <contour>
      <point x="507" y="739" type="move" name="top"/>
    </contour>
    <contour>
      <point x="363" y="-202" type="move" name="bottom"/>
    </contour>
  </outline>
</glyph>
<glyph name="uni02B1" format="1">
  <advance width="306"/>
  <unicode hex="02B1"/>
  <outline>
    <contour>
      <point x="294" y="400" type="line"/>
      <point x="321" y="590" type="line" smooth="yes"/>
      <point x="328" y="642"/>
      <point x="299" y="673"/>
      <point x="247" y="673" type="curve" smooth="yes"/>
      <point x="207" y="673"/>
      <point x="174" y="658"/>
      <point x="140" y="620" type="curve"/>
      <point x="151" y="580" type="line"/>
      <point x="174" y="597"/>
      <point x="194" y="614"/>
      <point x="223" y="614" type="curve" smooth="yes"/>
      <point x="238" y="614"/>
      <point x="248" y="610"/>
      <point x="244" y="582" type="curve" smooth="yes"/>
      <point x="218" y="400" type="line"/>
    </contour>
    <contour>
      <point x="126" y="400" type="line"/>
      <point x="165" y="675" type="line"/>
      <point x="87" y="665" type="line"/>
      <point x="50" y="400" type="line"/>
    </contour>
    <contour>
      <point x="163" y="665" type="line"/>
      <point x="166" y="683" type="line" smooth="yes"/>
      <point x="170" y="712"/>
      <point x="187" y="720"/>
      <point x="216" y="720" type="curve" smooth="yes"/>
      <point x="227" y="720"/>
      <point x="242" y="717"/>
      <point x="261" y="711" type="curve"/>
      <point x="287" y="762" type="line"/>
      <point x="266" y="771"/>
      <point x="234" y="779"/>
      <point x="206" y="779" type="curve" smooth="yes"/>
      <point x="139" y="779"/>
      <point x="99" y="745"/>
      <point x="92" y="696" type="curve" smooth="yes"/>
      <point x="87" y="665" type="line"/>
    </contour>
  </outline>
</glyph>
<glyph name="uni02B2" format="1">
  <advance width="205"/>
  <unicode hex="02B2"/>
  <outline>
    <contour>
      <point x="146" y="665" type="line"/>
      <point x="113" y="428" type="line" smooth="yes"/>
      <point x="106" y="380"/>
      <point x="83" y="365"/>
      <point x="43" y="348" type="curve"/>
      <point x="65" y="290" type="line"/>
      <point x="130" y="311"/>
      <point x="176" y="335"/>
      <point x="189" y="424" type="curve" smooth="yes"/>
      <point x="222" y="665" type="line"/>
    </contour>
    <contour>
      <point x="172" y="803"/>
      <point x="150" y="782"/>
      <point x="150" y="757" type="curve" smooth="yes"/>
      <point x="150" y="734"/>
      <point x="166" y="716"/>
      <point x="194" y="716" type="curve" smooth="yes"/>
      <point x="224" y="716"/>
      <point x="244" y="737"/>
      <point x="244" y="762" type="curve" smooth="yes"/>
      <point x="244" y="785"/>
      <point x="227" y="803"/>
      <point x="200" y="803" type="curve" smooth="yes"/>
    </contour>
  </outline>
</glyph>
<glyph name="uni02B4" format="1">
  <advance width="241"/>
  <unicode hex="02B4"/>
  <outline>
    <contour>
      <point x="126" y="393"/>
      <point x="156" y="422"/>
      <point x="173" y="472" type="curve"/>
      <point x="180" y="564" type="line"/>
      <point x="160" y="510"/>
      <point x="139" y="466"/>
      <point x="93" y="466" type="curve" smooth="yes"/>
      <point x="88" y="466"/>
      <point x="77" y="466"/>
      <point x="70" y="469" type="curve"/>
      <point x="50" y="399" type="line"/>
      <point x="58" y="396"/>
      <point x="68" y="393"/>
      <point x="85" y="393" type="curve" smooth="yes"/>
    </contour>
    <contour>
      <point x="229" y="400" type="line"/>
      <point x="267" y="666" type="line"/>
      <point x="191" y="666" type="line"/>
      <point x="171" y="530" type="line"/>
      <point x="166" y="460" type="line"/>
      <point x="171" y="400" type="line"/>
    </contour>
  </outline>
</glyph>
<glyph name="uni02B8" format="1">
  <advance width="343"/>
  <unicode hex="02B8"/>
  <outline>
    <contour>
      <point x="290" y="665" type="line"/>
      <point x="194" y="450" type="line"/>
      <point x="168" y="665" type="line"/>
      <point x="87" y="665" type="line"/>
      <point x="140" y="400" type="line"/>
      <point x="165" y="402" type="line"/>
      <point x="143" y="369"/>
      <point x="123" y="354"/>
      <point x="63" y="343" type="curve"/>
      <point x="70" y="289" type="line"/>
      <point x="153" y="300"/>
      <point x="198" y="327"/>
      <point x="233" y="397" type="curve" smooth="yes"/>
      <point x="368" y="665" type="line"/>
    </contour>
  </outline>
</glyph>
<glyph name="uni02BF" format="1">
  <advance width="177"/>
  <unicode hex="02BF"/>
  <outline>
    <contour>
      <point x="220" y="787" type="line"/>
      <point x="181" y="787"/>
      <point x="157" y="763"/>
      <point x="157" y="723" type="curve" smooth="yes"/>
      <point x="157" y="692"/>
      <point x="173" y="675"/>
      <point x="205" y="675" type="curve"/>
      <point x="198" y="625" type="line"/>
      <point x="135" y="625"/>
      <point x="96" y="662"/>
      <point x="96" y="721" type="curve" smooth="yes"/>
      <point x="96" y="796"/>
      <point x="156" y="837"/>
      <point x="227" y="837" type="curve"/>
    </contour>
  </outline>
</glyph>
<glyph name="uni02E1" format="1">
  <advance width="188"/>
  <unicode hex="02E1"/>
  <outline>
    <contour>
      <point x="147" y="391"/>
      <point x="166" y="395"/>
      <point x="176" y="399" type="curve"/>
      <point x="164" y="457" type="line"/>
      <point x="161" y="456"/>
      <point x="154" y="454"/>
      <point x="148" y="454" type="curve" smooth="yes"/>
      <point x="139" y="454"/>
      <point x="135" y="459"/>
      <point x="136" y="469" type="curve" smooth="yes"/>
      <point x="180" y="780" type="line"/>
      <point x="102" y="772" type="line"/>
      <point x="60" y="469" type="line" smooth="yes"/>
      <point x="52" y="416"/>
      <point x="83" y="391"/>
      <point x="130" y="391" type="curve" smooth="yes"/>
    </contour>
  </outline>
</glyph>
<glyph name="uni02E2" format="1">
  <advance width="304"/>
  <unicode hex="02E2"/>
  <outline>
    <contour>
      <point x="139" y="673"/>
      <point x="90" y="637"/>
      <point x="90" y="588" type="curve" smooth="yes"/>
      <point x="90" y="547"/>
      <point x="118" y="525"/>
      <point x="170" y="512" type="curve" smooth="yes"/>
      <point x="218" y="500"/>
      <point x="226" y="495"/>
      <point x="226" y="482" type="curve" smooth="yes"/>
      <point x="226" y="458"/>
      <point x="202" y="448"/>
      <point x="172" y="448" type="curve" smooth="yes"/>
      <point x="142" y="448"/>
      <point x="122" y="455"/>
      <point x="94" y="473" type="curve"/>
      <point x="55" y="431" type="line"/>
      <point x="82" y="409"/>
      <point x="120" y="391"/>
      <point x="172" y="391" type="curve" smooth="yes"/>
      <point x="239" y="391"/>
      <point x="304" y="423"/>
      <point x="304" y="488" type="curve" smooth="yes"/>
      <point x="304" y="527"/>
      <point x="277" y="548"/>
      <point x="221" y="562" type="curve" smooth="yes"/>
      <point x="176" y="574"/>
      <point x="166" y="577"/>
      <point x="166" y="590" type="curve" smooth="yes"/>
      <point x="166" y="607"/>
      <point x="183" y="617"/>
      <point x="213" y="617" type="curve" smooth="yes"/>
      <point x="240" y="617"/>
      <point x="258" y="611"/>
      <point x="281" y="597" type="curve"/>
      <point x="317" y="638" type="line"/>
      <point x="287" y="661"/>
      <point x="252" y="673"/>
      <point x="213" y="673" type="curve" smooth="yes"/>
    </contour>
  </outline>
</glyph>
<glyph name="gravecomb" format="1">
  <advance width="293"/>
  <unicode hex="0300"/>
  <outline>
    <contour>
      <point x="95" y="724" type="line"/>
      <point x="294" y="638" type="line"/>
      <point x="323" y="687" type="line"/>
      <point x="140" y="801" type="line"/>
    </contour>
    <contour>
      <point x="213" y="801" type="move" name="top"/>
    </contour>
    <contour>
      <point x="174" y="527" type="move" name="_top"/>
    </contour>
  </outline>
</glyph>
<glyph name="acutecomb" format="1">
  <advance width="296"/>
  <unicode hex="0301"/>
  <outline>
    <contour>
      <point x="90" y="687" type="line"/>
      <point x="111" y="638" type="line"/>
      <point x="331" y="724" type="line"/>
      <point x="301" y="801" type="line"/>
    </contour>
    <contour>
      <point x="213" y="801" type="move" name="top"/>
    </contour>
    <contour>
      <point x="183" y="527" type="move" name="_top"/>
    </contour>
  </outline>
</glyph>
<glyph name="uni0302" format="1">
  <advance width="388"/>
  <unicode hex="0302"/>
  <outline>
    <contour>
      <point x="259" y="718" type="line"/>
      <point x="372" y="634" type="line"/>
      <point x="416" y="679" type="line"/>
      <point x="297" y="792" type="line"/>
      <point x="237" y="792" type="line"/>
      <point x="88" y="679" type="line"/>
      <point x="125" y="634" type="line"/>
    </contour>
    <contour>
      <point x="266" y="792" type="move" name="top"/>
    </contour>
    <contour>
      <point x="233" y="527" type="move" name="_top"/>
    </contour>
  </outline>
</glyph>
<glyph name="uni0304" format="1">
  <advance width="331"/>
  <unicode hex="0304"/>
  <outline>
    <contour>
      <point x="367" y="736" type="line"/>
      <point x="96" y="736" type="line"/>
      <point x="87" y="667" type="line"/>
      <point x="358" y="667" type="line"/>
    </contour>
    <contour>
      <point x="229" y="736" type="move" name="top"/>
    </contour>
    <contour>
      <point x="202" y="527" type="move" name="_top"/>
    </contour>
  </outline>
</glyph>
<glyph name="uni0306" format="1">
  <advance width="360"/>
  <unicode hex="0306"/>
  <outline>
    <contour>
      <point x="313" y="643"/>
      <point x="382" y="689"/>
      <point x="402" y="773" type="curve"/>
      <point x="342" y="791" type="line"/>
      <point x="322" y="741"/>
      <point x="285" y="713"/>
      <point x="237" y="713" type="curve" smooth="yes"/>
      <point x="192" y="713"/>
      <point x="171" y="737"/>
      <point x="164" y="787" type="curve"/>
      <point x="102" y="779" type="line"/>
      <point x="99" y="695"/>
      <point x="154" y="643"/>
      <point x="235" y="643" type="curve" smooth="yes"/>
    </contour>
    <contour>
      <point x="254" y="791" type="move" name="top"/>
    </contour>
    <contour>
      <point x="222" y="527" type="move" name="_top"/>
    </contour>
  </outline>
</glyph>
<glyph name="uni0307" format="1">
  <advance width="188"/>
  <unicode hex="0307"/>
  <outline>
    <contour>
      <point x="192" y="655"/>
      <point x="222" y="684"/>
      <point x="222" y="723" type="curve" smooth="yes"/>
      <point x="222" y="755"/>
      <point x="199" y="780"/>
      <point x="163" y="780" type="curve"/>
      <point x="124" y="780"/>
      <point x="94" y="751"/>
      <point x="94" y="712" type="curve" smooth="yes"/>
      <point x="94" y="680"/>
      <point x="117" y="655"/>
      <point x="153" y="655" type="curve"/>
    </contour>
    <contour>
      <point x="161" y="720" type="move" name="_center"/>
    </contour>
    <contour>
      <point x="167" y="780" type="move" name="top"/>
    </contour>
    <contour>
      <point x="131" y="527" type="move" name="_top"/>
    </contour>
  </outline>
</glyph>
<glyph name="uni0308" format="1">
  <advance width="384"/>
  <unicode hex="0308"/>
  <outline>
    <contour>
      <point x="182" y="654"/>
      <point x="209" y="680"/>
      <point x="209" y="716" type="curve" smooth="yes"/>
      <point x="209" y="745"/>
      <point x="187" y="767"/>
      <point x="156" y="767" type="curve"/>
      <point x="120" y="767"/>
      <point x="93" y="741"/>
      <point x="93" y="705" type="curve" smooth="yes"/>
      <point x="93" y="676"/>
      <point x="115" y="654"/>
      <point x="146" y="654" type="curve"/>
    </contour>
    <contour>
      <point x="390" y="654"/>
      <point x="417" y="680"/>
      <point x="417" y="716" type="curve" smooth="yes"/>
      <point x="417" y="745"/>
      <point x="395" y="767"/>
      <point x="364" y="767" type="curve"/>
      <point x="328" y="767"/>
      <point x="301" y="741"/>
      <point x="301" y="705" type="curve" smooth="yes"/>
      <point x="301" y="676"/>
      <point x="323" y="654"/>
      <point x="354" y="654" type="curve"/>
    </contour>
    <contour>
      <point x="258" y="768" type="move" name="top"/>
    </contour>
    <contour>
      <point x="230" y="527" type="move" name="_top"/>
    </contour>
  </outline>
</glyph>
<glyph name="hookabovecomb" format="1">
  <advance width="263"/>
  <unicode hex="0309"/>
  <outline>
    <contour>
      <point x="201" y="611" type="line"/>
      <point x="209" y="669" type="line"/>
      <point x="265" y="678"/>
      <point x="301" y="703"/>
      <point x="301" y="759" type="curve" smooth="yes"/>
      <point x="301" y="810"/>
      <point x="266" y="846"/>
      <point x="203" y="846" type="curve" smooth="yes"/>
      <point x="164" y="846"/>
      <point x="135" y="837"/>
      <point x="109" y="823" type="curve"/>
      <point x="127" y="768" type="line"/>
      <point x="145" y="778"/>
      <point x="164" y="784"/>
      <point x="187" y="784" type="curve" smooth="yes"/>
      <point x="209" y="784"/>
      <point x="223" y="775"/>
      <point x="223" y="756" type="curve" smooth="yes"/>
      <point x="223" y="720"/>
      <point x="186" y="711"/>
      <point x="143" y="705" type="curve"/>
      <point x="133" y="611" type="line"/>
    </contour>
    <contour>
      <point x="132" y="511" type="move" name="_topright"/>
    </contour>
    <contour>
      <point x="224" y="846" type="move" name="top"/>
    </contour>
    <contour>
      <point x="155" y="527" type="move" name="_top"/>
    </contour>
  </outline>
</glyph>
<glyph name="uni030A" format="1">
  <advance width="286"/>
  <unicode hex="030A"/>
  <outline>
    <contour>
      <point x="150" y="836"/>
      <point x="95" y="784"/>
      <point x="95" y="720" type="curve" smooth="yes"/>
      <point x="95" y="666"/>
      <point x="136" y="624"/>
      <point x="198" y="624" type="curve" smooth="yes"/>
      <point x="267" y="624"/>
      <point x="322" y="676"/>
      <point x="322" y="740" type="curve" smooth="yes"/>
      <point x="322" y="794"/>
      <point x="281" y="836"/>
      <point x="219" y="836" type="curve" smooth="yes"/>
    </contour>
    <contour>
      <point x="245" y="786"/>
      <point x="262" y="770"/>
      <point x="262" y="740" type="curve" smooth="yes"/>
      <point x="262" y="708"/>
      <point x="241" y="674"/>
      <point x="200" y="674" type="curve" smooth="yes"/>
      <point x="171" y="674"/>
      <point x="156" y="692"/>
      <point x="156" y="721" type="curve" smooth="yes"/>
      <point x="156" y="755"/>
      <point x="177" y="786"/>
      <point x="217" y="786" type="curve" smooth="yes"/>
    </contour>
    <contour>
      <point x="221" y="836" type="move" name="top"/>
    </contour>
    <contour>
      <point x="180" y="527" type="move" name="_top"/>
    </contour>
  </outline>
</glyph>
<glyph name="uni030B" format="1">
  <advance width="364"/>
  <unicode hex="030B"/>
  <outline>
    <contour>
      <point x="227" y="659" type="line"/>
      <point x="282" y="634" type="line"/>
      <point x="408" y="791" type="line"/>
      <point x="335" y="832" type="line"/>
    </contour>
    <contour>
      <point x="86" y="664" type="line"/>
      <point x="142" y="639" type="line"/>
      <point x="257" y="791" type="line"/>
      <point x="185" y="832" type="line"/>
    </contour>
    <contour>
      <point x="171" y="527" type="move" name="_top"/>
    </contour>
  </outline>
</glyph>
<glyph name="uni030C" format="1">
  <advance width="388"/>
  <unicode hex="030C"/>
  <outline>
    <contour>
      <point x="251" y="701" type="line"/>
      <point x="138" y="785" type="line"/>
      <point x="97" y="740" type="line"/>
      <point x="216" y="627" type="line"/>
      <point x="276" y="627" type="line"/>
      <point x="425" y="740" type="line"/>
      <point x="391" y="785" type="line"/>
    </contour>
    <contour>
      <point x="263" y="785" type="move" name="top"/>
    </contour>
    <contour>
      <point x="236" y="527" type="move" name="_top"/>
    </contour>
  </outline>
</glyph>
<glyph name="uni0317" format="1">
  <advance width="295"/>
  <unicode hex="0317"/>
  <outline>
    <component base="acutecomb.case" xOffset="-135" yOffset="-960"/>
    <contour>
      <point x="108" y="0" type="move" name="_bottom"/>
    </contour>
    <contour>
      <point x="92" y="-205" type="move" name="bottom"/>
    </contour>
  </outline>
</glyph>
<glyph name="uni0318" format="1">
  <advance width="262"/>
  <unicode hex="0318"/>
  <outline>
    <contour>
      <point x="107" y="-180" type="line"/>
      <point x="-32" y="-180" type="line"/>
      <point x="-40" y="-237" type="line"/>
      <point x="99" y="-237" type="line"/>
      <point x="82" y="-353" type="line"/>
      <point x="145" y="-353" type="line"/>
      <point x="186" y="-63" type="line"/>
      <point x="123" y="-63" type="line"/>
    </contour>
    <contour>
      <point x="112" y="0" type="move" name="_bottom"/>
    </contour>
    <contour>
      <point x="75" y="-353" type="move" name="bottom"/>
    </contour>
  </outline>
</glyph>
<glyph name="uni0321" format="1">
  <advance width="323"/>
  <unicode hex="0321"/>
  <outline>
    <component base="hookHELPER" xOffset="-2"/>
    <contour>
      <point x="209" y="0" type="move" name="_bottom"/>
    </contour>
    <contour>
      <point x="115" y="-213" type="move" name="bottom"/>
    </contour>
  </outline>
</glyph>
<glyph name="dotbelowcomb" format="1">
  <advance width="188"/>
  <unicode hex="0323"/>
  <outline>
    <component base="uni0307" xOffset="196" yOffset="581" xScale="-1" yScale="-1"/>
    <contour>
      <point x="56" y="0" type="move" name="_bottom"/>
    </contour>
    <contour>
      <point x="36" y="-199" type="move" name="bottom"/>
    </contour>
  </outline>
</glyph>
<glyph name="uni0325" format="1">
  <advance width="287"/>
  <unicode hex="0325"/>
  <outline>
    <component base="uni030A" xOffset="-126" yOffset="-900"/>
    <contour>
      <point x="104" y="0" type="move" name="_bottom"/>
    </contour>
    <contour>
      <point x="68" y="-276" type="move" name="bottom"/>
    </contour>
  </outline>
</glyph>
<glyph name="uni0326" format="1">
  <advance width="179"/>
  <unicode hex="0326"/>
  <outline>
    <contour>
      <point x="8" y="-77"/>
      <point x="-20" y="-102"/>
      <point x="-20" y="-136" type="curve" smooth="yes"/>
      <point x="-20" y="-153"/>
      <point x="-11" y="-168"/>
      <point x="-1" y="-178" type="curve"/>
      <point x="-49" y="-296" type="line"/>
      <point x="5" y="-296" type="line"/>
      <point x="57" y="-214" type="line" smooth="yes"/>
      <point x="84" y="-171"/>
      <point x="93" y="-153"/>
      <point x="93" y="-129" type="curve" smooth="yes"/>
      <point x="93" y="-104"/>
      <point x="75" y="-77"/>
      <point x="41" y="-77" type="curve" smooth="yes"/>
    </contour>
    <contour>
      <point x="53" y="0" type="move" name="_bottom"/>
    </contour>
  </outline>
</glyph>
<glyph name="uni0327" format="1">
  <advance width="272"/>
  <unicode hex="0327"/>
  <outline>
    <contour>
      <point x="56" y="16" type="line"/>
      <point x="28" y="-99" type="line"/>
      <point x="92" y="-99"/>
      <point x="110" y="-109"/>
      <point x="110" y="-138" type="curve" smooth="yes"/>
      <point x="110" y="-166"/>
      <point x="87" y="-181"/>
      <point x="56" y="-181" type="curve" smooth="yes"/>
      <point x="26" y="-181"/>
      <point x="10" y="-174"/>
      <point x="-6" y="-165" type="curve"/>
      <point x="-37" y="-214" type="line"/>
      <point x="-17" y="-229"/>
      <point x="13" y="-241"/>
      <point x="56" y="-241" type="curve" smooth="yes"/>
      <point x="139" y="-241"/>
      <point x="185" y="-193"/>
      <point x="185" y="-137" type="curve" smooth="yes"/>
      <point x="185" y="-95"/>
      <point x="159" y="-61"/>
      <point x="103" y="-56" type="curve"/>
      <point x="115" y="16" type="line"/>
    </contour>
    <contour>
      <point x="89" y="0" type="move" name="_bottom"/>
    </contour>
    <contour>
      <point x="76" y="-241" type="move" name="bottom"/>
    </contour>
  </outline>
</glyph>
<glyph name="uni032A" format="1">
  <advance width="338"/>
  <unicode hex="032A"/>
  <outline>
    <contour>
      <point x="22" y="-240" type="line"/>
      <point x="35" y="-150" type="line"/>
      <point x="187" y="-150" type="line"/>
      <point x="174" y="-240" type="line"/>
      <point x="237" y="-240" type="line"/>
      <point x="258" y="-91" type="line"/>
      <point x="-20" y="-91" type="line"/>
      <point x="-41" y="-240" type="line"/>
    </contour>
    <contour>
      <point x="132" y="0" type="move" name="_bottom"/>
    </contour>
    <contour>
      <point x="111" y="-240" type="move" name="bottom"/>
    </contour>
  </outline>
</glyph>
<glyph name="uni032B" format="1">
  <advance width="437"/>
  <unicode hex="032B"/>
  <outline>
    <contour>
      <point x="298" y="-197"/>
      <point x="343" y="-151"/>
      <point x="361" y="-67" type="curve"/>
      <point x="316" y="-58" type="line"/>
      <point x="307" y="-98"/>
      <point x="281" y="-127"/>
      <point x="248" y="-127" type="curve" smooth="yes"/>
      <point x="218" y="-127"/>
      <point x="205" y="-104"/>
      <point x="204" y="-64" type="curve"/>
      <point x="162" y="-58" type="line"/>
      <point x="155" y="-145"/>
      <point x="191" y="-197"/>
      <point x="246" y="-197" type="curve" smooth="yes"/>
    </contour>
    <contour>
      <point x="119" y="-197"/>
      <point x="165" y="-151"/>
      <point x="183" y="-64" type="curve"/>
      <point x="139" y="-58" type="line"/>
      <point x="129" y="-98"/>
      <point x="103" y="-127"/>
      <point x="70" y="-127" type="curve" smooth="yes"/>
      <point x="40" y="-127"/>
      <point x="27" y="-104"/>
      <point x="26" y="-64" type="curve"/>
      <point x="-16" y="-61" type="line"/>
      <point x="-23" y="-145"/>
      <point x="13" y="-197"/>
      <point x="68" y="-197" type="curve" smooth="yes"/>
    </contour>
    <contour>
      <point x="190" y="0" type="move" name="_bottom"/>
    </contour>
    <contour>
      <point x="174" y="-197" type="move" name="bottom"/>
    </contour>
  </outline>
</glyph>
<glyph name="uni0331" format="1">
  <advance width="331"/>
  <unicode hex="0331"/>
  <outline>
    <component base="uni0304" xOffset="336" yOffset="563" xScale="-1" yScale="-1"/>
    <contour>
      <point x="123" y="0" type="move" name="_bottom"/>
    </contour>
    <contour>
      <point x="105" y="-173" type="move" name="bottom"/>
    </contour>
  </outline>
</glyph>
<glyph name="uni0332" format="1">
  <advance width="468"/>
  <unicode hex="0332"/>
  <outline>
    <contour>
      <point x="386" y="-104" type="line"/>
      <point x="-21" y="-104" type="line"/>
      <point x="-31" y="-173" type="line"/>
      <point x="376" y="-173" type="line"/>
    </contour>
    <contour>
      <point x="197" y="0" type="move" name="_bottom"/>
    </contour>
    <contour>
      <point x="180" y="-173" type="move" name="bottom"/>
    </contour>
  </outline>
</glyph>
<glyph name="uni033B" format="1">
  <advance width="338"/>
  <unicode hex="033B"/>
  <outline>
    <contour>
      <point x="237" y="-240" type="line"/>
      <point x="261" y="-68" type="line"/>
      <point x="-17" y="-68" type="line"/>
      <point x="-41" y="-240" type="line"/>
    </contour>
    <contour>
      <point x="36" y="-122" type="line"/>
      <point x="194" y="-122" type="line"/>
      <point x="185" y="-186" type="line"/>
      <point x="27" y="-186" type="line"/>
    </contour>
    <contour>
      <point x="132" y="0" type="move" name="_bottom"/>
    </contour>
    <contour>
      <point x="112" y="-240" type="move" name="bottom"/>
    </contour>
  </outline>
</glyph>
<glyph name="uni033C" format="1">
  <advance width="438"/>
  <unicode hex="033C"/>
  <outline>
    <contour>
      <point x="28" y="-60"/>
      <point x="-17" y="-106"/>
      <point x="-34" y="-190" type="curve"/>
      <point x="9" y="-199" type="line"/>
      <point x="21" y="-159"/>
      <point x="44" y="-130"/>
      <point x="78" y="-130" type="curve" smooth="yes"/>
      <point x="107" y="-130"/>
      <point x="122" y="-153"/>
      <point x="122" y="-199" type="curve"/>
      <point x="165" y="-199" type="line"/>
      <point x="171" y="-112"/>
      <point x="135" y="-60"/>
      <point x="80" y="-60" type="curve" smooth="yes"/>
    </contour>
    <contour>
      <point x="207" y="-60"/>
      <point x="161" y="-106"/>
      <point x="144" y="-199" type="curve"/>
      <point x="187" y="-199" type="line"/>
      <point x="199" y="-159"/>
      <point x="223" y="-130"/>
      <point x="256" y="-130" type="curve" smooth="yes"/>
      <point x="285" y="-130"/>
      <point x="300" y="-153"/>
      <point x="299" y="-196" type="curve"/>
      <point x="343" y="-199" type="line"/>
      <point x="349" y="-112"/>
      <point x="314" y="-60"/>
      <point x="258" y="-60" type="curve" smooth="yes"/>
    </contour>
    <contour>
      <point x="173" y="0" type="move" name="_bottom"/>
    </contour>
    <contour>
      <point x="157" y="-199" type="move" name="bottom"/>
    </contour>
  </outline>
</glyph>
<glyph name="uni0342" format="1">
  <advance width="392"/>
  <unicode hex="0342"/>
  <outline>
    <component base="tildecomb"/>
    <contour>
      <point x="262" y="774" type="move" name="top"/>
    </contour>
    <contour>
      <point x="233" y="527" type="move" name="_top"/>
    </contour>
  </outline>
</glyph>
<glyph name="uni0361" format="1">
  <advance width="369"/>
  <unicode hex="0361"/>
  <outline>
    <contour>
      <point x="123" y="608" type="line"/>
      <point x="223" y="669"/>
      <point x="314" y="698"/>
      <point x="431" y="698" type="curve" smooth="yes"/>
      <point x="543" y="698"/>
      <point x="628" y="671"/>
      <point x="712" y="610" type="curve"/>
      <point x="756" y="660" type="line"/>
      <point x="676" y="734"/>
      <point x="576" y="794"/>
      <point x="437" y="794" type="curve" smooth="yes"/>
      <point x="302" y="794"/>
      <point x="185" y="738"/>
      <point x="86" y="665" type="curve"/>
    </contour>
  </outline>
</glyph>
<glyph name="uni0370" format="1">
  <advance width="515"/>
  <unicode hex="0370"/>
  <outline>
    <contour>
      <point x="212" y="401" type="line"/>
      <point x="253" y="689" type="line"/>
      <point x="159" y="689" type="line"/>
      <point x="62" y="0" type="line"/>
      <point x="156" y="0" type="line"/>
      <point x="201" y="323" type="line"/>
      <point x="499" y="323" type="line"/>
      <point x="510" y="401" type="line"/>
    </contour>
    <contour>
      <point x="317" y="689" type="move" name="top"/>
    </contour>
    <contour>
      <point x="220" y="0" type="move" name="bottom"/>
    </contour>
  </outline>
</glyph>
<glyph name="uni0372" format="1">
  <advance width="575"/>
  <unicode hex="0372"/>
  <outline>
    <contour>
      <point x="298" y="0" type="line"/>
      <point x="383" y="608" type="line"/>
      <point x="529" y="608" type="line"/>
      <point x="499" y="401" type="line"/>
      <point x="579" y="401" type="line"/>
      <point x="621" y="689" type="line"/>
      <point x="74" y="689" type="line"/>
      <point x="33" y="400" type="line"/>
      <point x="113" y="400" type="line"/>
      <point x="142" y="608" type="line"/>
      <point x="289" y="608" type="line"/>
      <point x="204" y="0" type="line"/>
    </contour>
    <contour>
      <point x="347" y="689" type="move" name="top"/>
    </contour>
    <contour>
      <point x="250" y="0" type="move" name="bottom"/>
    </contour>
  </outline>
</glyph>
<glyph name="uni0373" format="1">
  <advance width="470"/>
  <unicode hex="0373"/>
  <outline>
    <contour>
      <point x="310" y="484" type="line"/>
      <point x="218" y="484" type="line"/>
      <point x="120" y="-216" type="line"/>
      <point x="211" y="-204" type="line"/>
    </contour>
    <contour>
      <point x="61" y="450"/>
      <point x="85" y="452"/>
      <point x="128" y="452" type="curve" smooth="yes"/>
      <point x="493" y="452" type="line"/>
      <point x="504" y="527" type="line"/>
      <point x="140" y="527" type="line" smooth="yes"/>
      <point x="88" y="527"/>
      <point x="49" y="522"/>
      <point x="16" y="510" type="curve"/>
      <point x="28" y="439" type="line"/>
    </contour>
    <contour>
      <point x="272" y="527" type="move" name="top"/>
    </contour>
  </outline>
</glyph>
<glyph name="dieresistonos" format="1">
  <advance width="403"/>
  <unicode hex="0385"/>
  <outline>
    <contour>
      <point x="116" y="738"/>
      <point x="89" y="712"/>
      <point x="89" y="676" type="curve" smooth="yes"/>
      <point x="89" y="647"/>
      <point x="111" y="625"/>
      <point x="142" y="625" type="curve"/>
      <point x="178" y="625"/>
      <point x="205" y="651"/>
      <point x="205" y="687" type="curve" smooth="yes"/>
      <point x="205" y="716"/>
      <point x="183" y="738"/>
      <point x="152" y="738" type="curve"/>
    </contour>
    <contour>
      <point x="343" y="738"/>
      <point x="316" y="712"/>
      <point x="316" y="676" type="curve" smooth="yes"/>
      <point x="316" y="647"/>
      <point x="338" y="625"/>
      <point x="369" y="625" type="curve"/>
      <point x="405" y="625"/>
      <point x="432" y="651"/>
      <point x="432" y="687" type="curve" smooth="yes"/>
      <point x="432" y="716"/>
      <point x="410" y="738"/>
      <point x="379" y="738" type="curve"/>
    </contour>
    <contour>
      <point x="235" y="735" type="line"/>
      <point x="292" y="735" type="line"/>
      <point x="346" y="911" type="line"/>
      <point x="262" y="918" type="line"/>
    </contour>
    <contour>
      <point x="239" y="527" type="move" name="_top"/>
    </contour>
  </outline>
</glyph>
<glyph name="Theta" format="1">
  <advance width="686"/>
  <unicode hex="0398"/>
  <outline>
    <contour>
      <point x="241" y="389" type="line"/>
      <point x="231" y="315" type="line"/>
      <point x="468" y="315" type="line"/>
      <point x="478" y="389" type="line"/>
    </contour>
    <contour>
      <point x="147" y="701"/>
      <point x="61" y="441"/>
      <point x="61" y="265" type="curve" smooth="yes"/>
      <point x="61" y="85"/>
      <point x="158" y="-12"/>
      <point x="308" y="-12" type="curve" smooth="yes"/>
      <point x="562" y="-12"/>
      <point x="648" y="239"/>
      <point x="648" y="421" type="curve" smooth="yes"/>
      <point x="648" y="603"/>
      <point x="552" y="701"/>
      <point x="402" y="701" type="curve" smooth="yes"/>
    </contour>
    <contour>
      <point x="496" y="623"/>
      <point x="552" y="566"/>
      <point x="552" y="428" type="curve" smooth="yes"/>
      <point x="552" y="288"/>
      <point x="502" y="66"/>
      <point x="311" y="66" type="curve" smooth="yes"/>
      <point x="217" y="66"/>
      <point x="157" y="120"/>
      <point x="157" y="262" type="curve" smooth="yes"/>
      <point x="157" y="403"/>
      <point x="209" y="623"/>
      <point x="398" y="623" type="curve" smooth="yes"/>
    </contour>
    <contour>
      <point x="403" y="689" type="move" name="top"/>
    </contour>
    <contour>
      <point x="306" y="0" type="move" name="bottom"/>
    </contour>
  </outline>
</glyph>
<glyph name="Sigma" format="1">
  <advance width="500"/>
  <unicode hex="03A3"/>
  <outline>
    <contour>
      <point x="101" y="689" type="line"/>
      <point x="91" y="611" type="line"/>
      <point x="272" y="340" type="line"/>
      <point x="14" y="78" type="line"/>
      <point x="4" y="0" type="line"/>
      <point x="423" y="0" type="line"/>
      <point x="434" y="78" type="line"/>
      <point x="122" y="78" type="line"/>
      <point x="353" y="304" type="line"/>
      <point x="359" y="366" type="line"/>
      <point x="195" y="611" type="line"/>
      <point x="509" y="611" type="line"/>
      <point x="520" y="689" type="line"/>
    </contour>
    <contour>
      <point x="310" y="689" type="move" name="top"/>
    </contour>
    <contour>
      <point x="213" y="0" type="move" name="bottom"/>
    </contour>
  </outline>
</glyph>
<glyph name="lambda" format="1">
  <advance width="489"/>
  <unicode hex="03BB"/>
  <outline>
    <contour>
      <point x="129" y="681" type="line"/>
      <point x="230" y="662"/>
      <point x="257" y="622"/>
      <point x="266" y="530" type="curve"/>
      <point x="231" y="537" type="line"/>
      <point x="-16" y="10" type="line"/>
      <point x="70" y="-12" type="line"/>
      <point x="275" y="451" type="line"/>
      <point x="288" y="173"/>
      <point x="322" y="83"/>
      <point x="379" y="-11" type="curve"/>
      <point x="465" y="20" type="line"/>
      <point x="406" y="106"/>
      <point x="379" y="187"/>
      <point x="350" y="495" type="curve" smooth="yes"/>
      <point x="336" y="659"/>
      <point x="293" y="724"/>
      <point x="149" y="752" type="curve"/>
    </contour>
    <contour>
      <point x="312" y="739" type="move" name="top"/>
    </contour>
    <contour>
      <point x="208" y="0" type="move" name="bottom"/>
    </contour>
  </outline>
</glyph>
<glyph name="pi" format="1">
  <advance width="587"/>
  <unicode hex="03C0"/>
  <outline>
    <contour>
      <point x="166" y="0" type="line"/>
      <point x="231" y="468" type="line"/>
      <point x="140" y="468" type="line"/>
      <point x="75" y="0" type="line"/>
    </contour>
    <contour>
      <point x="489" y="55" type="line"/>
      <point x="455" y="70"/>
      <point x="446" y="86"/>
      <point x="453" y="138" type="curve" smooth="yes"/>
      <point x="500" y="468" type="line"/>
      <point x="409" y="468" type="line"/>
      <point x="362" y="134" type="line" smooth="yes"/>
      <point x="351" y="53"/>
      <point x="374" y="14"/>
      <point x="451" y="-11" type="curve"/>
    </contour>
    <contour>
      <point x="88" y="448"/>
      <point x="109" y="452"/>
      <point x="148" y="452" type="curve" smooth="yes"/>
      <point x="590" y="452" type="line"/>
      <point x="600" y="527" type="line"/>
      <point x="175" y="527" type="line" smooth="yes"/>
      <point x="118" y="527"/>
      <point x="79" y="523"/>
      <point x="46" y="511" type="curve"/>
      <point x="58" y="441" type="line"/>
    </contour>
    <contour>
      <point x="330" y="527" type="move" name="top"/>
    </contour>
    <contour>
      <point x="255" y="0" type="move" name="bottom"/>
    </contour>
  </outline>
</glyph>
<glyph name="rho" format="1">
  <advance width="577"/>
  <unicode hex="03C1"/>
  <outline>
    <contour>
      <point x="110" y="-204" type="line"/>
      <point x="173" y="255" type="line" smooth="yes"/>
      <point x="191" y="389"/>
      <point x="237" y="467"/>
      <point x="327" y="467" type="curve" smooth="yes"/>
      <point x="392" y="467"/>
      <point x="425" y="426"/>
      <point x="425" y="337" type="curve" smooth="yes"/>
      <point x="425" y="230"/>
      <point x="387" y="63"/>
      <point x="258" y="63" type="curve" smooth="yes"/>
      <point x="207" y="63"/>
      <point x="167" y="90"/>
      <point x="149" y="136" type="curve"/>
      <point x="136" y="59" type="line"/>
      <point x="160" y="15"/>
      <point x="202" y="-12"/>
      <point x="267" y="-12" type="curve" smooth="yes"/>
      <point x="459" y="-12"/>
      <point x="522" y="202"/>
      <point x="522" y="337" type="curve" smooth="yes"/>
      <point x="522" y="460"/>
      <point x="454" y="539"/>
      <point x="329" y="539" type="curve" smooth="yes"/>
      <point x="195" y="539"/>
      <point x="109" y="447"/>
      <point x="85" y="274" type="curve" smooth="yes"/>
      <point x="17" y="-216" type="line"/>
    </contour>
    <contour>
      <point x="327" y="527" type="move" name="top"/>
    </contour>
  </outline>
</glyph>
<glyph name="tau" format="1">
  <advance width="446"/>
  <unicode hex="03C4"/>
  <outline>
    <contour>
      <point x="281" y="55" type="line"/>
      <point x="247" y="70"/>
      <point x="238" y="86"/>
      <point x="245" y="138" type="curve" smooth="yes"/>
      <point x="291" y="468" type="line"/>
      <point x="200" y="468" type="line"/>
      <point x="154" y="134" type="line" smooth="yes"/>
      <point x="143" y="53"/>
      <point x="165" y="10"/>
      <point x="247" y="-11" type="curve"/>
    </contour>
    <contour>
      <point x="61" y="450"/>
      <point x="85" y="452"/>
      <point x="128" y="452" type="curve" smooth="yes"/>
      <point x="469" y="452" type="line"/>
      <point x="480" y="527" type="line"/>
      <point x="140" y="527" type="line" smooth="yes"/>
      <point x="88" y="527"/>
      <point x="49" y="522"/>
      <point x="16" y="511" type="curve"/>
      <point x="28" y="439" type="line"/>
    </contour>
    <contour>
      <point x="260" y="527" type="move" name="top"/>
    </contour>
    <contour>
      <point x="186" y="0" type="move" name="bottom"/>
    </contour>
  </outline>
</glyph>
<glyph name="chi" format="1">
  <advance width="452"/>
  <unicode hex="03C7"/>
  <outline>
    <contour>
      <point x="23" y="507" type="line"/>
      <point x="78" y="438"/>
      <point x="107" y="371"/>
      <point x="163" y="189" type="curve"/>
      <point x="204" y="113" type="line"/>
      <point x="290" y="-211" type="line"/>
      <point x="382" y="-199" type="line"/>
      <point x="265" y="183" type="line"/>
      <point x="225" y="256" type="line"/>
      <point x="183" y="417"/>
      <point x="156" y="477"/>
      <point x="112" y="536" type="curve"/>
    </contour>
    <contour>
      <point x="225" y="256" type="line"/>
      <point x="163" y="189" type="line"/>
      <point x="-73" y="-199" type="line"/>
      <point x="17" y="-210" type="line"/>
      <point x="204" y="113" type="line"/>
      <point x="265" y="183" type="line"/>
      <point x="470" y="527" type="line"/>
      <point x="378" y="538" type="line" smooth="yes"/>
    </contour>
    <contour>
      <point x="263" y="527" type="move" name="top"/>
    </contour>
  </outline>
</glyph>
<glyph name="psi" format="1">
  <advance width="757"/>
  <unicode hex="03C8"/>
  <outline>
    <contour>
      <point x="699" y="469"/>
      <point x="697" y="498"/>
      <point x="694" y="527" type="curve"/>
      <point x="607" y="527" type="line"/>
      <point x="608" y="498"/>
      <point x="609" y="475"/>
      <point x="609" y="446" type="curve" smooth="yes"/>
      <point x="609" y="263"/>
      <point x="602" y="83"/>
      <point x="400" y="62" type="curve"/>
      <point x="465" y="527" type="line"/>
      <point x="377" y="527" type="line"/>
      <point x="312" y="61" type="line"/>
      <point x="192" y="70"/>
      <point x="160" y="126"/>
      <point x="173" y="217" type="curve" smooth="yes"/>
      <point x="217" y="527" type="line"/>
      <point x="126" y="527" type="line"/>
      <point x="82" y="216" type="line" smooth="yes"/>
      <point x="64" y="90"/>
      <point x="128" y="-2"/>
      <point x="302" y="-11" type="curve"/>
      <point x="274" y="-216" type="line"/>
      <point x="363" y="-204" type="line"/>
      <point x="390" y="-11" type="line"/>
      <point x="660" y="5"/>
      <point x="699" y="183"/>
      <point x="699" y="444" type="curve" smooth="yes"/>
    </contour>
    <contour>
      <point x="420" y="527" type="move" name="top"/>
    </contour>
  </outline>
</glyph>
<glyph name="uni03D7" format="1">
  <advance width="579"/>
  <unicode hex="03D7"/>
  <outline>
    <contour>
      <point x="439" y="426" type="line"/>
      <point x="521" y="505" type="line"/>
      <point x="427" y="538" type="line"/>
      <point x="140" y="101" type="line"/>
      <point x="58" y="22" type="line"/>
      <point x="153" y="-10" type="line"/>
    </contour>
    <contour>
      <point x="506" y="55" type="line"/>
      <point x="472" y="70"/>
      <point x="463" y="86"/>
      <point x="470" y="138" type="curve" smooth="yes"/>
      <point x="521" y="505" type="line"/>
      <point x="439" y="426" type="line"/>
      <point x="405" y="283"/>
      <point x="376" y="154"/>
      <point x="376" y="99" type="curve" smooth="yes"/>
      <point x="376" y="41"/>
      <point x="403" y="17"/>
      <point x="468" y="-5" type="curve"/>
    </contour>
    <contour>
      <point x="410" y="-213"/>
      <point x="476" y="-164"/>
      <point x="490" y="-60" type="curve" smooth="yes"/>
      <point x="506" y="55" type="line"/>
      <point x="419" y="55" type="line"/>
      <point x="402" y="-62" type="line" smooth="yes"/>
      <point x="394" y="-118"/>
      <point x="364" y="-141"/>
      <point x="318" y="-141" type="curve" smooth="yes"/>
      <point x="289" y="-141"/>
      <point x="273" y="-133"/>
      <point x="252" y="-119" type="curve"/>
      <point x="211" y="-173" type="line"/>
      <point x="234" y="-192"/>
      <point x="268" y="-213"/>
      <point x="322" y="-213" type="curve" smooth="yes"/>
    </contour>
    <contour>
      <point x="73" y="472" type="line"/>
      <point x="107" y="457"/>
      <point x="116" y="441"/>
      <point x="109" y="389" type="curve" smooth="yes"/>
      <point x="58" y="22" type="line"/>
      <point x="140" y="101" type="line"/>
      <point x="174" y="244"/>
      <point x="203" y="373"/>
      <point x="203" y="428" type="curve" smooth="yes"/>
      <point x="203" y="486"/>
      <point x="176" y="516"/>
      <point x="111" y="538" type="curve"/>
    </contour>
    <contour>
      <point x="328" y="527" type="move" name="top"/>
    </contour>
  </outline>
</glyph>
<glyph name="uni03F1" format="1">
  <advance width="576"/>
  <unicode hex="03F1"/>
  <outline>
    <contour>
      <point x="394" y="-186" type="line"/>
      <point x="385" y="-143"/>
      <point x="350" y="-117"/>
      <point x="257" y="-101" type="curve" smooth="yes"/>
      <point x="156" y="-84"/>
      <point x="131" y="-62"/>
      <point x="137" y="-12" type="curve" smooth="yes"/>
      <point x="173" y="255" type="line"/>
      <point x="191" y="389"/>
      <point x="237" y="467"/>
      <point x="328" y="467" type="curve" smooth="yes"/>
      <point x="392" y="467"/>
      <point x="425" y="426"/>
      <point x="425" y="337" type="curve" smooth="yes"/>
      <point x="425" y="222"/>
      <point x="368" y="96"/>
      <point x="264" y="96" type="curve" smooth="yes"/>
      <point x="208" y="96"/>
      <point x="167" y="123"/>
      <point x="149" y="169" type="curve"/>
      <point x="136" y="95" type="line"/>
      <point x="160" y="53"/>
      <point x="205" y="21"/>
      <point x="272" y="21" type="curve" smooth="yes"/>
      <point x="439" y="21"/>
      <point x="522" y="194"/>
      <point x="522" y="337" type="curve" smooth="yes"/>
      <point x="522" y="460"/>
      <point x="454" y="539"/>
      <point x="329" y="539" type="curve" smooth="yes"/>
      <point x="194" y="539"/>
      <point x="109" y="447"/>
      <point x="85" y="274" type="curve" smooth="yes"/>
      <point x="49" y="8" type="line" smooth="yes"/>
      <point x="34" y="-102"/>
      <point x="89" y="-146"/>
      <point x="198" y="-166" type="curve" smooth="yes"/>
      <point x="285" y="-182"/>
      <point x="299" y="-187"/>
      <point x="310" y="-214" type="curve"/>
    </contour>
    <contour>
      <point x="323" y="527" type="move" name="top"/>
    </contour>
  </outline>
</glyph>
<glyph name="uni03F9" format="1">
  <advance width="575"/>
  <unicode hex="03F9"/>
  <outline>
    <contour>
      <point x="155" y="701"/>
      <point x="61" y="452"/>
      <point x="61" y="268" type="curve" smooth="yes"/>
      <point x="61" y="86"/>
      <point x="159" y="-12"/>
      <point x="316" y="-12" type="curve" smooth="yes"/>
      <point x="416" y="-12"/>
      <point x="484" y="25"/>
      <point x="529" y="63" type="curve"/>
      <point x="487" y="127" type="line"/>
      <point x="445" y="97"/>
      <point x="399" y="68"/>
      <point x="322" y="68" type="curve" smooth="yes"/>
      <point x="224" y="68"/>
      <point x="160" y="122"/>
      <point x="160" y="260" type="curve" smooth="yes"/>
      <point x="160" y="415"/>
      <point x="219" y="623"/>
      <point x="408" y="623" type="curve" smooth="yes"/>
      <point x="465" y="623"/>
      <point x="504" y="609"/>
      <point x="545" y="577" type="curve"/>
      <point x="599" y="630" type="line"/>
      <point x="551" y="675"/>
      <point x="494" y="701"/>
      <point x="404" y="701" type="curve" smooth="yes"/>
    </contour>
    <contour>
      <point x="370" y="346" type="move" name="center"/>
    </contour>
    <contour>
      <point x="254" y="0" type="move" name="bottom"/>
    </contour>
    <contour>
      <point x="351" y="689" type="move" name="top"/>
    </contour>
  </outline>
</glyph>
<glyph name="uni03FB" format="1">
  <advance width="665"/>
  <unicode hex="03FB"/>
  <outline>
    <contour>
      <point x="474" y="527" type="line"/>
      <point x="310" y="148" type="line"/>
      <point x="259" y="527" type="line"/>
      <point x="143" y="527" type="line"/>
      <point x="-24" y="-213" type="line"/>
      <point x="65" y="-202" type="line"/>
      <point x="165" y="247" type="line" smooth="yes"/>
      <point x="177" y="302"/>
      <point x="186" y="368"/>
      <point x="196" y="440" type="curve"/>
      <point x="253" y="58" type="line"/>
      <point x="341" y="58" type="line"/>
      <point x="513" y="443" type="line"/>
      <point x="502" y="362"/>
      <point x="497" y="310"/>
      <point x="494" y="252" type="curve" smooth="yes"/>
      <point x="481" y="0" type="line"/>
      <point x="568" y="0" type="line"/>
      <point x="595" y="527" type="line"/>
    </contour>
    <contour>
      <point x="370" y="527" type="move" name="top"/>
    </contour>
  </outline>
</glyph>
<glyph name="uni03FC" format="1">
  <advance width="575"/>
  <unicode hex="03FC"/>
  <outline>
    <contour>
      <point x="-46" y="-134" type="line"/>
      <point x="32" y="-134" type="line"/>
      <point x="279" y="-134" type="line"/>
      <point x="289" y="-64" type="line"/>
      <point x="-36" y="-64" type="line"/>
    </contour>
    <component base="rho" xOffset="-2"/>
  </outline>
</glyph>
<glyph name="uni0404" format="1">
  <advance width="560"/>
  <unicode hex="0404"/>
  <outline>
    <contour>
      <point x="396" y="-12"/>
      <point x="464" y="25"/>
      <point x="509" y="63" type="curve"/>
      <point x="467" y="127" type="line"/>
      <point x="425" y="97"/>
      <point x="379" y="68"/>
      <point x="312" y="68" type="curve" smooth="yes"/>
      <point x="223" y="68"/>
      <point x="159" y="122"/>
      <point x="159" y="260" type="curve" smooth="yes"/>
      <point x="159" y="415"/>
      <point x="218" y="623"/>
      <point x="398" y="623" type="curve" smooth="yes"/>
      <point x="445" y="623"/>
      <point x="484" y="609"/>
      <point x="525" y="577" type="curve"/>
      <point x="579" y="630" type="line"/>
      <point x="531" y="675"/>
      <point x="474" y="701"/>
      <point x="394" y="701" type="curve" smooth="yes"/>
      <point x="155" y="701"/>
      <point x="61" y="452"/>
      <point x="61" y="268" type="curve" smooth="yes"/>
      <point x="61" y="86"/>
      <point x="159" y="-12"/>
      <point x="306" y="-12" type="curve" smooth="yes"/>
    </contour>
    <contour>
      <point x="421" y="316" type="line"/>
      <point x="432" y="394" type="line"/>
      <point x="158" y="394" type="line"/>
      <point x="145" y="316" type="line"/>
    </contour>
    <contour>
      <point x="340" y="689" type="move" name="top"/>
    </contour>
    <contour>
      <point x="243" y="0" type="move" name="bottom"/>
    </contour>
  </outline>
</glyph>
<glyph name="uni040B" format="1">
  <advance width="709"/>
  <unicode hex="040B"/>
  <outline>
    <contour>
      <point x="74" y="689" type="line"/>
      <point x="62" y="608" type="line"/>
      <point x="540" y="608" type="line"/>
      <point x="562" y="689" type="line"/>
    </contour>
    <component base="uni04BA" xOffset="109"/>
  </outline>
</glyph>
<glyph name="uni0414" format="1">
  <advance width="605"/>
  <unicode hex="0414"/>
  <outline>
    <contour>
      <point x="219" y="689" type="line"/>
      <point x="166" y="492" type="line" smooth="yes"/>
      <point x="90" y="204"/>
      <point x="69" y="131"/>
      <point x="8" y="78" type="curve"/>
      <point x="-1" y="0" type="line"/>
      <point x="469" y="0" type="line"/>
      <point x="566" y="689" type="line"/>
    </contour>
    <contour>
      <point x="386" y="78" type="line"/>
      <point x="91" y="78" type="line"/>
      <point x="168" y="133"/>
      <point x="189" y="210"/>
      <point x="259" y="482" type="curve" smooth="yes"/>
      <point x="291" y="611" type="line"/>
      <point x="461" y="611" type="line"/>
    </contour>
    <component base="descStraightcy.case" xOffset="405"/>
    <component base="descStraightleftcy.case" xOffset="-67"/>
    <contour>
      <point x="387" y="689" type="move" name="top"/>
    </contour>
  </outline>
</glyph>
<glyph name="uni0427" format="1">
  <advance width="607"/>
  <unicode hex="0427"/>
  <outline>
    <contour>
      <point x="100" y="689" type="line"/>
      <point x="63" y="427" type="line" smooth="yes"/>
      <point x="45" y="300"/>
      <point x="117" y="217"/>
      <point x="237" y="217" type="curve" smooth="yes"/>
      <point x="314" y="217"/>
      <point x="365" y="238"/>
      <point x="438" y="290" type="curve"/>
      <point x="436" y="367" type="line"/>
      <point x="397" y="331"/>
      <point x="343" y="298"/>
      <point x="265" y="298" type="curve" smooth="yes"/>
      <point x="184" y="298"/>
      <point x="144" y="336"/>
      <point x="157" y="428" type="curve" smooth="yes"/>
      <point x="194" y="689" type="line"/>
    </contour>
    <contour>
      <point x="474" y="689" type="line"/>
      <point x="377" y="0" type="line"/>
      <point x="471" y="0" type="line"/>
      <point x="568" y="689" type="line"/>
    </contour>
    <contour>
      <point x="334" y="689" type="move" name="top"/>
    </contour>
    <contour>
      <point x="357" y="0" type="move" name="bottomleft"/>
    </contour>
    <contour>
      <point x="481" y="0" type="move" name="bottomright"/>
    </contour>
    <contour>
      <point x="267" y="0" type="move" name="bottom"/>
    </contour>
  </outline>
</glyph>
<glyph name="uni042A" format="1">
  <advance width="677"/>
  <unicode hex="042A"/>
  <outline>
    <contour>
      <point x="362" y="689" type="line"/>
      <point x="74" y="689" type="line"/>
      <point x="62" y="608" type="line"/>
      <point x="256" y="608" type="line"/>
    </contour>
    <component base="uni042C" xOffset="109"/>
  </outline>
</glyph>
<glyph name="uni042F" format="1">
  <advance width="606"/>
  <unicode hex="042F"/>
  <outline>
    <contour>
      <point x="189" y="308" type="line"/>
      <point x="-2" y="0" type="line"/>
      <point x="103" y="0" type="line"/>
      <point x="276" y="287" type="line"/>
    </contour>
    <contour>
      <point x="241" y="273" type="line"/>
      <point x="429" y="271" type="line"/>
      <point x="440" y="346" type="line"/>
      <point x="298" y="346" type="line" smooth="yes"/>
      <point x="226" y="346"/>
      <point x="180" y="381"/>
      <point x="180" y="452" type="curve" smooth="yes"/>
      <point x="180" y="531"/>
      <point x="220" y="615"/>
      <point x="368" y="615" type="curve" smooth="yes"/>
      <point x="462" y="615" type="line"/>
      <point x="376" y="0" type="line"/>
      <point x="470" y="0" type="line"/>
      <point x="567" y="689" type="line"/>
      <point x="373" y="689" type="line" smooth="yes"/>
      <point x="149" y="689"/>
      <point x="81" y="559"/>
      <point x="81" y="453" type="curve" smooth="yes"/>
      <point x="81" y="378"/>
      <point x="119" y="316"/>
      <point x="193" y="289" type="curve"/>
    </contour>
    <contour>
      <point x="370" y="689" type="move" name="top"/>
    </contour>
    <contour>
      <point x="273" y="0" type="move" name="bottom"/>
    </contour>
  </outline>
</glyph>
<glyph name="uni0431" format="1">
  <advance width="581"/>
  <unicode hex="0431"/>
  <outline>
    <contour>
      <point x="275" y="500"/>
      <point x="204" y="452"/>
      <point x="160" y="388" type="curve"/>
      <point x="191" y="548"/>
      <point x="259" y="589"/>
      <point x="350" y="614" type="curve" smooth="yes"/>
      <point x="437" y="638"/>
      <point x="472" y="652"/>
      <point x="514" y="681" type="curve"/>
      <point x="480" y="747" type="line"/>
      <point x="426" y="713"/>
      <point x="399" y="705"/>
      <point x="321" y="685" type="curve" smooth="yes"/>
      <point x="99" y="628"/>
      <point x="62" y="410"/>
      <point x="62" y="231" type="curve" smooth="yes"/>
      <point x="62" y="66"/>
      <point x="147" y="-12"/>
      <point x="264" y="-12" type="curve" smooth="yes"/>
      <point x="458" y="-12"/>
      <point x="527" y="178"/>
      <point x="527" y="305" type="curve" smooth="yes"/>
      <point x="527" y="430"/>
      <point x="458" y="500"/>
      <point x="354" y="500" type="curve" smooth="yes"/>
    </contour>
    <contour>
      <point x="194" y="62"/>
      <point x="149" y="123"/>
      <point x="149" y="233" type="curve" smooth="yes"/>
      <point x="149" y="247"/>
      <point x="149" y="265"/>
      <point x="151" y="286" type="curve"/>
      <point x="198" y="377"/>
      <point x="271" y="426"/>
      <point x="339" y="426" type="curve" smooth="yes"/>
      <point x="396" y="426"/>
      <point x="430" y="395"/>
      <point x="430" y="305" type="curve" smooth="yes"/>
      <point x="430" y="204"/>
      <point x="392" y="62"/>
      <point x="263" y="62" type="curve" smooth="yes"/>
    </contour>
    <contour>
      <point x="358" y="739" type="move" name="top"/>
    </contour>
    <contour>
      <point x="254" y="0" type="move" name="bottom"/>
    </contour>
  </outline>
</glyph>
<glyph name="uni0432" format="1">
  <advance width="536"/>
  <unicode hex="0432"/>
  <outline>
    <contour>
      <point x="138" y="539"/>
      <point x="52" y="357"/>
      <point x="52" y="211" type="curve" smooth="yes"/>
      <point x="52" y="65"/>
      <point x="147" y="-12"/>
      <point x="276" y="-12" type="curve" smooth="yes"/>
      <point x="382" y="-12"/>
      <point x="487" y="48"/>
      <point x="487" y="168" type="curve" smooth="yes"/>
      <point x="487" y="223"/>
      <point x="450" y="265"/>
      <point x="394" y="285" type="curve"/>
      <point x="459" y="316"/>
      <point x="493" y="358"/>
      <point x="493" y="416" type="curve" smooth="yes"/>
      <point x="493" y="495"/>
      <point x="427" y="539"/>
      <point x="338" y="539" type="curve" smooth="yes"/>
    </contour>
    <contour>
      <point x="361" y="243"/>
      <point x="391" y="217"/>
      <point x="391" y="169" type="curve" smooth="yes"/>
      <point x="391" y="101"/>
      <point x="349" y="60"/>
      <point x="272" y="60" type="curve" smooth="yes"/>
      <point x="175" y="60"/>
      <point x="148" y="141"/>
      <point x="148" y="213" type="curve" smooth="yes"/>
      <point x="148" y="219"/>
      <point x="148" y="224"/>
      <point x="148" y="230" type="curve"/>
      <point x="219" y="234"/>
      <point x="279" y="244"/>
      <point x="328" y="258" type="curve"/>
    </contour>
    <contour>
      <point x="375" y="470"/>
      <point x="404" y="451"/>
      <point x="404" y="410" type="curve" smooth="yes"/>
      <point x="404" y="338"/>
      <point x="310" y="305"/>
      <point x="155" y="295" type="curve"/>
      <point x="175" y="391"/>
      <point x="234" y="470"/>
      <point x="329" y="470" type="curve" smooth="yes"/>
    </contour>
  </outline>
</glyph>
<glyph name="uni0434" format="1">
  <advance width="568"/>
  <unicode hex="0434"/>
  <outline>
    <contour>
      <point x="432" y="-12"/>
      <point x="514" y="157"/>
      <point x="514" y="377" type="curve" smooth="yes"/>
      <point x="514" y="630"/>
      <point x="463" y="730"/>
      <point x="198" y="749" type="curve"/>
      <point x="176" y="678" type="line"/>
      <point x="390" y="660"/>
      <point x="422" y="606"/>
      <point x="423" y="439" type="curve" smooth="yes"/>
      <point x="423" y="437"/>
      <point x="423" y="435"/>
      <point x="423" y="433" type="curve"/>
      <point x="393" y="472"/>
      <point x="347" y="500"/>
      <point x="283" y="500" type="curve" smooth="yes"/>
      <point x="121" y="500"/>
      <point x="51" y="342"/>
      <point x="51" y="197" type="curve" smooth="yes"/>
      <point x="51" y="62"/>
      <point x="137" y="-12"/>
      <point x="249" y="-12" type="curve" smooth="yes"/>
    </contour>
    <contour>
      <point x="184" y="61"/>
      <point x="144" y="104"/>
      <point x="144" y="198" type="curve" smooth="yes"/>
      <point x="144" y="310"/>
      <point x="179" y="428"/>
      <point x="295" y="428" type="curve" smooth="yes"/>
      <point x="354" y="428"/>
      <point x="394" y="398"/>
      <point x="420" y="348" type="curve"/>
      <point x="419" y="201"/>
      <point x="369" y="61"/>
      <point x="249" y="61" type="curve" smooth="yes"/>
    </contour>
    <contour>
      <point x="321" y="739" type="move" name="top"/>
    </contour>
  </outline>
</glyph>
<glyph name="uni0444" format="1">
  <advance width="802"/>
  <unicode hex="0444"/>
  <outline>
    <contour>
      <point x="379" y="-205" type="line"/>
      <point x="415" y="57" type="line"/>
      <point x="438" y="13"/>
      <point x="477" y="-12"/>
      <point x="533" y="-12" type="curve" smooth="yes"/>
      <point x="699" y="-12"/>
      <point x="753" y="206"/>
      <point x="753" y="359" type="curve" smooth="yes"/>
      <point x="753" y="468"/>
      <point x="711" y="539"/>
      <point x="600" y="539" type="curve" smooth="yes"/>
      <point x="555" y="539"/>
      <point x="512" y="524"/>
      <point x="475" y="482" type="curve"/>
      <point x="511" y="739" type="line"/>
      <point x="424" y="750" type="line"/>
      <point x="386" y="478" type="line"/>
      <point x="359" y="521"/>
      <point x="314" y="539"/>
      <point x="270" y="539" type="curve" smooth="yes"/>
      <point x="91" y="539"/>
      <point x="52" y="321"/>
      <point x="52" y="191" type="curve" smooth="yes"/>
      <point x="52" y="67"/>
      <point x="103" y="-12"/>
      <point x="194" y="-12" type="curve" smooth="yes"/>
      <point x="243" y="-12"/>
      <point x="292" y="10"/>
      <point x="326" y="51" type="curve"/>
      <point x="289" y="-216" type="line"/>
    </contour>
    <contour>
      <point x="173" y="61"/>
      <point x="148" y="99"/>
      <point x="148" y="188" type="curve" smooth="yes"/>
      <point x="148" y="291"/>
      <point x="178" y="466"/>
      <point x="281" y="466" type="curve" smooth="yes"/>
      <point x="321" y="466"/>
      <point x="355" y="445"/>
      <point x="376" y="410" type="curve"/>
      <point x="338" y="131" type="line"/>
      <point x="305" y="88"/>
      <point x="263" y="61"/>
      <point x="217" y="61" type="curve" smooth="yes"/>
    </contour>
    <contour>
      <point x="471" y="61"/>
      <point x="444" y="83"/>
      <point x="425" y="122" type="curve"/>
      <point x="464" y="402" type="line"/>
      <point x="495" y="441"/>
      <point x="532" y="466"/>
      <point x="579" y="466" type="curve" smooth="yes"/>
      <point x="630" y="466"/>
      <point x="655" y="429"/>
      <point x="655" y="354" type="curve" smooth="yes"/>
      <point x="655" y="254"/>
      <point x="624" y="61"/>
      <point x="514" y="61" type="curve" smooth="yes"/>
    </contour>
    <contour>
      <point x="468" y="739" type="move" name="top"/>
    </contour>
  </outline>
</glyph>
<glyph name="uni0448" format="1">
  <advance width="848"/>
  <unicode hex="0448"/>
  <outline>
    <contour>
      <point x="548" y="-12"/>
      <point x="601" y="28"/>
      <point x="647" y="95" type="curve"/>
      <point x="639" y="0" type="line"/>
      <point x="717" y="0" type="line"/>
      <point x="791" y="527" type="line"/>
      <point x="700" y="527" type="line"/>
      <point x="654" y="191" type="line"/>
      <point x="608" y="116"/>
      <point x="560" y="65"/>
      <point x="505" y="65" type="curve" smooth="yes"/>
      <point x="471" y="65"/>
      <point x="442" y="80"/>
      <point x="453" y="159" type="curve" smooth="yes"/>
      <point x="505" y="527" type="line"/>
      <point x="414" y="527" type="line"/>
      <point x="361" y="155" type="line" smooth="yes"/>
      <point x="345" y="46"/>
      <point x="407" y="-12"/>
      <point x="478" y="-12" type="curve" smooth="yes"/>
    </contour>
    <contour>
      <point x="261" y="-12"/>
      <point x="319" y="30"/>
      <point x="372" y="112" type="curve"/>
      <point x="375" y="206" type="line"/>
      <point x="331" y="126"/>
      <point x="278" y="65"/>
      <point x="217" y="65" type="curve" smooth="yes"/>
      <point x="181" y="65"/>
      <point x="154" y="80"/>
      <point x="165" y="159" type="curve" smooth="yes"/>
      <point x="217" y="527" type="line"/>
      <point x="126" y="527" type="line"/>
      <point x="73" y="152" type="line" smooth="yes"/>
      <point x="59" y="52"/>
      <point x="111" y="-12"/>
      <point x="190" y="-12" type="curve" smooth="yes"/>
    </contour>
    <contour>
      <point x="457" y="527" type="move" name="top"/>
    </contour>
    <contour>
      <point x="387" y="0" type="move" name="bottom"/>
    </contour>
    <contour>
      <point x="727" y="0" type="move" name="bottomright"/>
    </contour>
  </outline>
</glyph>
<glyph name="uni044A" format="1">
  <advance width="595"/>
  <unicode hex="044A"/>
  <outline>
    <contour>
      <point x="307" y="527" type="line"/>
      <point x="42" y="527" type="line"/>
      <point x="32" y="457" type="line"/>
      <point x="206" y="457" type="line"/>
    </contour>
    <component base="uni044C" xOffset="85"/>
  </outline>
</glyph>
<glyph name="uni044D" format="1">
  <advance width="479"/>
  <unicode hex="044D"/>
  <outline>
    <contour>
      <point x="339" y="-12"/>
      <point x="426" y="139"/>
      <point x="426" y="327" type="curve" smooth="yes"/>
      <point x="426" y="462"/>
      <point x="361" y="539"/>
      <point x="237" y="539" type="curve" smooth="yes"/>
      <point x="172" y="539"/>
      <point x="115" y="519"/>
      <point x="63" y="482" type="curve"/>
      <point x="101" y="424" type="line"/>
      <point x="144" y="453"/>
      <point x="185" y="466"/>
      <point x="229" y="466" type="curve" smooth="yes"/>
      <point x="302" y="466"/>
      <point x="333" y="427"/>
      <point x="333" y="338" type="curve" smooth="yes"/>
      <point x="333" y="323"/>
      <point x="333" y="306"/>
      <point x="331" y="287" type="curve"/>
      <point x="328" y="259" type="line"/>
      <point x="312" y="119"/>
      <point x="244" y="63"/>
      <point x="164" y="63" type="curve" smooth="yes"/>
      <point x="115" y="63"/>
      <point x="84" y="77"/>
      <point x="50" y="105" type="curve"/>
      <point x="1" y="50" type="line"/>
      <point x="41" y="14"/>
      <point x="92" y="-12"/>
      <point x="162" y="-12" type="curve" smooth="yes"/>
    </contour>
    <contour>
      <point x="340" y="235" type="line"/>
      <point x="348" y="305" type="line"/>
      <point x="119" y="305" type="line"/>
      <point x="109" y="235" type="line"/>
    </contour>
    <contour>
      <point x="252" y="527" type="move" name="top"/>
    </contour>
    <contour>
      <point x="204" y="0" type="move" name="bottom"/>
    </contour>
  </outline>
</glyph>
<glyph name="uni044E" format="1">
  <advance width="782"/>
  <unicode hex="044E"/>
  <outline>
    <contour>
      <point x="302" y="306" type="line"/>
      <point x="191" y="306" type="line"/>
      <point x="222" y="527" type="line"/>
      <point x="131" y="527" type="line"/>
      <point x="57" y="0" type="line"/>
      <point x="148" y="0" type="line"/>
      <point x="181" y="232" type="line"/>
      <point x="292" y="232" type="line"/>
    </contour>
    <contour>
      <point x="665" y="-12"/>
      <point x="730" y="194"/>
      <point x="730" y="321" type="curve" smooth="yes"/>
      <point x="730" y="455"/>
      <point x="660" y="539"/>
      <point x="537" y="539" type="curve" smooth="yes"/>
      <point x="343" y="539"/>
      <point x="276" y="336"/>
      <point x="276" y="206" type="curve" smooth="yes"/>
      <point x="276" y="72"/>
      <point x="347" y="-12"/>
      <point x="470" y="-12" type="curve" smooth="yes"/>
    </contour>
    <contour>
      <point x="410" y="62"/>
      <point x="372" y="104"/>
      <point x="372" y="196" type="curve" smooth="yes"/>
      <point x="372" y="297"/>
      <point x="409" y="465"/>
      <point x="534" y="465" type="curve" smooth="yes"/>
      <point x="596" y="465"/>
      <point x="634" y="423"/>
      <point x="634" y="331" type="curve" smooth="yes"/>
      <point x="634" y="230"/>
      <point x="598" y="62"/>
      <point x="473" y="62" type="curve" smooth="yes"/>
    </contour>
    <contour>
      <point x="427" y="527" type="move" name="top"/>
    </contour>
    <contour>
      <point x="352" y="0" type="move" name="bottom"/>
    </contour>
  </outline>
</glyph>
<glyph name="uni0452" format="1">
  <advance width="589"/>
  <unicode hex="0452"/>
  <outline>
    <contour>
      <point x="82" y="676" type="line"/>
      <point x="72" y="606" type="line"/>
      <point x="151" y="606" type="line"/>
      <point x="384" y="606" type="line"/>
      <point x="403" y="676" type="line"/>
    </contour>
    <contour>
      <point x="386" y="-163"/>
      <point x="445" y="-120"/>
      <point x="466" y="29" type="curve" smooth="yes"/>
      <point x="503" y="293" type="line"/>
      <point x="412" y="293" type="line"/>
      <point x="375" y="29" type="line" smooth="yes"/>
      <point x="359" y="-84"/>
      <point x="315" y="-112"/>
      <point x="243" y="-145" type="curve"/>
      <point x="269" y="-213" type="line"/>
    </contour>
    <contour>
      <point x="316" y="539"/>
      <point x="259" y="494"/>
      <point x="215" y="428" type="curve"/>
      <point x="261" y="748" type="line"/>
      <point x="169" y="738" type="line"/>
      <point x="65" y="0" type="line"/>
      <point x="156" y="0" type="line"/>
      <point x="199" y="316" type="line"/>
      <point x="241" y="391"/>
      <point x="300" y="462"/>
      <point x="370" y="462" type="curve" smooth="yes"/>
      <point x="408" y="462"/>
      <point x="434" y="443"/>
      <point x="423" y="368" type="curve" smooth="yes"/>
      <point x="412" y="293" type="line"/>
      <point x="503" y="293" type="line"/>
      <point x="515" y="373" type="line" smooth="yes"/>
      <point x="530" y="474"/>
      <point x="481" y="539"/>
      <point x="389" y="539" type="curve" smooth="yes"/>
    </contour>
    <contour>
      <point x="297" y="264" type="move" name="center"/>
    </contour>
    <contour>
      <point x="259" y="0" type="move" name="bottom"/>
    </contour>
    <contour>
      <point x="363" y="739" type="move" name="top"/>
    </contour>
  </outline>
</glyph>
<glyph name="uni0454" format="1">
  <advance width="476"/>
  <unicode hex="0454"/>
  <outline>
    <contour>
      <point x="127" y="235" type="line"/>
      <point x="364" y="235" type="line"/>
      <point x="374" y="305" type="line"/>
      <point x="137" y="305" type="line"/>
    </contour>
    <contour>
      <point x="124" y="539"/>
      <point x="52" y="341"/>
      <point x="52" y="203" type="curve" smooth="yes"/>
      <point x="52" y="68"/>
      <point x="124" y="-12"/>
      <point x="249" y="-12" type="curve" smooth="yes"/>
      <point x="307" y="-12"/>
      <point x="362" y="6"/>
      <point x="414" y="43" type="curve"/>
      <point x="377" y="107" type="line"/>
      <point x="335" y="81"/>
      <point x="301" y="66"/>
      <point x="255" y="66" type="curve" smooth="yes"/>
      <point x="188" y="66"/>
      <point x="148" y="104"/>
      <point x="148" y="196" type="curve" smooth="yes"/>
      <point x="148" y="305"/>
      <point x="187" y="463"/>
      <point x="320" y="463" type="curve" smooth="yes"/>
      <point x="361" y="463"/>
      <point x="391" y="452"/>
      <point x="423" y="424" type="curve"/>
      <point x="472" y="481" type="line"/>
      <point x="429" y="522"/>
      <point x="378" y="539"/>
      <point x="319" y="539" type="curve" smooth="yes"/>
    </contour>
    <contour>
      <point x="275" y="527" type="move" name="top"/>
    </contour>
    <contour>
      <point x="201" y="0" type="move" name="bottom"/>
    </contour>
  </outline>
</glyph>
<glyph name="uni048E" format="1">
  <advance width="575"/>
  <unicode hex="048E"/>
  <outline>
    <contour>
      <point x="421" y="168" type="line"/>
      <point x="497" y="168" type="line"/>
      <point x="352" y="479" type="line"/>
      <point x="276" y="479" type="line"/>
    </contour>
    <contour>
      <point x="62" y="0" type="line"/>
      <point x="156" y="0" type="line"/>
      <point x="242" y="615" type="line"/>
      <point x="329" y="615" type="line" smooth="yes"/>
      <point x="419" y="615"/>
      <point x="476" y="588"/>
      <point x="476" y="509" type="curve" smooth="yes"/>
      <point x="476" y="390"/>
      <point x="411" y="328"/>
      <point x="282" y="328" type="curve" smooth="yes"/>
      <point x="186" y="328" type="line"/>
      <point x="176" y="253" type="line"/>
      <point x="280" y="253" type="line" smooth="yes"/>
      <point x="457" y="253"/>
      <point x="576" y="342"/>
      <point x="576" y="510" type="curve" smooth="yes"/>
      <point x="576" y="631"/>
      <point x="486" y="689"/>
      <point x="336" y="689" type="curve" smooth="yes"/>
      <point x="159" y="689" type="line"/>
    </contour>
    <contour>
      <point x="348" y="689" type="move" name="top"/>
    </contour>
    <contour>
      <point x="251" y="0" type="move" name="bottom"/>
    </contour>
  </outline>
</glyph>
<glyph name="uni0490" format="1">
  <advance width="503"/>
  <unicode hex="0490"/>
  <outline>
    <contour>
      <point x="553" y="689" type="line"/>
      <point x="571" y="816" type="line"/>
      <point x="480" y="816" type="line"/>
      <point x="460" y="679" type="line"/>
    </contour>
    <component base="uni0413"/>
  </outline>
</glyph>
<glyph name="uni049C" format="1">
  <advance width="600"/>
  <unicode hex="049C"/>
  <outline>
    <contour>
      <point x="156" y="0" type="line"/>
      <point x="201" y="323" type="line"/>
      <point x="318" y="323" type="line"/>
      <point x="450" y="0" type="line"/>
      <point x="548" y="0" type="line"/>
      <point x="398" y="361" type="line"/>
      <point x="499" y="519" type="line" smooth="yes"/>
      <point x="555" y="606"/>
      <point x="577" y="614"/>
      <point x="623" y="628" type="curve"/>
      <point x="596" y="701" type="line"/>
      <point x="524" y="678"/>
      <point x="491" y="666"/>
      <point x="430" y="569" type="curve" smooth="yes"/>
      <point x="324" y="401" type="line"/>
      <point x="212" y="401" type="line"/>
      <point x="253" y="689" type="line"/>
      <point x="159" y="689" type="line"/>
      <point x="62" y="0" type="line"/>
    </contour>
    <contour>
      <point x="267" y="150" type="line"/>
      <point x="326" y="570" type="line"/>
      <point x="272" y="570" type="line"/>
      <point x="213" y="150" type="line"/>
    </contour>
    <contour>
      <point x="351" y="689" type="move" name="top"/>
    </contour>
    <contour>
      <point x="254" y="0" type="move" name="bottom"/>
    </contour>
  </outline>
</glyph>
<glyph name="uni049F" format="1">
  <advance width="544"/>
  <unicode hex="049F"/>
  <outline>
    <contour>
      <point x="158" y="0" type="line"/>
      <point x="192" y="239" type="line"/>
      <point x="259" y="239" type="line"/>
      <point x="364" y="0" type="line"/>
      <point x="467" y="0" type="line"/>
      <point x="339" y="274" type="line"/>
      <point x="385" y="339" type="line" smooth="yes"/>
      <point x="431" y="405"/>
      <point x="462" y="453"/>
      <point x="516" y="470" type="curve"/>
      <point x="487" y="539" type="line"/>
      <point x="406" y="517"/>
      <point x="368" y="457"/>
      <point x="341" y="419" type="curve" smooth="yes"/>
      <point x="265" y="311" type="line"/>
      <point x="202" y="311" type="line"/>
      <point x="263" y="748" type="line"/>
      <point x="170" y="738" type="line"/>
      <point x="66" y="0" type="line"/>
    </contour>
    <contour>
      <point x="146" y="566" type="line"/>
      <point x="379" y="566" type="line"/>
      <point x="398" y="636" type="line"/>
      <point x="77" y="636" type="line"/>
      <point x="67" y="566" type="line"/>
    </contour>
  </outline>
</glyph>
<glyph name="uni04A0" format="1">
  <advance width="704"/>
  <unicode hex="04A0"/>
  <outline>
    <contour>
      <point x="362" y="689" type="line"/>
      <point x="74" y="689" type="line"/>
      <point x="62" y="608" type="line"/>
      <point x="256" y="608" type="line"/>
    </contour>
    <component base="uni041A" xOffset="109"/>
  </outline>
</glyph>
<glyph name="uni04A1" format="1">
  <advance width="592"/>
  <unicode hex="04A1"/>
  <outline>
    <contour>
      <point x="280" y="527" type="line"/>
      <point x="42" y="527" type="line"/>
      <point x="32" y="457" type="line"/>
      <point x="179" y="457" type="line"/>
    </contour>
    <component base="uni043A" xOffset="58"/>
  </outline>
</glyph>
<glyph name="uni04A5" format="1">
  <advance width="673"/>
  <unicode hex="04A5"/>
  <outline>
    <contour>
      <point x="519" y="452" type="line"/>
      <point x="688" y="452" type="line"/>
      <point x="710" y="527" type="line"/>
      <point x="439" y="527" type="line"/>
    </contour>
    <component base="uni043D"/>
  </outline>
</glyph>
<glyph name="uni04B5" format="1">
  <advance width="647"/>
  <unicode hex="04B5"/>
  <outline>
    <contour>
      <point x="18" y="527" type="line"/>
      <point x="8" y="457" type="line"/>
      <point x="176" y="457" type="line"/>
      <point x="267" y="457" type="line"/>
      <point x="394" y="457" type="line"/>
      <point x="416" y="527" type="line"/>
    </contour>
    <contour>
      <point x="334" y="-12"/>
      <point x="386" y="30"/>
      <point x="435" y="97" type="curve"/>
      <point x="428" y="0" type="line"/>
      <point x="506" y="0" type="line"/>
      <point x="580" y="527" type="line"/>
      <point x="489" y="527" type="line"/>
      <point x="441" y="184" type="line"/>
      <point x="400" y="123"/>
      <point x="347" y="60"/>
      <point x="281" y="60" type="curve" smooth="yes"/>
      <point x="235" y="60"/>
      <point x="216" y="85"/>
      <point x="226" y="157" type="curve" smooth="yes"/>
      <point x="278" y="527" type="line"/>
      <point x="187" y="527" type="line"/>
      <point x="134" y="153" type="line" smooth="yes"/>
      <point x="119" y="50"/>
      <point x="168" y="-12"/>
      <point x="261" y="-12" type="curve" smooth="yes"/>
    </contour>
    <component base="descStraightcy" xOffset="467"/>
    <contour>
      <point x="515" y="0" type="move" name="ogonek"/>
    </contour>
    <contour>
      <point x="366" y="527" type="move" name="top"/>
    </contour>
    <contour>
      <point x="590" y="527" type="move" name="topright"/>
    </contour>
    <contour>
      <point x="516" y="0" type="move" name="bottomright"/>
    </contour>
    <contour>
      <point x="312" y="0" type="move" name="bottom"/>
    </contour>
  </outline>
</glyph>
<glyph name="uni04B8" format="1">
  <advance width="607"/>
  <unicode hex="04B8"/>
  <outline>
    <contour>
      <point x="287" y="540" type="line"/>
      <point x="228" y="120" type="line"/>
      <point x="287" y="120" type="line"/>
      <point x="346" y="540" type="line"/>
    </contour>
    <contour>
      <point x="100" y="689" type="line"/>
      <point x="63" y="427" type="line" smooth="yes"/>
      <point x="45" y="300"/>
      <point x="117" y="217"/>
      <point x="237" y="217" type="curve" smooth="yes"/>
      <point x="314" y="217"/>
      <point x="365" y="238"/>
      <point x="438" y="290" type="curve"/>
      <point x="436" y="367" type="line"/>
      <point x="397" y="331"/>
      <point x="343" y="298"/>
      <point x="265" y="298" type="curve" smooth="yes"/>
      <point x="184" y="298"/>
      <point x="144" y="336"/>
      <point x="157" y="428" type="curve" smooth="yes"/>
      <point x="194" y="689" type="line"/>
    </contour>
    <contour>
      <point x="474" y="689" type="line"/>
      <point x="377" y="0" type="line"/>
      <point x="471" y="0" type="line"/>
      <point x="568" y="689" type="line"/>
    </contour>
    <contour>
      <point x="334" y="689" type="move" name="top"/>
    </contour>
    <contour>
      <point x="357" y="0" type="move" name="bottomleft"/>
    </contour>
    <contour>
      <point x="481" y="0" type="move" name="bottomright"/>
    </contour>
    <contour>
      <point x="267" y="0" type="move" name="bottom"/>
    </contour>
  </outline>
</glyph>
<glyph name="uni04B9" format="1">
  <advance width="546"/>
  <unicode hex="04B9"/>
  <outline>
    <contour>
      <point x="233" y="390" type="line"/>
      <point x="191" y="90" type="line"/>
      <point x="246" y="90" type="line"/>
      <point x="288" y="390" type="line"/>
    </contour>
    <contour>
      <point x="398" y="527" type="line"/>
      <point x="369" y="319" type="line"/>
      <point x="333" y="271"/>
      <point x="276" y="234"/>
      <point x="220" y="234" type="curve" smooth="yes"/>
      <point x="166" y="234"/>
      <point x="144" y="265"/>
      <point x="154" y="333" type="curve" smooth="yes"/>
      <point x="182" y="527" type="line"/>
      <point x="91" y="527" type="line"/>
      <point x="62" y="328" type="line" smooth="yes"/>
      <point x="48" y="230"/>
      <point x="94" y="162"/>
      <point x="196" y="162" type="curve" smooth="yes"/>
      <point x="256" y="162"/>
      <point x="310" y="185"/>
      <point x="356" y="230" type="curve"/>
      <point x="324" y="0" type="line"/>
      <point x="415" y="0" type="line"/>
      <point x="489" y="527" type="line"/>
    </contour>
    <contour>
      <point x="290" y="527" type="move" name="top"/>
    </contour>
    <contour>
      <point x="352" y="0" type="move" name="bottomleft"/>
    </contour>
    <contour>
      <point x="425" y="0" type="move" name="bottomright"/>
    </contour>
    <contour>
      <point x="236" y="0" type="move" name="bottom"/>
    </contour>
  </outline>
</glyph>
<glyph name="uni04BB" format="1">
  <advance width="572"/>
  <unicode hex="04BB"/>
  <outline>
    <contour>
      <point x="300" y="479"/>
      <point x="243" y="434"/>
      <point x="199" y="368" type="curve"/>
      <point x="253" y="748" type="line"/>
      <point x="161" y="738" type="line"/>
      <point x="57" y="0" type="line"/>
      <point x="148" y="0" type="line"/>
      <point x="183" y="256" type="line"/>
      <point x="225" y="331"/>
      <point x="284" y="402"/>
      <point x="354" y="402" type="curve" smooth="yes"/>
      <point x="392" y="402"/>
      <point x="418" y="382"/>
      <point x="407" y="308" type="curve" smooth="yes"/>
      <point x="363" y="0" type="line"/>
      <point x="454" y="0" type="line"/>
      <point x="499" y="313" type="line" smooth="yes"/>
      <point x="514" y="415"/>
      <point x="465" y="479"/>
      <point x="373" y="479" type="curve" smooth="yes"/>
    </contour>
    <contour>
      <point x="356" y="739" type="move" name="top"/>
    </contour>
    <contour>
      <point x="256" y="0" type="move" name="bottom"/>
    </contour>
    <contour>
      <point x="464" y="0" type="move" name="bottomright"/>
    </contour>
  </outline>
</glyph>
<glyph name="uni04E8" format="1">
  <advance width="686"/>
  <unicode hex="04E8"/>
  <outline>
    <contour>
      <point x="143" y="386" type="line"/>
      <point x="132" y="316" type="line"/>
      <point x="570" y="316" type="line"/>
      <point x="580" y="386" type="line"/>
    </contour>
    <contour>
      <point x="147" y="701"/>
      <point x="61" y="441"/>
      <point x="61" y="265" type="curve" smooth="yes"/>
      <point x="61" y="85"/>
      <point x="158" y="-12"/>
      <point x="308" y="-12" type="curve" smooth="yes"/>
      <point x="562" y="-12"/>
      <point x="648" y="239"/>
      <point x="648" y="421" type="curve" smooth="yes"/>
      <point x="648" y="603"/>
      <point x="552" y="701"/>
      <point x="402" y="701" type="curve" smooth="yes"/>
    </contour>
    <contour>
      <point x="497" y="623"/>
      <point x="553" y="566"/>
      <point x="553" y="428" type="curve" smooth="yes"/>
      <point x="553" y="288"/>
      <point x="503" y="66"/>
      <point x="311" y="66" type="curve" smooth="yes"/>
      <point x="216" y="66"/>
      <point x="156" y="120"/>
      <point x="156" y="262" type="curve" smooth="yes"/>
      <point x="156" y="403"/>
      <point x="208" y="623"/>
      <point x="398" y="623" type="curve" smooth="yes"/>
    </contour>
    <contour>
      <point x="403" y="689" type="move" name="top"/>
    </contour>
    <contour>
      <point x="305" y="0" type="move" name="bottom"/>
    </contour>
  </outline>
</glyph>
<glyph name="uni04FE" format="1">
  <advance width="534"/>
  <unicode hex="04FE"/>
  <outline>
    <contour>
      <point x="463" y="689" type="line"/>
      <point x="285" y="420" type="line"/>
      <point x="225" y="367" type="line"/>
      <point x="-33" y="0" type="line"/>
      <point x="72" y="0" type="line"/>
      <point x="275" y="314" type="line"/>
      <point x="335" y="371" type="line"/>
      <point x="567" y="689" type="line"/>
    </contour>
    <contour>
      <point x="83" y="689" type="line"/>
      <point x="225" y="367" type="line"/>
      <point x="275" y="314" type="line"/>
      <point x="389" y="0" type="line"/>
      <point x="492" y="0" type="line"/>
      <point x="335" y="371" type="line"/>
      <point x="285" y="420" type="line"/>
      <point x="186" y="689" type="line"/>
    </contour>
    <contour>
      <point x="483" y="333" type="line"/>
      <point x="494" y="403" type="line"/>
      <point x="73" y="403" type="line"/>
      <point x="62" y="333" type="line"/>
    </contour>
    <contour>
      <point x="327" y="689" type="move" name="top"/>
    </contour>
    <contour>
      <point x="230" y="0" type="move" name="bottom"/>
    </contour>
    <contour>
      <point x="454" y="0" type="move" name="bottomright"/>
    </contour>
  </outline>
</glyph>
<glyph name="uni04FF" format="1">
  <advance width="480"/>
  <unicode hex="04FF"/>
  <outline>
    <contour>
      <point x="72" y="0" type="line"/>
      <point x="237" y="232" type="line"/>
      <point x="297" y="275" type="line"/>
      <point x="493" y="527" type="line"/>
      <point x="388" y="527" type="line"/>
      <point x="248" y="324" type="line"/>
      <point x="189" y="283" type="line"/>
      <point x="-32" y="0" type="line"/>
    </contour>
    <contour>
      <point x="438" y="0" type="line"/>
      <point x="297" y="275" type="line"/>
      <point x="248" y="324" type="line"/>
      <point x="166" y="527" type="line"/>
      <point x="64" y="527" type="line"/>
      <point x="189" y="283" type="line"/>
      <point x="237" y="232" type="line"/>
      <point x="335" y="0" type="line"/>
    </contour>
    <contour>
      <point x="416" y="242" type="line"/>
      <point x="426" y="308" type="line"/>
      <point x="61" y="308" type="line"/>
      <point x="51" y="242" type="line"/>
    </contour>
    <contour>
      <point x="277" y="527" type="move" name="top"/>
    </contour>
    <contour>
      <point x="203" y="0" type="move" name="bottom"/>
    </contour>
    <contour>
      <point x="395" y="0" type="move" name="bottomright"/>
    </contour>
  </outline>
</glyph>
<glyph name="uni0503" format="1">
  <advance width="862"/>
  <unicode hex="0503"/>
  <outline>
    <contour>
      <point x="286" y="-12"/>
      <point x="360" y="26"/>
      <point x="409" y="128" type="curve"/>
      <point x="394" y="191" type="line"/>
      <point x="344" y="102"/>
      <point x="301" y="61"/>
      <point x="236" y="61" type="curve" smooth="yes"/>
      <point x="181" y="61"/>
      <point x="148" y="101"/>
      <point x="148" y="190" type="curve" smooth="yes"/>
      <point x="148" y="295"/>
      <point x="185" y="466"/>
      <point x="313" y="466" type="curve" smooth="yes"/>
      <point x="362" y="466"/>
      <point x="395" y="443"/>
      <point x="422" y="402" type="curve"/>
      <point x="383" y="131" type="line"/>
      <point x="394" y="34"/>
      <point x="463" y="-12"/>
      <point x="553" y="-12" type="curve" smooth="yes"/>
      <point x="718" y="-12"/>
      <point x="804" y="127"/>
      <point x="820" y="379" type="curve"/>
      <point x="731" y="379" type="line"/>
      <point x="718" y="198"/>
      <point x="675" y="62"/>
      <point x="557" y="62" type="curve" smooth="yes"/>
      <point x="484" y="62"/>
      <point x="472" y="109"/>
      <point x="480" y="168" type="curve" smooth="yes"/>
      <point x="560" y="738" type="line"/>
      <point x="470" y="748" type="line"/>
      <point x="431" y="473" type="line"/>
      <point x="402" y="510"/>
      <point x="358" y="539"/>
      <point x="296" y="539" type="curve" smooth="yes"/>
      <point x="116" y="539"/>
      <point x="51" y="333"/>
      <point x="51" y="197" type="curve" smooth="yes"/>
      <point x="51" y="70"/>
      <point x="109" y="-12"/>
      <point x="218" y="-12" type="curve" smooth="yes"/>
    </contour>
    <contour>
      <point x="495" y="739" type="move" name="top"/>
    </contour>
    <contour>
      <point x="391" y="0" type="move" name="bottom"/>
    </contour>
  </outline>
</glyph>
<glyph name="uni0505" format="1">
  <advance width="677"/>
  <unicode hex="0505"/>
  <outline>
    <contour>
      <point x="534" y="-12"/>
      <point x="619" y="127"/>
      <point x="635" y="379" type="curve"/>
      <point x="546" y="379" type="line"/>
      <point x="533" y="198"/>
      <point x="490" y="62"/>
      <point x="389" y="62" type="curve" smooth="yes"/>
      <point x="353" y="62"/>
      <point x="327" y="73"/>
      <point x="299" y="130" type="curve" smooth="yes"/>
      <point x="246" y="238" type="line"/>
      <point x="160" y="225" type="line"/>
      <point x="221" y="103" type="line" smooth="yes"/>
      <point x="262" y="21"/>
      <point x="312" y="-12"/>
      <point x="385" y="-12" type="curve" smooth="yes"/>
    </contour>
    <contour>
      <point x="180" y="202" type="line"/>
      <point x="307" y="221"/>
      <point x="391" y="277"/>
      <point x="391" y="383" type="curve" smooth="yes"/>
      <point x="391" y="481"/>
      <point x="319" y="527"/>
      <point x="192" y="527" type="curve" smooth="yes"/>
      <point x="72" y="527" type="line"/>
      <point x="62" y="457" type="line"/>
      <point x="185" y="457" type="line" smooth="yes"/>
      <point x="263" y="457"/>
      <point x="295" y="438"/>
      <point x="295" y="383" type="curve" smooth="yes"/>
      <point x="295" y="317"/>
      <point x="248" y="272"/>
      <point x="168" y="272" type="curve" smooth="yes"/>
      <point x="75" y="272" type="line"/>
      <point x="65" y="202" type="line"/>
    </contour>
    <contour>
      <point x="373" y="527" type="move" name="top"/>
    </contour>
    <contour>
      <point x="299" y="0" type="move" name="bottom"/>
    </contour>
  </outline>
</glyph>
<glyph name="uni0506" format="1">
  <advance width="477"/>
  <unicode hex="0506"/>
  <outline>
    <contour>
      <point x="100" y="689" type="line"/>
      <point x="90" y="615" type="line"/>
      <point x="222" y="615" type="line" smooth="yes"/>
      <point x="320" y="615"/>
      <point x="364" y="588"/>
      <point x="364" y="517" type="curve" smooth="yes"/>
      <point x="364" y="449"/>
      <point x="329" y="365"/>
      <point x="199" y="365" type="curve" smooth="yes"/>
      <point x="93" y="365" type="line"/>
      <point x="83" y="292" type="line"/>
      <point x="203" y="292" type="line"/>
      <point x="400" y="307"/>
      <point x="463" y="418"/>
      <point x="463" y="518" type="curve" smooth="yes"/>
      <point x="463" y="632"/>
      <point x="385" y="689"/>
      <point x="227" y="689" type="curve" smooth="yes"/>
    </contour>
    <contour>
      <point x="201" y="306" type="line"/>
      <point x="334" y="0" type="line"/>
      <point x="438" y="0" type="line"/>
      <point x="294" y="317" type="line"/>
    </contour>
    <component base="descStraightcy.case" xOffset="347"/>
    <contour>
      <point x="294" y="689" type="move" name="top"/>
    </contour>
  </outline>
</glyph>
<glyph name="uni0507" format="1">
  <advance width="445"/>
  <unicode hex="0507"/>
  <outline>
    <contour>
      <point x="160" y="225" type="line"/>
      <point x="269" y="0" type="line"/>
      <point x="370" y="0" type="line"/>
      <point x="246" y="238" type="line"/>
    </contour>
    <contour>
      <point x="180" y="202" type="line"/>
      <point x="306" y="220"/>
      <point x="390" y="276"/>
      <point x="390" y="383" type="curve" smooth="yes"/>
      <point x="390" y="481"/>
      <point x="319" y="527"/>
      <point x="192" y="527" type="curve" smooth="yes"/>
      <point x="72" y="527" type="line"/>
      <point x="62" y="457" type="line"/>
      <point x="185" y="457" type="line" smooth="yes"/>
      <point x="263" y="457"/>
      <point x="295" y="438"/>
      <point x="295" y="383" type="curve" smooth="yes"/>
      <point x="295" y="317"/>
      <point x="248" y="272"/>
      <point x="167" y="272" type="curve" smooth="yes"/>
      <point x="74" y="272" type="line"/>
      <point x="64" y="202" type="line"/>
    </contour>
    <component base="descStraightcy" xOffset="280"/>
    <contour>
      <point x="257" y="527" type="move" name="top"/>
    </contour>
  </outline>
</glyph>
<glyph name="uni0508" format="1">
  <advance width="924"/>
  <unicode hex="0508"/>
  <outline>
    <contour>
      <point x="781" y="-12"/>
      <point x="866" y="127"/>
      <point x="882" y="379" type="curve"/>
      <point x="793" y="379" type="line"/>
      <point x="780" y="198"/>
      <point x="737" y="62"/>
      <point x="619" y="62" type="curve" smooth="yes"/>
      <point x="546" y="62"/>
      <point x="534" y="109"/>
      <point x="542" y="168" type="curve" smooth="yes"/>
      <point x="615" y="689" type="line"/>
      <point x="226" y="689" type="line"/>
      <point x="281" y="609" type="line"/>
      <point x="510" y="609" type="line"/>
      <point x="450" y="175" type="line" smooth="yes"/>
      <point x="434" y="62"/>
      <point x="495" y="-12"/>
      <point x="612" y="-12" type="curve" smooth="yes"/>
    </contour>
    <contour>
      <point x="122" y="16"/>
      <point x="158" y="67"/>
      <point x="244" y="402" type="curve" smooth="yes"/>
      <point x="297" y="609" type="line"/>
      <point x="226" y="689" type="line"/>
      <point x="149" y="399" type="line" smooth="yes"/>
      <point x="72" y="107"/>
      <point x="56" y="89"/>
      <point x="-12" y="65" type="curve"/>
      <point x="2" y="-14" type="line"/>
    </contour>
    <contour>
      <point x="520" y="689" type="move" name="top"/>
    </contour>
    <contour>
      <point x="423" y="0" type="move" name="bottom"/>
    </contour>
  </outline>
</glyph>
<glyph name="uni0514" format="1">
  <advance width="827"/>
  <unicode hex="0514"/>
  <outline>
    <contour>
      <point x="226" y="689" type="line"/>
      <point x="283" y="611" type="line"/>
      <point x="476" y="611" type="line"/>
      <point x="476" y="689" type="line"/>
    </contour>
    <contour>
      <point x="226" y="689" type="line"/>
      <point x="149" y="399" type="line" smooth="yes"/>
      <point x="72" y="107"/>
      <point x="56" y="89"/>
      <point x="-12" y="65" type="curve"/>
      <point x="2" y="-14" type="line"/>
      <point x="122" y="16"/>
      <point x="159" y="68"/>
      <point x="244" y="402" type="curve" smooth="yes"/>
      <point x="299" y="618" type="line"/>
    </contour>
    <component base="X" xOffset="293"/>
    <contour>
      <point x="475" y="689" type="move" name="top"/>
    </contour>
    <contour>
      <point x="378" y="0" type="move" name="bottom"/>
    </contour>
  </outline>
</glyph>
<glyph name="uni0516" format="1">
  <advance width="768"/>
  <unicode hex="0516"/>
  <outline>
    <contour>
      <point x="156" y="0" type="line"/>
      <point x="242" y="615" type="line"/>
      <point x="319" y="615" type="line" smooth="yes"/>
      <point x="409" y="615"/>
      <point x="466" y="588"/>
      <point x="466" y="507" type="curve" smooth="yes"/>
      <point x="466" y="418"/>
      <point x="428" y="328"/>
      <point x="272" y="328" type="curve" smooth="yes"/>
      <point x="186" y="328" type="line"/>
      <point x="176" y="253" type="line"/>
      <point x="260" y="253" type="line" smooth="yes"/>
      <point x="480" y="253"/>
      <point x="553" y="399"/>
      <point x="553" y="507" type="curve" smooth="yes"/>
      <point x="553" y="631"/>
      <point x="466" y="689"/>
      <point x="316" y="689" type="curve" smooth="yes"/>
      <point x="159" y="689" type="line"/>
      <point x="62" y="0" type="line"/>
    </contour>
    <contour>
      <point x="703" y="0" type="line"/>
      <point x="553" y="345" type="line"/>
      <point x="674" y="518" type="line" smooth="yes"/>
      <point x="721" y="586"/>
      <point x="764" y="620"/>
      <point x="809" y="629" type="curve"/>
      <point x="782" y="701" type="line"/>
      <point x="741" y="690"/>
      <point x="675" y="667"/>
      <point x="620" y="579" type="curve" smooth="yes"/>
      <point x="482" y="360" type="line"/>
      <point x="467" y="336" type="line"/>
      <point x="605" y="0" type="line"/>
    </contour>
    <contour>
      <point x="444" y="689" type="move" name="top"/>
    </contour>
    <contour>
      <point x="347" y="0" type="move" name="bottom"/>
    </contour>
  </outline>
</glyph>
<glyph name="uni0517" format="1">
  <advance width="814"/>
  <unicode hex="0517"/>
  <outline>
    <contour>
      <point x="516" y="239" type="line"/>
      <point x="637" y="0" type="line"/>
      <point x="737" y="0" type="line"/>
      <point x="596" y="274" type="line"/>
      <point x="664" y="364" type="line" smooth="yes"/>
      <point x="711" y="426"/>
      <point x="735" y="450"/>
      <point x="787" y="470" type="curve"/>
      <point x="758" y="539" type="line"/>
      <point x="691" y="518"/>
      <point x="658" y="494"/>
      <point x="602" y="419" type="curve" smooth="yes"/>
      <point x="522" y="311" type="line"/>
    </contour>
    <component base="p"/>
    <contour>
      <point x="444" y="527" type="move" name="top"/>
    </contour>
  </outline>
</glyph>
<glyph name="uni0518" format="1">
  <advance width="843"/>
  <unicode hex="0518"/>
  <outline>
    <contour>
      <point x="276" y="287" type="line"/>
      <point x="189" y="308" type="line"/>
      <point x="-2" y="0" type="line"/>
      <point x="103" y="0" type="line"/>
    </contour>
    <contour>
      <point x="241" y="273" type="line"/>
      <point x="429" y="271" type="line"/>
      <point x="440" y="346" type="line"/>
      <point x="298" y="346" type="line" smooth="yes"/>
      <point x="226" y="346"/>
      <point x="180" y="381"/>
      <point x="180" y="452" type="curve" smooth="yes"/>
      <point x="180" y="531"/>
      <point x="220" y="615"/>
      <point x="368" y="615" type="curve" smooth="yes"/>
      <point x="462" y="615" type="line"/>
      <point x="376" y="0" type="line"/>
      <point x="470" y="0" type="line"/>
      <point x="567" y="689" type="line"/>
      <point x="373" y="689" type="line" smooth="yes"/>
      <point x="149" y="689"/>
      <point x="81" y="559"/>
      <point x="81" y="453" type="curve" smooth="yes"/>
      <point x="81" y="378"/>
      <point x="119" y="316"/>
      <point x="193" y="289" type="curve"/>
    </contour>
    <contour>
      <point x="821" y="613" type="line"/>
      <point x="842" y="689" type="line"/>
      <point x="473" y="689" type="line"/>
      <point x="556" y="613" type="line"/>
    </contour>
    <contour>
      <point x="744" y="312" type="line"/>
      <point x="754" y="388" type="line"/>
      <point x="514" y="388" type="line"/>
      <point x="504" y="312" type="line"/>
    </contour>
    <contour>
      <point x="376" y="0" type="line"/>
      <point x="753" y="0" type="line"/>
      <point x="764" y="76" type="line"/>
      <point x="481" y="76" type="line"/>
    </contour>
    <contour>
      <point x="486" y="689" type="move" name="top"/>
    </contour>
    <contour>
      <point x="389" y="0" type="move" name="bottom"/>
    </contour>
  </outline>
</glyph>
<glyph name="uni051E" format="1">
  <advance width="599"/>
  <unicode hex="051E"/>
  <outline>
    <contour>
      <point x="594" y="436" type="line"/>
      <point x="630" y="498" type="line"/>
      <point x="337" y="648" type="line"/>
      <point x="301" y="584" type="line"/>
    </contour>
    <component base="uni041A"/>
  </outline>
</glyph>
<glyph name="uni051F" format="1">
  <advance width="534"/>
  <unicode hex="051F"/>
  <outline>
    <contour>
      <point x="468" y="301" type="line"/>
      <point x="504" y="357" type="line"/>
      <point x="273" y="487" type="line"/>
      <point x="237" y="431" type="line"/>
    </contour>
    <contour>
      <point x="413" y="518"/>
      <point x="389" y="495"/>
      <point x="334" y="419" type="curve" smooth="yes"/>
      <point x="256" y="311" type="line"/>
      <point x="192" y="311" type="line"/>
      <point x="222" y="527" type="line"/>
      <point x="131" y="527" type="line"/>
      <point x="57" y="0" type="line"/>
      <point x="148" y="0" type="line"/>
      <point x="182" y="239" type="line"/>
      <point x="250" y="239" type="line"/>
      <point x="357" y="0" type="line"/>
      <point x="457" y="0" type="line"/>
      <point x="330" y="274" type="line"/>
      <point x="394" y="364" type="line" smooth="yes"/>
      <point x="439" y="428"/>
      <point x="455" y="450"/>
      <point x="507" y="470" type="curve"/>
      <point x="478" y="539" type="line"/>
    </contour>
    <contour>
      <point x="304" y="527" type="move" name="top"/>
    </contour>
    <contour>
      <point x="230" y="0" type="move" name="bottom"/>
    </contour>
    <contour>
      <point x="423" y="0" type="move" name="bottomright"/>
    </contour>
  </outline>
</glyph>
<glyph name="uni0521" format="1">
  <advance width="829"/>
  <unicode hex="0521"/>
  <outline>
    <contour>
      <point x="742" y="0" type="line"/>
      <point x="768" y="185" type="line" smooth="yes"/>
      <point x="783" y="295"/>
      <point x="734" y="349"/>
      <point x="635" y="349" type="curve" smooth="yes"/>
      <point x="562" y="349"/>
      <point x="498" y="307"/>
      <point x="453" y="244" type="curve"/>
      <point x="464" y="182" type="line"/>
      <point x="505" y="238"/>
      <point x="551" y="277"/>
      <point x="612" y="277" type="curve" smooth="yes"/>
      <point x="660" y="277"/>
      <point x="687" y="257"/>
      <point x="676" y="178" type="curve" smooth="yes"/>
      <point x="651" y="0" type="line"/>
    </contour>
    <component base="uni043B"/>
    <component base="hookHELPER" xOffset="484"/>
    <contour>
      <point x="449" y="527" type="move" name="top"/>
    </contour>
  </outline>
</glyph>
<glyph name="uni0522" format="1">
  <advance width="981"/>
  <unicode hex="0522"/>
  <outline>
    <contour>
      <point x="683" y="452"/>
      <point x="626" y="423"/>
      <point x="579" y="374" type="curve"/>
      <point x="569" y="282" type="line"/>
      <point x="614" y="336"/>
      <point x="666" y="371"/>
      <point x="742" y="371" type="curve" smooth="yes"/>
      <point x="827" y="371"/>
      <point x="861" y="326"/>
      <point x="849" y="237" type="curve" smooth="yes"/>
      <point x="816" y="0" type="line"/>
      <point x="910" y="0" type="line"/>
      <point x="943" y="232" type="line" smooth="yes"/>
      <point x="962" y="368"/>
      <point x="891" y="452"/>
      <point x="764" y="452" type="curve" smooth="yes"/>
    </contour>
    <component base="H"/>
    <component base="hookHELPER.case" xOffset="652"/>
    <contour>
      <point x="551" y="689" type="move" name="top"/>
    </contour>
  </outline>
</glyph>
<glyph name="uni0523" format="1">
  <advance width="842"/>
  <unicode hex="0523"/>
  <outline>
    <contour>
      <point x="751" y="-10" type="line"/>
      <point x="779" y="185" type="line" smooth="yes"/>
      <point x="795" y="295"/>
      <point x="745" y="349"/>
      <point x="647" y="349" type="curve" smooth="yes"/>
      <point x="573" y="349"/>
      <point x="509" y="307"/>
      <point x="465" y="244" type="curve"/>
      <point x="475" y="182" type="line"/>
      <point x="516" y="238"/>
      <point x="563" y="277"/>
      <point x="623" y="277" type="curve" smooth="yes"/>
      <point x="672" y="277"/>
      <point x="698" y="257"/>
      <point x="687" y="178" type="curve" smooth="yes"/>
      <point x="661" y="-9" type="line"/>
    </contour>
    <component base="uni043D"/>
    <component base="hookHELPER" xOffset="497"/>
    <contour>
      <point x="457" y="527" type="move" name="top"/>
    </contour>
  </outline>
</glyph>
<glyph name="uni052B" format="1">
  <advance width="932"/>
  <unicode hex="052B"/>
  <outline>
    <contour>
      <point x="412" y="0" type="line"/>
      <point x="486" y="527" type="line"/>
      <point x="231" y="527" type="line"/>
      <point x="190" y="334" type="line" smooth="yes"/>
      <point x="146" y="128"/>
      <point x="113" y="100"/>
      <point x="71" y="74" type="curve"/>
      <point x="144" y="66" type="line"/>
      <point x="217" y="111"/>
      <point x="238" y="147"/>
      <point x="279" y="340" type="curve" smooth="yes"/>
      <point x="303" y="454" type="line"/>
      <point x="385" y="454" type="line"/>
      <point x="331" y="74" type="line"/>
      <point x="72" y="74" type="line"/>
      <point x="62" y="0" type="line"/>
    </contour>
    <contour>
      <point x="533" y="0" type="line"/>
      <point x="543" y="74" type="line"/>
      <point x="428" y="74" type="line"/>
      <point x="418" y="0" type="line"/>
    </contour>
    <contour>
      <point x="596" y="243" type="line"/>
      <point x="606" y="315" type="line"/>
      <point x="392" y="315" type="line"/>
      <point x="382" y="243" type="line"/>
    </contour>
    <contour>
      <point x="815" y="518"/>
      <point x="785" y="501"/>
      <point x="735" y="419" type="curve" smooth="yes"/>
      <point x="672" y="315" type="line"/>
      <point x="630" y="315" type="line"/>
      <point x="660" y="527" type="line"/>
      <point x="569" y="527" type="line"/>
      <point x="495" y="0" type="line"/>
      <point x="586" y="0" type="line"/>
      <point x="620" y="243" type="line"/>
      <point x="662" y="243" type="line"/>
      <point x="761" y="0" type="line"/>
      <point x="855" y="0" type="line"/>
      <point x="738" y="274" type="line"/>
      <point x="792" y="364" type="line" smooth="yes"/>
      <point x="832" y="431"/>
      <point x="853" y="450"/>
      <point x="905" y="470" type="curve"/>
      <point x="881" y="539" type="line"/>
    </contour>
    <component base="descStraightleftcy" xOffset="-2"/>
    <component base="descStraightcy" xOffset="384"/>
    <contour>
      <point x="494" y="527" type="move" name="top"/>
    </contour>
  </outline>
</glyph>
<glyph name="uni052C" format="1">
  <advance width="678"/>
  <unicode hex="052C"/>
  <outline>
    <contour>
      <point x="534" y="0" type="line"/>
      <point x="631" y="689" type="line"/>
      <point x="312" y="689" type="line"/>
      <point x="260" y="492" type="line" smooth="yes"/>
      <point x="195" y="243"/>
      <point x="120" y="128"/>
      <point x="68" y="78" type="curve"/>
      <point x="60" y="0" type="line"/>
    </contour>
    <contour>
      <point x="228" y="135"/>
      <point x="287" y="221"/>
      <point x="352" y="482" type="curve" smooth="yes"/>
      <point x="384" y="611" type="line"/>
      <point x="526" y="611" type="line"/>
      <point x="451" y="78" type="line"/>
      <point x="165" y="78" type="line"/>
    </contour>
    <contour>
      <point x="516" y="407" type="line"/>
      <point x="321" y="407" type="line" smooth="yes"/>
      <point x="229" y="407"/>
      <point x="181" y="433"/>
      <point x="195" y="535" type="curve" smooth="yes"/>
      <point x="217" y="689" type="line"/>
      <point x="123" y="689" type="line"/>
      <point x="103" y="535" type="line" smooth="yes"/>
      <point x="83" y="388"/>
      <point x="171" y="331"/>
      <point x="310" y="331" type="curve"/>
      <point x="505" y="331" type="line"/>
    </contour>
    <component base="descStraightcy.case" xOffset="478"/>
    <component base="descStraightleftcy.case" xOffset="-18"/>
    <contour>
      <point x="399" y="689" type="move" name="top"/>
    </contour>
  </outline>
</glyph>
<glyph name="uni052D" format="1">
  <advance width="616"/>
  <unicode hex="052D"/>
  <outline>
    <contour>
      <point x="124" y="66" type="line"/>
      <point x="170" y="85"/>
      <point x="250" y="148"/>
      <point x="291" y="340" type="curve" smooth="yes"/>
      <point x="315" y="454" type="line"/>
      <point x="450" y="454" type="line"/>
      <point x="396" y="74" type="line"/>
      <point x="40" y="74" type="line"/>
      <point x="40" y="0" type="line"/>
      <point x="477" y="0" type="line"/>
      <point x="551" y="527" type="line"/>
      <point x="243" y="527" type="line"/>
      <point x="202" y="334" type="line" smooth="yes"/>
      <point x="163" y="151"/>
      <point x="85" y="99"/>
      <point x="43" y="73" type="curve"/>
    </contour>
    <contour>
      <point x="462" y="325" type="line"/>
      <point x="275" y="325" type="line"/>
      <point x="197" y="325"/>
      <point x="151" y="342"/>
      <point x="161" y="427" type="curve" smooth="yes"/>
      <point x="173" y="527" type="line"/>
      <point x="84" y="527" type="line"/>
      <point x="73" y="429" type="line" smooth="yes"/>
      <point x="59" y="303"/>
      <point x="127" y="252"/>
      <point x="261" y="252" type="curve"/>
      <point x="451" y="252" type="line"/>
    </contour>
    <component base="descStraightcy" xOffset="411"/>
    <component base="descStraightleftcy" xOffset="-28"/>
    <contour>
      <point x="334" y="527" type="move" name="top"/>
    </contour>
  </outline>
</glyph>
<glyph name="uni0E3F" format="1">
  <advance width="589"/>
  <unicode hex="0E3F"/>
  <outline>
    <contour>
      <point x="207" y="9" type="line"/>
      <point x="184" y="-155" type="line"/>
      <point x="263" y="-155" type="line"/>
      <point x="285" y="2" type="line"/>
    </contour>
    <contour>
      <point x="322" y="824" type="line"/>
      <point x="299" y="662" type="line"/>
      <point x="378" y="664" type="line"/>
      <point x="401" y="824" type="line"/>
    </contour>
    <contour>
      <point x="156" y="669" type="line"/>
      <point x="62" y="0" type="line"/>
      <point x="246" y="0" type="line" smooth="yes"/>
      <point x="466" y="0"/>
      <point x="536" y="96"/>
      <point x="536" y="213" type="curve" smooth="yes"/>
      <point x="536" y="307"/>
      <point x="470" y="340"/>
      <point x="401" y="353" type="curve"/>
      <point x="480" y="370"/>
      <point x="550" y="425"/>
      <point x="550" y="519" type="curve" smooth="yes"/>
      <point x="550" y="622"/>
      <point x="462" y="669"/>
      <point x="341" y="669" type="curve" smooth="yes"/>
    </contour>
    <contour>
      <point x="404" y="597"/>
      <point x="457" y="581"/>
      <point x="457" y="516" type="curve" smooth="yes"/>
      <point x="457" y="424"/>
      <point x="386" y="385"/>
      <point x="306" y="385" type="curve" smooth="yes"/>
      <point x="193" y="385" type="line"/>
      <point x="183" y="314" type="line"/>
      <point x="309" y="314" type="line" smooth="yes"/>
      <point x="381" y="314"/>
      <point x="440" y="292"/>
      <point x="440" y="215" type="curve" smooth="yes"/>
      <point x="440" y="135"/>
      <point x="401" y="74"/>
      <point x="250" y="74" type="curve" smooth="yes"/>
      <point x="164" y="74" type="line"/>
      <point x="237" y="597" type="line"/>
      <point x="343" y="597" type="line" smooth="yes"/>
    </contour>
  </outline>
</glyph>
<glyph name="uni1D4A" format="1">
  <advance width="329"/>
  <unicode hex="1D4A"/>
  <outline>
    <contour>
      <point x="173" y="673"/>
      <point x="138" y="662"/>
      <point x="106" y="643" type="curve"/>
      <point x="132" y="598" type="line"/>
      <point x="154" y="608"/>
      <point x="179" y="617"/>
      <point x="210" y="617" type="curve" smooth="yes"/>
      <point x="244" y="617"/>
      <point x="266" y="607"/>
      <point x="266" y="558" type="curve" smooth="yes"/>
      <point x="266" y="509"/>
      <point x="248" y="448"/>
      <point x="183" y="448" type="curve" smooth="yes"/>
      <point x="150" y="448"/>
      <point x="133" y="461"/>
      <point x="133" y="493" type="curve" smooth="yes"/>
      <point x="133" y="499"/>
      <point x="134" y="504"/>
      <point x="135" y="509" type="curve"/>
      <point x="268" y="509" type="line"/>
      <point x="273" y="559" type="line"/>
      <point x="74" y="559" type="line"/>
      <point x="69" y="542"/>
      <point x="66" y="522"/>
      <point x="66" y="496" type="curve" smooth="yes"/>
      <point x="66" y="433"/>
      <point x="112" y="391"/>
      <point x="183" y="391" type="curve" smooth="yes"/>
      <point x="278" y="391"/>
      <point x="337" y="461"/>
      <point x="337" y="558" type="curve" smooth="yes"/>
      <point x="337" y="632"/>
      <point x="293" y="673"/>
      <point x="216" y="673" type="curve" smooth="yes"/>
    </contour>
  </outline>
</glyph>
<glyph name="uni1D6D" format="1">
  <advance width="688"/>
  <unicode hex="1D6D"/>
  <outline>
    <contour>
      <point x="646" y="563"/>
      <point x="692" y="611"/>
      <point x="719" y="652" type="curve"/>
      <point x="670" y="686" type="line"/>
      <point x="647" y="660"/>
      <point x="618" y="636"/>
      <point x="583" y="636" type="curve" smooth="yes"/>
      <point x="533" y="636"/>
      <point x="508" y="697"/>
      <point x="439" y="697" type="curve" smooth="yes"/>
      <point x="366" y="697"/>
      <point x="318" y="643"/>
      <point x="292" y="602" type="curve"/>
      <point x="342" y="569" type="line"/>
      <point x="365" y="595"/>
      <point x="393" y="625"/>
      <point x="431" y="625" type="curve" smooth="yes"/>
      <point x="478" y="625"/>
      <point x="503" y="563"/>
      <point x="575" y="563" type="curve" smooth="yes"/>
    </contour>
    <component base="d"/>
  </outline>
</glyph>
<glyph name="uni1D74" format="1">
  <advance width="472"/>
  <unicode hex="1D74"/>
  <outline>
    <contour>
      <point x="105" y="232"/>
      <point x="125" y="260"/>
      <point x="171" y="260" type="curve"/>
      <point x="177" y="322" type="line"/>
      <point x="92" y="332"/>
      <point x="51" y="276"/>
      <point x="30" y="235" type="curve"/>
      <point x="89" y="206" type="line"/>
    </contour>
    <contour>
      <point x="397" y="218"/>
      <point x="437" y="268"/>
      <point x="458" y="309" type="curve"/>
      <point x="399" y="339" type="line"/>
      <point x="381" y="313"/>
      <point x="363" y="291"/>
      <point x="320" y="291" type="curve"/>
      <point x="314" y="228" type="line"/>
    </contour>
    <component base="s" xOffset="4"/>
  </outline>
</glyph>
<glyph name="uni1DBF" format="1">
  <advance width="334"/>
  <unicode hex="1DBF"/>
  <outline>
    <contour>
      <point x="129" y="779"/>
      <point x="73" y="660"/>
      <point x="73" y="527" type="curve" smooth="yes"/>
      <point x="73" y="442"/>
      <point x="109" y="391"/>
      <point x="187" y="391" type="curve" smooth="yes"/>
      <point x="296" y="391"/>
      <point x="352" y="505"/>
      <point x="352" y="642" type="curve" smooth="yes"/>
      <point x="352" y="723"/>
      <point x="317" y="779"/>
      <point x="236" y="779" type="curve" smooth="yes"/>
    </contour>
    <contour>
      <point x="268" y="721"/>
      <point x="283" y="705"/>
      <point x="283" y="642" type="curve" smooth="yes"/>
      <point x="283" y="568"/>
      <point x="261" y="449"/>
      <point x="188" y="449" type="curve" smooth="yes"/>
      <point x="157" y="449"/>
      <point x="142" y="470"/>
      <point x="142" y="527" type="curve" smooth="yes"/>
      <point x="142" y="607"/>
      <point x="163" y="721"/>
      <point x="235" y="721" type="curve" smooth="yes"/>
    </contour>
    <contour>
      <point x="285" y="608" type="line"/>
      <point x="144" y="608" type="line"/>
      <point x="138" y="562" type="line"/>
      <point x="280" y="562" type="line"/>
    </contour>
  </outline>
</glyph>
<glyph name="uni1DC7" format="1">
  <advance width="407"/>
  <unicode hex="1DC7"/>
  <outline>
    <contour>
      <point x="288" y="685" type="line"/>
      <point x="243" y="746" type="line"/>
      <point x="82" y="635" type="line"/>
      <point x="112" y="589" type="line"/>
    </contour>
    <contour>
      <point x="435" y="677" type="line"/>
      <point x="444" y="746" type="line"/>
      <point x="243" y="746" type="line"/>
      <point x="174" y="677" type="line"/>
    </contour>
    <contour>
      <point x="265" y="746" type="move" name="top"/>
    </contour>
    <contour>
      <point x="243" y="527" type="move" name="_top"/>
    </contour>
  </outline>
</glyph>
<glyph name="uni1DC8" format="1">
  <advance width="463"/>
  <unicode hex="1DC8"/>
  <outline>
    <contour>
      <point x="368" y="715" type="line"/>
      <point x="462" y="653" type="line"/>
      <point x="494" y="694" type="line"/>
      <point x="374" y="795" type="line"/>
      <point x="245" y="717" type="line"/>
      <point x="140" y="795" type="line"/>
      <point x="97" y="738" type="line"/>
      <point x="243" y="653" type="line"/>
    </contour>
    <contour>
      <point x="298" y="795" type="move" name="top"/>
    </contour>
    <contour>
      <point x="268" y="527" type="move" name="_top"/>
    </contour>
  </outline>
</glyph>
<glyph name="uni1FBD" format="1">
  <advance width="179"/>
  <unicode hex="1FBD"/>
  <outline>
    <component base="uni0326" xOffset="124" yOffset="879"/>
    <contour>
      <point x="131" y="527" type="move" name="_top"/>
    </contour>
  </outline>
</glyph>
<glyph name="uni1FCD" format="1">
  <advance width="311"/>
  <unicode hex="1FCD"/>
  <outline>
    <contour>
      <point x="227" y="785" type="line"/>
      <point x="270" y="582" type="line"/>
      <point x="327" y="591" type="line"/>
      <point x="309" y="799" type="line"/>
    </contour>
    <component base="uni1FBF"/>
    <contour>
      <point x="195" y="527" type="move" name="_top"/>
    </contour>
  </outline>
</glyph>
<glyph name="uni1FCE" format="1">
  <advance width="309"/>
  <unicode hex="1FCE"/>
  <outline>
    <contour>
      <point x="202" y="595" type="line"/>
      <point x="255" y="577" type="line"/>
      <point x="351" y="774" type="line"/>
      <point x="275" y="799" type="line"/>
    </contour>
    <component base="uni1FBF"/>
    <contour>
      <point x="168" y="527" type="move" name="_top"/>
    </contour>
  </outline>
</glyph>
<glyph name="uni1FCF" format="1">
  <advance width="392"/>
  <unicode hex="1FCF"/>
  <outline>
    <contour>
      <point x="249" y="577" type="line"/>
      <point x="275" y="611" type="line" smooth="yes"/>
      <point x="310" y="663"/>
      <point x="313" y="675"/>
      <point x="313" y="694" type="curve" smooth="yes"/>
      <point x="313" y="724"/>
      <point x="292" y="746"/>
      <point x="260" y="746" type="curve" smooth="yes"/>
      <point x="226" y="746"/>
      <point x="198" y="720"/>
      <point x="198" y="685" type="curve" smooth="yes"/>
      <point x="198" y="666"/>
      <point x="208" y="651"/>
      <point x="225" y="640" type="curve"/>
      <point x="194" y="577" type="line"/>
    </contour>
    <component base="uni1FC0" xOffset="13" yOffset="95"/>
    <contour>
      <point x="216" y="527" type="move" name="_top"/>
    </contour>
  </outline>
</glyph>
<glyph name="uni1FDD" format="1">
  <advance width="319"/>
  <unicode hex="1FDD"/>
  <outline>
    <contour>
      <point x="235" y="785" type="line"/>
      <point x="278" y="582" type="line"/>
      <point x="335" y="591" type="line"/>
      <point x="317" y="799" type="line"/>
    </contour>
    <component base="uni1FFE"/>
    <contour>
      <point x="227" y="527" type="move" name="_top"/>
    </contour>
  </outline>
</glyph>
<glyph name="uni1FDE" format="1">
  <advance width="329"/>
  <unicode hex="1FDE"/>
  <outline>
    <contour>
      <point x="222" y="595" type="line"/>
      <point x="275" y="577" type="line"/>
      <point x="371" y="774" type="line"/>
      <point x="295" y="799" type="line"/>
    </contour>
    <component base="uni1FFE"/>
    <contour>
      <point x="200" y="527" type="move" name="_top"/>
    </contour>
  </outline>
</glyph>
<glyph name="uni1FEE" format="1">
  <advance width="384"/>
  <unicode hex="1FEE"/>
  <outline>
    <component base="dieresisacutecomb"/>
    <contour>
      <point x="229" y="527" type="move" name="_top"/>
    </contour>
  </outline>
</glyph>
<glyph name="uni1FEF" format="1">
  <advance width="187"/>
  <unicode hex="1FEF"/>
  <outline>
    <contour>
      <point x="103" y="785" type="line"/>
      <point x="146" y="582" type="line"/>
      <point x="203" y="591" type="line"/>
      <point x="185" y="799" type="line"/>
    </contour>
    <contour>
      <point x="189" y="801" type="move" name="top"/>
    </contour>
    <contour>
      <point x="172" y="527" type="move" name="_top"/>
    </contour>
  </outline>
</glyph>
<glyph name="uni1FFE" format="1">
  <advance width="178"/>
  <unicode hex="1FFE"/>
  <outline>
    <contour>
      <point x="122" y="801"/>
      <point x="97" y="774"/>
      <point x="97" y="738" type="curve" smooth="yes"/>
      <point x="97" y="723"/>
      <point x="102" y="705"/>
      <point x="113" y="670" type="curve" smooth="yes"/>
      <point x="141" y="582" type="line"/>
      <point x="193" y="582" type="line"/>
      <point x="181" y="696" type="line"/>
      <point x="201" y="710"/>
      <point x="210" y="727"/>
      <point x="210" y="748" type="curve" smooth="yes"/>
      <point x="210" y="778"/>
      <point x="187" y="801"/>
      <point x="156" y="801" type="curve" smooth="yes"/>
    </contour>
    <contour>
      <point x="256" y="790" type="move" name="_topleft"/>
    </contour>
    <contour>
      <point x="156" y="802" type="move" name="top"/>
    </contour>
    <contour>
      <point x="159" y="527" type="move" name="_top"/>
    </contour>
  </outline>
</glyph>
<glyph name="perthousand" format="1">
  <advance width="1179"/>
  <unicode hex="2030"/>
  <outline>
    <contour>
      <point x="114" y="11" type="line"/>
      <point x="173" y="-31" type="line"/>
      <point x="729" y="669" type="line"/>
      <point x="670" y="711" type="line"/>
    </contour>
    <contour>
      <point x="309" y="617"/>
      <point x="323" y="582"/>
      <point x="323" y="539" type="curve" smooth="yes"/>
      <point x="323" y="498"/>
      <point x="308" y="403"/>
      <point x="222" y="403" type="curve" smooth="yes"/>
      <point x="172" y="403"/>
      <point x="158" y="440"/>
      <point x="158" y="484" type="curve" smooth="yes"/>
      <point x="158" y="527"/>
      <point x="175" y="617"/>
      <point x="260" y="617" type="curve" smooth="yes"/>
    </contour>
    <contour>
      <point x="130" y="679"/>
      <point x="79" y="567"/>
      <point x="79" y="484" type="curve" smooth="yes"/>
      <point x="79" y="399"/>
      <point x="137" y="341"/>
      <point x="221" y="341" type="curve" smooth="yes"/>
      <point x="356" y="341"/>
      <point x="403" y="458"/>
      <point x="403" y="539" type="curve" smooth="yes"/>
      <point x="403" y="622"/>
      <point x="345" y="679"/>
      <point x="260" y="679" type="curve" smooth="yes"/>
    </contour>
    <contour>
      <point x="667" y="264"/>
      <point x="681" y="229"/>
      <point x="681" y="186" type="curve" smooth="yes"/>
      <point x="681" y="145"/>
      <point x="666" y="50"/>
      <point x="580" y="50" type="curve" smooth="yes"/>
      <point x="530" y="50"/>
      <point x="516" y="87"/>
      <point x="516" y="131" type="curve" smooth="yes"/>
      <point x="516" y="174"/>
      <point x="533" y="264"/>
      <point x="618" y="264" type="curve" smooth="yes"/>
    </contour>
    <contour>
      <point x="488" y="326"/>
      <point x="437" y="214"/>
      <point x="437" y="131" type="curve" smooth="yes"/>
      <point x="437" y="46"/>
      <point x="495" y="-12"/>
      <point x="579" y="-12" type="curve" smooth="yes"/>
      <point x="714" y="-12"/>
      <point x="761" y="105"/>
      <point x="761" y="186" type="curve" smooth="yes"/>
      <point x="761" y="269"/>
      <point x="703" y="326"/>
      <point x="618" y="326" type="curve" smooth="yes"/>
    </contour>
    <contour>
      <point x="1026" y="264"/>
      <point x="1040" y="229"/>
      <point x="1040" y="186" type="curve" smooth="yes"/>
      <point x="1040" y="145"/>
      <point x="1025" y="50"/>
      <point x="939" y="50" type="curve" smooth="yes"/>
      <point x="889" y="50"/>
      <point x="875" y="87"/>
      <point x="875" y="131" type="curve" smooth="yes"/>
      <point x="875" y="174"/>
      <point x="892" y="264"/>
      <point x="977" y="264" type="curve" smooth="yes"/>
    </contour>
    <contour>
      <point x="847" y="326"/>
      <point x="796" y="214"/>
      <point x="796" y="131" type="curve" smooth="yes"/>
      <point x="796" y="46"/>
      <point x="854" y="-12"/>
      <point x="938" y="-12" type="curve" smooth="yes"/>
      <point x="1073" y="-12"/>
      <point x="1120" y="105"/>
      <point x="1120" y="186" type="curve" smooth="yes"/>
      <point x="1120" y="269"/>
      <point x="1062" y="326"/>
      <point x="977" y="326" type="curve" smooth="yes"/>
    </contour>
  </outline>
</glyph>
<glyph name="uni203F" format="1">
  <advance width="671"/>
  <unicode hex="203F"/>
  <outline>
    <contour>
      <point x="585" y="-26" type="line"/>
      <point x="485" y="-87"/>
      <point x="394" y="-116"/>
      <point x="277" y="-116" type="curve" smooth="yes"/>
      <point x="165" y="-116"/>
      <point x="80" y="-89"/>
      <point x="-4" y="-28" type="curve"/>
      <point x="-48" y="-78" type="line"/>
      <point x="32" y="-152"/>
      <point x="132" y="-212"/>
      <point x="271" y="-212" type="curve" smooth="yes"/>
      <point x="406" y="-212"/>
      <point x="523" y="-156"/>
      <point x="622" y="-83" type="curve"/>
    </contour>
  </outline>
</glyph>
<glyph name="colonmonetary" format="1">
  <advance width="541"/>
  <unicode hex="20A1"/>
  <outline>
    <contour>
      <point x="89" y="-155" type="line"/>
      <point x="149" y="-155" type="line"/>
      <point x="441" y="824" type="line"/>
      <point x="381" y="824" type="line"/>
    </contour>
    <contour>
      <point x="198" y="-155" type="line"/>
      <point x="258" y="-155" type="line"/>
      <point x="550" y="824" type="line"/>
      <point x="490" y="824" type="line"/>
    </contour>
    <contour>
      <point x="151" y="679"/>
      <point x="60" y="438"/>
      <point x="60" y="260" type="curve" smooth="yes"/>
      <point x="60" y="83"/>
      <point x="155" y="-12"/>
      <point x="298" y="-12" type="curve" smooth="yes"/>
      <point x="385" y="-12"/>
      <point x="451" y="24"/>
      <point x="495" y="61" type="curve"/>
      <point x="454" y="123" type="line"/>
      <point x="413" y="94"/>
      <point x="369" y="66"/>
      <point x="304" y="66" type="curve" smooth="yes"/>
      <point x="218" y="66"/>
      <point x="156" y="118"/>
      <point x="156" y="252" type="curve" smooth="yes"/>
      <point x="156" y="403"/>
      <point x="213" y="603"/>
      <point x="387" y="603" type="curve" smooth="yes"/>
      <point x="433" y="603"/>
      <point x="470" y="590"/>
      <point x="510" y="559" type="curve"/>
      <point x="563" y="610" type="line"/>
      <point x="516" y="654"/>
      <point x="461" y="679"/>
      <point x="383" y="679" type="curve" smooth="yes"/>
    </contour>
  </outline>
</glyph>
<glyph name="uni20A6" format="1">
  <advance width="663"/>
  <unicode hex="20A6"/>
  <outline>
    <contour>
      <point x="32" y="311" type="line"/>
      <point x="23" y="252" type="line"/>
      <point x="636" y="252" type="line"/>
      <point x="645" y="311" type="line"/>
    </contour>
    <contour>
      <point x="47" y="423" type="line"/>
      <point x="39" y="363" type="line"/>
      <point x="652" y="363" type="line"/>
      <point x="660" y="423" type="line"/>
    </contour>
    <contour>
      <point x="532" y="669" type="line"/>
      <point x="480" y="307" type="line" smooth="yes"/>
      <point x="468" y="225"/>
      <point x="466" y="167"/>
      <point x="466" y="79" type="curve"/>
      <point x="274" y="669" type="line"/>
      <point x="153" y="669" type="line"/>
      <point x="59" y="0" type="line"/>
      <point x="145" y="0" type="line"/>
      <point x="188" y="304" type="line" smooth="yes"/>
      <point x="206" y="428"/>
      <point x="212" y="508"/>
      <point x="213" y="590" type="curve"/>
      <point x="404" y="0" type="line"/>
      <point x="524" y="0" type="line"/>
      <point x="618" y="669" type="line"/>
    </contour>
  </outline>
</glyph>
<glyph name="uni20A9" format="1">
  <advance width="796"/>
  <unicode hex="20A9"/>
  <outline>
    <contour>
      <point x="32" y="311" type="line"/>
      <point x="23" y="252" type="line"/>
      <point x="768" y="252" type="line"/>
      <point x="777" y="311" type="line"/>
    </contour>
    <contour>
      <point x="47" y="423" type="line"/>
      <point x="39" y="363" type="line"/>
      <point x="784" y="363" type="line"/>
      <point x="792" y="423" type="line"/>
    </contour>
    <contour>
      <point x="743" y="669" type="line"/>
      <point x="549" y="81" type="line"/>
      <point x="501" y="669" type="line"/>
      <point x="402" y="669" type="line"/>
      <point x="192" y="81" type="line"/>
      <point x="169" y="669" type="line"/>
      <point x="81" y="669" type="line"/>
      <point x="122" y="0" type="line"/>
      <point x="237" y="0" type="line"/>
      <point x="438" y="561" type="line"/>
      <point x="481" y="0" type="line"/>
      <point x="598" y="0" type="line"/>
      <point x="827" y="669" type="line"/>
    </contour>
  </outline>
</glyph>
<glyph name="uni20AF" format="1">
  <advance width="1158"/>
  <unicode hex="20AF"/>
  <outline>
    <contour>
      <point x="266" y="0" type="line" smooth="yes"/>
      <point x="508" y="0"/>
      <point x="640" y="174"/>
      <point x="640" y="413" type="curve" smooth="yes"/>
      <point x="640" y="603"/>
      <point x="511" y="669"/>
      <point x="337" y="669" type="curve" smooth="yes"/>
      <point x="236" y="669" type="line"/>
      <point x="226" y="594" type="line"/>
      <point x="349" y="594" type="line" smooth="yes"/>
      <point x="462" y="594"/>
      <point x="539" y="549"/>
      <point x="539" y="412" type="curve" smooth="yes"/>
      <point x="539" y="231"/>
      <point x="468" y="77"/>
      <point x="282" y="75" type="curve" smooth="yes"/>
      <point x="70" y="73" type="line"/>
      <point x="60" y="0" type="line"/>
    </contour>
    <contour>
      <point x="177" y="74" type="line"/>
      <point x="235" y="105"/>
      <point x="255" y="138"/>
      <point x="264" y="203" type="curve" smooth="yes"/>
      <point x="312" y="547" type="line"/>
      <point x="219" y="547" type="line"/>
      <point x="170" y="206" type="line" smooth="yes"/>
      <point x="158" y="124"/>
      <point x="140" y="98"/>
      <point x="69" y="73" type="curve"/>
      <point x="60" y="0" type="line"/>
    </contour>
    <component base="rho" xOffset="581"/>
    <component base="hookaboveHELPER2.case" xOffset="-3" yOffset="-20"/>
  </outline>
</glyph>
<glyph name="uni20B4" format="1">
  <advance width="536"/>
  <unicode hex="20B4"/>
  <outline>
    <contour>
      <point x="240" y="679"/>
      <point x="178" y="654"/>
      <point x="112" y="604" type="curve"/>
      <point x="159" y="543" type="line"/>
      <point x="214" y="584"/>
      <point x="264" y="604"/>
      <point x="324" y="604" type="curve" smooth="yes"/>
      <point x="383" y="604"/>
      <point x="426" y="580"/>
      <point x="426" y="528" type="curve" smooth="yes"/>
      <point x="426" y="440"/>
      <point x="363" y="411"/>
      <point x="256" y="381" type="curve" smooth="yes"/>
      <point x="126" y="345"/>
      <point x="32" y="287"/>
      <point x="32" y="161" type="curve" smooth="yes"/>
      <point x="32" y="56"/>
      <point x="108" y="-12"/>
      <point x="248" y="-12" type="curve" smooth="yes"/>
      <point x="343" y="-12"/>
      <point x="422" y="18"/>
      <point x="486" y="72" type="curve"/>
      <point x="440" y="133" type="line"/>
      <point x="384" y="92"/>
      <point x="328" y="64"/>
      <point x="253" y="64" type="curve" smooth="yes"/>
      <point x="182" y="64"/>
      <point x="127" y="91"/>
      <point x="127" y="161" type="curve" smooth="yes"/>
      <point x="127" y="252"/>
      <point x="174" y="282"/>
      <point x="298" y="320" type="curve" smooth="yes"/>
      <point x="424" y="359"/>
      <point x="520" y="410"/>
      <point x="520" y="527" type="curve" smooth="yes"/>
      <point x="520" y="618"/>
      <point x="443" y="679"/>
      <point x="329" y="679" type="curve" smooth="yes"/>
    </contour>
    <contour>
      <point x="30" y="311" type="line"/>
      <point x="21" y="252" type="line"/>
      <point x="490" y="252" type="line"/>
      <point x="499" y="311" type="line"/>
    </contour>
    <contour>
      <point x="46" y="423" type="line"/>
      <point x="37" y="363" type="line"/>
      <point x="506" y="363" type="line"/>
      <point x="515" y="423" type="line"/>
    </contour>
  </outline>
</glyph>
<glyph name="arrowleft" format="1">
  <advance width="900"/>
  <unicode hex="2190"/>
  <outline>
    <contour>
      <point x="124" y="329" type="line"/>
      <point x="399" y="21" type="line"/>
      <point x="466" y="78" type="line"/>
      <point x="331" y="226" type="line" smooth="yes"/>
      <point x="309" y="250"/>
      <point x="287" y="272"/>
      <point x="261" y="289" type="curve"/>
      <point x="790" y="289" type="line"/>
      <point x="790" y="369" type="line"/>
      <point x="261" y="369" type="line"/>
      <point x="291" y="388"/>
      <point x="302" y="400"/>
      <point x="331" y="432" type="curve" smooth="yes"/>
      <point x="466" y="580" type="line"/>
      <point x="399" y="637" type="line"/>
    </contour>
  </outline>
</glyph>
<glyph name="arrowdown" format="1">
  <advance width="900"/>
  <unicode hex="2193"/>
  <outline>
    <contour>
      <point x="403" y="635" type="line"/>
      <point x="403" y="94" type="line"/>
      <point x="386" y="123"/>
      <point x="366" y="146"/>
      <point x="341" y="168" type="curve" smooth="yes"/>
      <point x="190" y="307" type="line"/>
      <point x="135" y="246" type="line"/>
      <point x="448" y="-35" type="line"/>
      <point x="761" y="246" type="line"/>
      <point x="706" y="307" type="line"/>
      <point x="555" y="168" type="line" smooth="yes"/>
      <point x="530" y="146"/>
      <point x="510" y="123"/>
      <point x="493" y="94" type="curve"/>
      <point x="493" y="635" type="line"/>
    </contour>
  </outline>
</glyph>
<glyph name="arrowboth" format="1">
  <advance width="1285"/>
  <unicode hex="2194"/>
  <outline>
    <contour>
      <point x="838" y="580" type="line"/>
      <point x="973" y="432" type="line" smooth="yes"/>
      <point x="1002" y="400"/>
      <point x="1013" y="388"/>
      <point x="1043" y="369" type="curve"/>
      <point x="261" y="369" type="line"/>
      <point x="291" y="388"/>
      <point x="302" y="400"/>
      <point x="331" y="432" type="curve" smooth="yes"/>
      <point x="466" y="580" type="line"/>
      <point x="399" y="637" type="line"/>
      <point x="124" y="329" type="line"/>
      <point x="399" y="21" type="line"/>
      <point x="466" y="78" type="line"/>
      <point x="331" y="226" type="line" smooth="yes"/>
      <point x="309" y="250"/>
      <point x="287" y="272"/>
      <point x="261" y="289" type="curve"/>
      <point x="1043" y="289" type="line"/>
      <point x="1017" y="272"/>
      <point x="995" y="250"/>
      <point x="973" y="226" type="curve" smooth="yes"/>
      <point x="838" y="78" type="line"/>
      <point x="905" y="21" type="line"/>
      <point x="1180" y="329" type="line"/>
      <point x="905" y="637" type="line"/>
    </contour>
  </outline>
</glyph>
<glyph name="arrowupdn" format="1">
  <advance width="969"/>
  <unicode hex="2195"/>
  <outline>
    <contour>
      <point x="182" y="587" type="line"/>
      <point x="237" y="526" type="line"/>
      <point x="388" y="665" type="line" smooth="yes"/>
      <point x="413" y="687"/>
      <point x="433" y="707"/>
      <point x="450" y="739" type="curve"/>
      <point x="450" y="-61" type="line"/>
      <point x="433" y="-29"/>
      <point x="413" y="-9"/>
      <point x="388" y="13" type="curve" smooth="yes"/>
      <point x="237" y="152" type="line"/>
      <point x="182" y="91" type="line"/>
      <point x="495" y="-190" type="line"/>
      <point x="808" y="91" type="line"/>
      <point x="753" y="152" type="line"/>
      <point x="602" y="13" type="line" smooth="yes"/>
      <point x="577" y="-9"/>
      <point x="557" y="-29"/>
      <point x="540" y="-61" type="curve"/>
      <point x="540" y="739" type="line"/>
      <point x="557" y="707"/>
      <point x="577" y="687"/>
      <point x="602" y="665" type="curve" smooth="yes"/>
      <point x="753" y="526" type="line"/>
      <point x="808" y="587" type="line"/>
      <point x="495" y="868" type="line"/>
    </contour>
  </outline>
</glyph>
<glyph name="uni2199" format="1">
  <advance width="900"/>
  <unicode hex="2199"/>
  <outline>
    <contour>
      <point x="309" y="187" type="line"/>
      <point x="318" y="227"/>
      <point x="320" y="258"/>
      <point x="318" y="292" type="curve" smooth="yes"/>
      <point x="306" y="489" type="line"/>
      <point x="219" y="484" type="line"/>
      <point x="241" y="62" type="line"/>
      <point x="655" y="40" type="line"/>
      <point x="660" y="123" type="line"/>
      <point x="474" y="133" type="line" smooth="yes"/>
      <point x="432" y="135"/>
      <point x="411" y="134"/>
      <point x="369" y="126" type="curve"/>
      <point x="747" y="506" type="line"/>
      <point x="686" y="567" type="line"/>
    </contour>
  </outline>
</glyph>
<glyph name="uni21E6" format="1">
  <advance width="960"/>
  <unicode hex="21E6"/>
  <outline>
    <contour>
      <point x="922" y="387" type="line"/>
      <point x="922" y="417"/>
      <point x="902" y="437"/>
      <point x="872" y="437" type="curve" smooth="yes"/>
      <point x="340" y="437" type="line"/>
      <point x="340" y="613" type="line"/>
      <point x="42" y="313" type="line"/>
      <point x="340" y="13" type="line"/>
      <point x="340" y="189" type="line"/>
      <point x="872" y="189" type="line" smooth="yes"/>
      <point x="902" y="189"/>
      <point x="922" y="209"/>
      <point x="922" y="239" type="curve" smooth="yes"/>
    </contour>
    <contour>
      <point x="878" y="233" type="line"/>
      <point x="295" y="233" type="line"/>
      <point x="295" y="122" type="line"/>
      <point x="106" y="313" type="line"/>
      <point x="295" y="504" type="line"/>
      <point x="295" y="393" type="line"/>
      <point x="878" y="393" type="line"/>
    </contour>
  </outline>
</glyph>
<glyph name="partialdiff" format="1">
  <advance width="504"/>
  <unicode hex="2202"/>
  <outline>
    <contour>
      <point x="155" y="635" type="line"/>
      <point x="324" y="584"/>
      <point x="371" y="477"/>
      <point x="373" y="383" type="curve" smooth="yes"/>
      <point x="373" y="371"/>
      <point x="373" y="361"/>
      <point x="373" y="348" type="curve"/>
      <point x="347" y="390"/>
      <point x="301" y="427"/>
      <point x="234" y="427" type="curve" smooth="yes"/>
      <point x="90" y="427"/>
      <point x="19" y="286"/>
      <point x="19" y="175" type="curve" smooth="yes"/>
      <point x="19" y="53"/>
      <point x="100" y="-12"/>
      <point x="204" y="-12" type="curve" smooth="yes"/>
      <point x="379" y="-12"/>
      <point x="462" y="156"/>
      <point x="462" y="358" type="curve" smooth="yes"/>
      <point x="462" y="547"/>
      <point x="369" y="643"/>
      <point x="181" y="700" type="curve"/>
    </contour>
    <contour>
      <point x="148" y="61"/>
      <point x="111" y="100"/>
      <point x="111" y="175" type="curve" smooth="yes"/>
      <point x="111" y="262"/>
      <point x="149" y="355"/>
      <point x="245" y="355" type="curve" smooth="yes"/>
      <point x="305" y="355"/>
      <point x="342" y="324"/>
      <point x="365" y="267" type="curve"/>
      <point x="345" y="127"/>
      <point x="289" y="61"/>
      <point x="208" y="61" type="curve" smooth="yes"/>
    </contour>
  </outline>
</glyph>
